G04*
G04 #@! TF.GenerationSoftware,Altium Limited,Altium Designer,19.1.7 (138)*
G04*
G04 Layer_Physical_Order=4*
G04 Layer_Color=16711680*
%FSLAX24Y24*%
%MOIN*%
G70*
G01*
G75*
%ADD10C,0.0070*%
%ADD65C,0.0100*%
%ADD66C,0.0080*%
%ADD67C,0.0150*%
%ADD68C,0.0250*%
%ADD71C,0.0300*%
%ADD79C,0.0591*%
%ADD80C,0.0050*%
%ADD81C,0.0701*%
%ADD82C,0.0354*%
%ADD83C,0.0197*%
%ADD84C,0.0138*%
%ADD85C,0.1000*%
%ADD86R,0.0440X0.3341*%
%ADD87R,0.0208X0.0300*%
G36*
X94389Y34101D02*
X94498Y34056D01*
X94596Y33990D01*
X94638Y33948D01*
X94214Y33524D01*
X94638Y33100D01*
X94596Y33058D01*
X94498Y32992D01*
X94389Y32947D01*
X94273Y32924D01*
X94155D01*
X94039Y32947D01*
X93930Y32992D01*
X93832Y33058D01*
X93790Y33100D01*
X93790Y33100D01*
X94214Y33524D01*
X93790Y33948D01*
X93790D01*
X93832Y33990D01*
X93930Y34056D01*
X94039Y34101D01*
X94155Y34124D01*
X94273D01*
X94389Y34101D01*
D02*
G37*
G36*
X3936D02*
X4045Y34056D01*
X4143Y33990D01*
X4185Y33948D01*
X3761Y33524D01*
X4185Y33100D01*
Y33100D01*
X4143Y33058D01*
X4045Y32992D01*
X3936Y32947D01*
X3820Y32924D01*
X3702D01*
X3586Y32947D01*
X3477Y32992D01*
X3378Y33058D01*
X3337Y33100D01*
X3761Y33524D01*
X3337Y33948D01*
X3378Y33990D01*
X3477Y34056D01*
X3586Y34101D01*
X3702Y34124D01*
X3820D01*
X3936Y34101D01*
D02*
G37*
G36*
X83149Y30316D02*
X83158Y30315D01*
X83164Y30309D01*
X83265Y30283D01*
X83273Y30284D01*
X83281Y30280D01*
X83331Y30280D01*
X83640Y30260D01*
X84261Y30200D01*
X84878Y30113D01*
X85491Y30000D01*
X86098Y29861D01*
X86548Y29738D01*
Y28119D01*
X83663Y28119D01*
X83614Y28119D01*
X83613Y28119D01*
X83565Y28114D01*
X82415D01*
Y24768D01*
X84093D01*
Y26007D01*
X84683D01*
X84695Y25992D01*
X84705Y25942D01*
X84734Y25899D01*
X84776Y25871D01*
X84826Y25861D01*
X84876Y25871D01*
X84918Y25899D01*
X84946Y25942D01*
X84956Y25992D01*
X84969Y26007D01*
X85243D01*
Y24768D01*
X86548D01*
Y25259D01*
X88210D01*
Y20456D01*
X88998D01*
Y17074D01*
X88210D01*
Y5860D01*
X88210Y5835D01*
Y5810D01*
X86911Y5810D01*
Y5810D01*
X85148D01*
Y5154D01*
X88160Y5154D01*
X88210Y5154D01*
X88260Y5154D01*
X92697D01*
X92697Y5154D01*
X92706Y5111D01*
X92730Y5075D01*
X92732Y5061D01*
X92717Y5046D01*
X92695Y4991D01*
X92676Y4972D01*
X92674Y4972D01*
X92619Y4949D01*
X92577Y4907D01*
X92555Y4852D01*
X92555Y4793D01*
X92547Y4776D01*
X92482Y4758D01*
X92476Y4753D01*
X92467Y4752D01*
X92378Y4700D01*
X92373Y4693D01*
X92365Y4690D01*
X92330Y4655D01*
X92097Y4451D01*
X91615Y4055D01*
X91117Y3680D01*
X90604Y3326D01*
X90077Y2994D01*
X89535Y2685D01*
X88981Y2400D01*
X88416Y2138D01*
X87840Y1900D01*
X87254Y1687D01*
X86660Y1499D01*
X86059Y1336D01*
X85451Y1199D01*
X84837Y1088D01*
X84220Y1003D01*
X83599Y944D01*
X83295Y925D01*
X83292Y926D01*
X83289Y925D01*
X83285Y926D01*
X83285Y926D01*
X83285Y926D01*
X83236Y921D01*
X83229Y917D01*
X83221Y917D01*
X83129Y883D01*
X83123Y877D01*
X83114Y876D01*
X83100Y866D01*
X83068Y874D01*
X83023Y913D01*
X82967Y932D01*
X82908Y928D01*
X82855Y902D01*
X82826Y900D01*
X82813Y912D01*
X82758Y932D01*
X82698Y929D01*
X82645Y904D01*
X82612Y902D01*
X82603Y910D01*
X82548Y931D01*
X82489Y930D01*
X82435Y905D01*
X82435Y905D01*
X82385Y904D01*
X82379Y909D01*
X82324Y931D01*
X82265Y930D01*
X82211Y907D01*
X82184Y907D01*
X82183Y908D01*
X82128Y931D01*
X82068Y930D01*
X82014Y908D01*
X81972Y865D01*
X81955Y859D01*
X81896Y893D01*
X81887Y894D01*
X81881Y899D01*
X81781Y926D01*
X81772Y925D01*
X81764Y928D01*
X81715D01*
X81406Y948D01*
X80785Y1009D01*
X80168Y1096D01*
X79555Y1209D01*
X78948Y1347D01*
X78347Y1512D01*
X77753Y1701D01*
X77168Y1916D01*
X76592Y2155D01*
X76028Y2419D01*
X75474Y2706D01*
X74934Y3016D01*
X74407Y3349D01*
X73895Y3704D01*
X73398Y4080D01*
X72918Y4477D01*
X72684Y4684D01*
X72683Y4684D01*
X72682Y4686D01*
X72644Y4717D01*
X72636Y4719D01*
X72630Y4725D01*
X72541Y4766D01*
X72533Y4766D01*
X72526Y4771D01*
X72509Y4774D01*
X72492Y4803D01*
X72488Y4862D01*
X72462Y4915D01*
X72418Y4955D01*
X72361Y4974D01*
X72340Y4993D01*
X72339Y5010D01*
X72314Y5063D01*
X72270Y5103D01*
X72214Y5123D01*
X72190Y5145D01*
X72190Y5157D01*
X72165Y5211D01*
X72122Y5252D01*
X72067Y5273D01*
X72066Y5273D01*
X72030Y5307D01*
X72030Y5315D01*
X72007Y5369D01*
X71964Y5410D01*
X71909Y5432D01*
X71891Y5451D01*
X71891Y5453D01*
X71868Y5508D01*
X71825Y5550D01*
X71771Y5572D01*
X71711Y5572D01*
X71694Y5580D01*
X71677Y5645D01*
X71671Y5652D01*
X71670Y5660D01*
X71619Y5749D01*
X71612Y5755D01*
X71609Y5762D01*
X71574Y5797D01*
X71369Y6030D01*
X70973Y6512D01*
X70598Y7010D01*
X70245Y7523D01*
X69913Y8051D01*
X69604Y8592D01*
X69318Y9146D01*
X69057Y9711D01*
X68819Y10287D01*
X68606Y10873D01*
X68418Y11467D01*
X68255Y12069D01*
X68118Y12677D01*
X68007Y13290D01*
X67922Y13907D01*
X67863Y14528D01*
X67844Y14832D01*
X67845Y14835D01*
X67843Y14839D01*
X67844Y14842D01*
X67839Y14892D01*
X67835Y14899D01*
X67835Y14907D01*
X67800Y15001D01*
X67795Y15007D01*
X67793Y15016D01*
X67785Y15027D01*
X67793Y15059D01*
X67832Y15104D01*
X67852Y15160D01*
X67848Y15219D01*
X67821Y15273D01*
X67820Y15301D01*
X67831Y15314D01*
X67851Y15370D01*
X67848Y15429D01*
X67823Y15483D01*
X67822Y15515D01*
X67830Y15524D01*
X67851Y15579D01*
X67849Y15638D01*
X67825Y15692D01*
X67824Y15693D01*
X67823Y15743D01*
X67828Y15748D01*
X67850Y15803D01*
X67849Y15862D01*
X67826Y15917D01*
X67826Y15943D01*
X67828Y15945D01*
X67850Y16000D01*
X67850Y16059D01*
X67827Y16114D01*
X67785Y16155D01*
X67779Y16173D01*
X67812Y16231D01*
X67813Y16240D01*
X67818Y16247D01*
X67845Y16346D01*
X67844Y16355D01*
X67847Y16363D01*
Y16412D01*
X67867Y16721D01*
X67928Y17342D01*
X68014Y17959D01*
X68127Y18572D01*
X68266Y19180D01*
X68430Y19781D01*
X68620Y20374D01*
X68834Y20959D01*
X69074Y21535D01*
X69337Y22100D01*
X69624Y22653D01*
X69935Y23193D01*
X70268Y23720D01*
X70622Y24232D01*
X70999Y24729D01*
X71396Y25209D01*
X71602Y25443D01*
X71603Y25444D01*
X71604Y25445D01*
X71604Y25445D01*
X71604Y25445D01*
X71635Y25484D01*
X71638Y25492D01*
X71644Y25497D01*
X71685Y25586D01*
X71685Y25595D01*
X71690Y25601D01*
X71693Y25618D01*
X71722Y25635D01*
X71781Y25639D01*
X71834Y25665D01*
X71873Y25710D01*
X71892Y25766D01*
X71912Y25787D01*
X71928Y25788D01*
X71982Y25813D01*
X72022Y25857D01*
X72042Y25913D01*
X72064Y25937D01*
X72076Y25937D01*
X72130Y25962D01*
X72170Y26005D01*
X72191Y26060D01*
X72191Y26061D01*
X72226Y26097D01*
X72233Y26097D01*
X72288Y26120D01*
X72329Y26163D01*
X72351Y26218D01*
X72369Y26237D01*
X72372Y26237D01*
X72427Y26260D01*
X72468Y26302D01*
X72491Y26357D01*
X72491Y26416D01*
X72499Y26433D01*
X72563Y26450D01*
X72570Y26456D01*
X72579Y26457D01*
X72668Y26509D01*
X72673Y26515D01*
X72681Y26519D01*
X72718Y26555D01*
X72718Y26555D01*
X72718Y26556D01*
X72720Y26558D01*
X72721Y26558D01*
X72721Y26558D01*
X72948Y26758D01*
X73430Y27154D01*
X73927Y27529D01*
X74441Y27883D01*
X74968Y28214D01*
X75509Y28523D01*
X76063Y28809D01*
X76629Y29071D01*
X77205Y29308D01*
X77790Y29521D01*
X78385Y29709D01*
X78986Y29872D01*
X79594Y30009D01*
X80207Y30120D01*
X80825Y30206D01*
X81445Y30264D01*
X81755Y30284D01*
X81759Y30283D01*
X81759Y30283D01*
X81759Y30283D01*
X81808Y30288D01*
X81816Y30292D01*
X81824Y30291D01*
X81916Y30325D01*
X81922Y30331D01*
X81931Y30332D01*
X81945Y30342D01*
X81978Y30334D01*
X82023Y30295D01*
X82079Y30276D01*
X82138Y30280D01*
X82191Y30306D01*
X82220Y30307D01*
X82233Y30296D01*
X82288Y30276D01*
X82348Y30279D01*
X82401Y30304D01*
X82434Y30305D01*
X82442Y30297D01*
X82498Y30276D01*
X82557Y30278D01*
X82611Y30303D01*
X82611Y30303D01*
X82661Y30304D01*
X82666Y30299D01*
X82721Y30277D01*
X82781Y30278D01*
X82835Y30301D01*
X82862Y30301D01*
X82863Y30300D01*
X82918Y30277D01*
X82977Y30277D01*
X83032Y30300D01*
X83074Y30342D01*
X83092Y30349D01*
X83149Y30316D01*
D02*
G37*
G36*
X49684D02*
X49693Y30315D01*
X49700Y30309D01*
X49800Y30283D01*
X49809Y30284D01*
X49816Y30280D01*
X49866Y30280D01*
X50175Y30260D01*
X50796Y30200D01*
X51413Y30113D01*
X52026Y30000D01*
X52634Y29861D01*
X53084Y29738D01*
Y28119D01*
X50198Y28119D01*
X50149Y28119D01*
X50148Y28119D01*
X50100Y28114D01*
X48950D01*
Y24768D01*
X50628D01*
Y26007D01*
X51218D01*
X51231Y25992D01*
X51241Y25942D01*
X51269Y25899D01*
X51311Y25871D01*
X51361Y25861D01*
X51411Y25871D01*
X51454Y25899D01*
X51482Y25942D01*
X51492Y25992D01*
X51504Y26007D01*
X51778D01*
Y24768D01*
X53084D01*
Y25259D01*
X54746D01*
Y20456D01*
X55533D01*
Y17074D01*
X54746D01*
Y5860D01*
X54746Y5835D01*
Y5810D01*
X53447Y5810D01*
Y5810D01*
X51684D01*
Y5154D01*
X54696Y5154D01*
X54746Y5154D01*
X54796Y5154D01*
X59233D01*
X59233Y5154D01*
X59241Y5111D01*
X59265Y5075D01*
X59267Y5061D01*
X59252Y5046D01*
X59230Y4991D01*
X59212Y4972D01*
X59209Y4972D01*
X59155Y4949D01*
X59113Y4907D01*
X59090Y4852D01*
X59091Y4793D01*
X59082Y4776D01*
X59018Y4758D01*
X59011Y4753D01*
X59003Y4752D01*
X58913Y4700D01*
X58908Y4693D01*
X58900Y4690D01*
X58865Y4655D01*
X58632Y4451D01*
X58151Y4055D01*
X57653Y3680D01*
X57140Y3326D01*
X56612Y2994D01*
X56071Y2685D01*
X55517Y2400D01*
X54951Y2138D01*
X54375Y1900D01*
X53790Y1687D01*
X53196Y1499D01*
X52594Y1336D01*
X51986Y1199D01*
X51373Y1088D01*
X50756Y1003D01*
X50135Y944D01*
X49830Y925D01*
X49827Y926D01*
X49824Y925D01*
X49821Y926D01*
X49821Y926D01*
X49821Y926D01*
X49772Y921D01*
X49765Y917D01*
X49756Y917D01*
X49664Y883D01*
X49658Y877D01*
X49650Y876D01*
X49635Y866D01*
X49603Y874D01*
X49559Y913D01*
X49502Y932D01*
X49443Y928D01*
X49390Y902D01*
X49361Y900D01*
X49349Y912D01*
X49293Y932D01*
X49234Y929D01*
X49180Y904D01*
X49147Y902D01*
X49139Y910D01*
X49083Y931D01*
X49024Y930D01*
X48970Y905D01*
X48970Y905D01*
X48920Y904D01*
X48915Y909D01*
X48860Y931D01*
X48800Y930D01*
X48746Y907D01*
X48720Y907D01*
X48718Y908D01*
X48663Y931D01*
X48604Y930D01*
X48549Y908D01*
X48507Y865D01*
X48490Y859D01*
X48431Y893D01*
X48423Y894D01*
X48416Y899D01*
X48316Y926D01*
X48308Y925D01*
X48300Y928D01*
X48250D01*
X47941Y948D01*
X47321Y1009D01*
X46704Y1096D01*
X46091Y1209D01*
X45483Y1347D01*
X44882Y1512D01*
X44288Y1701D01*
X43703Y1916D01*
X43128Y2155D01*
X42563Y2419D01*
X42010Y2706D01*
X41469Y3016D01*
X40943Y3349D01*
X40430Y3704D01*
X39934Y4080D01*
X39453Y4477D01*
X39219Y4684D01*
X39218Y4684D01*
X39217Y4686D01*
X39179Y4717D01*
X39171Y4719D01*
X39166Y4725D01*
X39076Y4766D01*
X39068Y4766D01*
X39061Y4771D01*
X39045Y4774D01*
X39028Y4803D01*
X39024Y4862D01*
X38998Y4915D01*
X38953Y4955D01*
X38897Y4974D01*
X38875Y4993D01*
X38874Y5010D01*
X38849Y5063D01*
X38805Y5103D01*
X38749Y5123D01*
X38725Y5145D01*
X38725Y5157D01*
X38701Y5211D01*
X38658Y5252D01*
X38602Y5273D01*
X38602Y5273D01*
X38566Y5307D01*
X38566Y5315D01*
X38542Y5369D01*
X38500Y5410D01*
X38445Y5432D01*
X38426Y5451D01*
X38426Y5453D01*
X38403Y5508D01*
X38361Y5550D01*
X38306Y5572D01*
X38247Y5572D01*
X38230Y5580D01*
X38212Y5645D01*
X38207Y5652D01*
X38206Y5660D01*
X38154Y5749D01*
X38147Y5755D01*
X38144Y5762D01*
X38109Y5797D01*
X37905Y6030D01*
X37509Y6512D01*
X37134Y7010D01*
X36780Y7523D01*
X36448Y8051D01*
X36140Y8592D01*
X35854Y9146D01*
X35592Y9711D01*
X35354Y10287D01*
X35141Y10873D01*
X34953Y11467D01*
X34790Y12069D01*
X34653Y12677D01*
X34542Y13290D01*
X34457Y13907D01*
X34398Y14528D01*
X34379Y14832D01*
X34380Y14835D01*
X34379Y14839D01*
X34380Y14842D01*
X34375Y14892D01*
X34371Y14899D01*
X34371Y14907D01*
X34336Y15001D01*
X34330Y15007D01*
X34328Y15016D01*
X34320Y15027D01*
X34329Y15059D01*
X34368Y15104D01*
X34387Y15160D01*
X34383Y15219D01*
X34357Y15273D01*
X34355Y15301D01*
X34367Y15314D01*
X34387Y15370D01*
X34384Y15429D01*
X34358Y15483D01*
X34357Y15515D01*
X34365Y15524D01*
X34386Y15579D01*
X34384Y15638D01*
X34360Y15692D01*
X34360Y15693D01*
X34359Y15743D01*
X34364Y15748D01*
X34386Y15803D01*
X34385Y15862D01*
X34362Y15917D01*
X34361Y15943D01*
X34363Y15945D01*
X34385Y16000D01*
X34385Y16059D01*
X34362Y16114D01*
X34320Y16155D01*
X34314Y16173D01*
X34347Y16231D01*
X34348Y16240D01*
X34354Y16247D01*
X34380Y16346D01*
X34379Y16355D01*
X34382Y16363D01*
Y16412D01*
X34403Y16721D01*
X34463Y17342D01*
X34550Y17959D01*
X34663Y18572D01*
X34801Y19180D01*
X34966Y19781D01*
X35155Y20374D01*
X35370Y20959D01*
X35609Y21535D01*
X35873Y22100D01*
X36160Y22653D01*
X36470Y23193D01*
X36803Y23720D01*
X37158Y24232D01*
X37534Y24729D01*
X37932Y25209D01*
X38138Y25443D01*
X38138Y25444D01*
X38140Y25445D01*
X38140Y25445D01*
X38140Y25445D01*
X38171Y25484D01*
X38173Y25492D01*
X38179Y25497D01*
X38220Y25586D01*
X38220Y25595D01*
X38225Y25601D01*
X38228Y25618D01*
X38257Y25635D01*
X38316Y25639D01*
X38370Y25665D01*
X38409Y25710D01*
X38428Y25766D01*
X38447Y25787D01*
X38464Y25788D01*
X38517Y25813D01*
X38557Y25857D01*
X38577Y25913D01*
X38600Y25937D01*
X38611Y25937D01*
X38665Y25962D01*
X38706Y26005D01*
X38727Y26060D01*
X38727Y26061D01*
X38761Y26097D01*
X38769Y26097D01*
X38823Y26120D01*
X38864Y26163D01*
X38886Y26218D01*
X38905Y26237D01*
X38907Y26237D01*
X38962Y26260D01*
X39004Y26302D01*
X39026Y26357D01*
X39026Y26416D01*
X39034Y26433D01*
X39099Y26450D01*
X39106Y26456D01*
X39114Y26457D01*
X39203Y26509D01*
X39209Y26515D01*
X39217Y26519D01*
X39253Y26555D01*
X39253Y26555D01*
X39253Y26556D01*
X39256Y26558D01*
X39256Y26558D01*
X39256Y26558D01*
X39483Y26758D01*
X39965Y27154D01*
X40463Y27529D01*
X40976Y27883D01*
X41504Y28214D01*
X42045Y28523D01*
X42599Y28809D01*
X43164Y29071D01*
X43740Y29308D01*
X44326Y29521D01*
X44920Y29709D01*
X45522Y29872D01*
X46130Y30009D01*
X46743Y30120D01*
X47360Y30206D01*
X47981Y30264D01*
X48291Y30284D01*
X48295Y30283D01*
X48295Y30283D01*
X48295Y30283D01*
X48344Y30288D01*
X48351Y30292D01*
X48359Y30291D01*
X48452Y30325D01*
X48458Y30331D01*
X48466Y30332D01*
X48481Y30342D01*
X48514Y30334D01*
X48558Y30295D01*
X48614Y30276D01*
X48673Y30280D01*
X48727Y30306D01*
X48755Y30307D01*
X48768Y30296D01*
X48824Y30276D01*
X48883Y30279D01*
X48937Y30304D01*
X48969Y30305D01*
X48978Y30297D01*
X49033Y30276D01*
X49093Y30278D01*
X49147Y30303D01*
X49147Y30303D01*
X49197Y30304D01*
X49202Y30299D01*
X49257Y30277D01*
X49316Y30278D01*
X49371Y30301D01*
X49397Y30301D01*
X49399Y30300D01*
X49454Y30277D01*
X49513Y30277D01*
X49568Y30300D01*
X49609Y30342D01*
X49627Y30349D01*
X49684Y30316D01*
D02*
G37*
G36*
X16220D02*
X16228Y30315D01*
X16235Y30309D01*
X16335Y30283D01*
X16344Y30284D01*
X16352Y30280D01*
X16402Y30280D01*
X16711Y30260D01*
X17331Y30200D01*
X17949Y30113D01*
X18561Y30000D01*
X19169Y29861D01*
X19619Y29738D01*
Y28119D01*
X16734Y28119D01*
X16685Y28119D01*
X16684Y28119D01*
X16636Y28114D01*
X15485D01*
Y24768D01*
X17164D01*
Y26007D01*
X17754D01*
X17766Y25992D01*
X17776Y25942D01*
X17805Y25899D01*
X17847Y25871D01*
X17897Y25861D01*
X17947Y25871D01*
X17989Y25899D01*
X18017Y25942D01*
X18027Y25992D01*
X18040Y26007D01*
X18314D01*
Y24768D01*
X19619D01*
Y25259D01*
X21281D01*
Y20456D01*
X22069D01*
Y17074D01*
X21281D01*
Y5860D01*
X21281Y5835D01*
Y5810D01*
X19982Y5810D01*
Y5810D01*
X18219D01*
Y5154D01*
X21231Y5154D01*
X21281Y5154D01*
X21331Y5154D01*
X25768D01*
X25768Y5154D01*
X25777Y5111D01*
X25801Y5075D01*
X25802Y5061D01*
X25788Y5046D01*
X25766Y4991D01*
X25747Y4972D01*
X25745Y4972D01*
X25690Y4949D01*
X25648Y4907D01*
X25626Y4852D01*
X25626Y4793D01*
X25618Y4776D01*
X25553Y4758D01*
X25547Y4753D01*
X25538Y4752D01*
X25449Y4700D01*
X25444Y4693D01*
X25436Y4690D01*
X25401Y4655D01*
X25168Y4451D01*
X24686Y4055D01*
X24188Y3680D01*
X23675Y3326D01*
X23147Y2994D01*
X22606Y2685D01*
X22052Y2400D01*
X21487Y2138D01*
X20911Y1900D01*
X20325Y1687D01*
X19731Y1499D01*
X19129Y1336D01*
X18522Y1199D01*
X17908Y1088D01*
X17291Y1003D01*
X16670Y944D01*
X16366Y925D01*
X16363Y926D01*
X16359Y925D01*
X16356Y926D01*
X16356Y926D01*
X16356Y926D01*
X16307Y921D01*
X16300Y917D01*
X16292Y917D01*
X16199Y883D01*
X16193Y877D01*
X16185Y876D01*
X16171Y866D01*
X16139Y874D01*
X16094Y913D01*
X16038Y932D01*
X15979Y928D01*
X15926Y902D01*
X15897Y900D01*
X15884Y912D01*
X15828Y932D01*
X15769Y929D01*
X15716Y904D01*
X15683Y902D01*
X15674Y910D01*
X15619Y931D01*
X15560Y930D01*
X15506Y905D01*
X15505Y905D01*
X15455Y904D01*
X15450Y909D01*
X15395Y931D01*
X15336Y930D01*
X15281Y907D01*
X15255Y907D01*
X15253Y908D01*
X15199Y931D01*
X15139Y930D01*
X15085Y908D01*
X15043Y865D01*
X15025Y859D01*
X14967Y893D01*
X14958Y894D01*
X14951Y899D01*
X14852Y926D01*
X14843Y925D01*
X14835Y928D01*
X14786D01*
X14477Y948D01*
X13856Y1009D01*
X13239Y1096D01*
X12626Y1209D01*
X12019Y1347D01*
X11417Y1512D01*
X10824Y1701D01*
X10239Y1916D01*
X9663Y2155D01*
X9098Y2419D01*
X8545Y2706D01*
X8005Y3016D01*
X7478Y3349D01*
X6966Y3704D01*
X6469Y4080D01*
X5989Y4477D01*
X5755Y4684D01*
X5753Y4684D01*
X5753Y4686D01*
X5714Y4717D01*
X5707Y4719D01*
X5701Y4725D01*
X5612Y4766D01*
X5603Y4766D01*
X5597Y4771D01*
X5580Y4774D01*
X5563Y4803D01*
X5559Y4862D01*
X5533Y4915D01*
X5488Y4955D01*
X5432Y4974D01*
X5411Y4993D01*
X5410Y5010D01*
X5385Y5063D01*
X5341Y5103D01*
X5285Y5123D01*
X5261Y5145D01*
X5261Y5157D01*
X5236Y5211D01*
X5193Y5252D01*
X5138Y5273D01*
X5137Y5273D01*
X5101Y5307D01*
X5101Y5315D01*
X5078Y5369D01*
X5035Y5410D01*
X4980Y5432D01*
X4961Y5451D01*
X4961Y5453D01*
X4938Y5508D01*
X4896Y5550D01*
X4841Y5572D01*
X4782Y5572D01*
X4765Y5580D01*
X4748Y5645D01*
X4742Y5652D01*
X4741Y5660D01*
X4690Y5749D01*
X4683Y5755D01*
X4679Y5762D01*
X4644Y5797D01*
X4440Y6030D01*
X4044Y6512D01*
X3669Y7010D01*
X3315Y7523D01*
X2984Y8051D01*
X2675Y8592D01*
X2389Y9146D01*
X2127Y9711D01*
X1890Y10287D01*
X1677Y10873D01*
X1489Y11467D01*
X1326Y12069D01*
X1189Y12677D01*
X1078Y13290D01*
X992Y13907D01*
X934Y14528D01*
X914Y14832D01*
X916Y14835D01*
X914Y14839D01*
X915Y14842D01*
X910Y14892D01*
X906Y14899D01*
X906Y14907D01*
X871Y15001D01*
X866Y15007D01*
X864Y15016D01*
X856Y15027D01*
X864Y15059D01*
X903Y15104D01*
X922Y15160D01*
X919Y15219D01*
X892Y15273D01*
X891Y15301D01*
X902Y15314D01*
X922Y15370D01*
X919Y15429D01*
X894Y15483D01*
X893Y15515D01*
X901Y15524D01*
X922Y15579D01*
X920Y15638D01*
X895Y15692D01*
X895Y15693D01*
X894Y15743D01*
X899Y15748D01*
X921Y15803D01*
X920Y15862D01*
X897Y15917D01*
X897Y15943D01*
X898Y15945D01*
X921Y16000D01*
X921Y16059D01*
X898Y16114D01*
X856Y16155D01*
X849Y16173D01*
X883Y16231D01*
X884Y16240D01*
X889Y16247D01*
X916Y16346D01*
X914Y16355D01*
X918Y16363D01*
Y16412D01*
X938Y16721D01*
X998Y17342D01*
X1085Y17959D01*
X1198Y18572D01*
X1337Y19180D01*
X1501Y19781D01*
X1691Y20374D01*
X1905Y20959D01*
X2145Y21535D01*
X2408Y22100D01*
X2695Y22653D01*
X3005Y23193D01*
X3338Y23720D01*
X3693Y24232D01*
X4070Y24729D01*
X4467Y25209D01*
X4673Y25443D01*
X4674Y25444D01*
X4675Y25445D01*
X4675Y25445D01*
X4675Y25445D01*
X4706Y25484D01*
X4708Y25492D01*
X4714Y25497D01*
X4756Y25586D01*
X4756Y25595D01*
X4760Y25601D01*
X4763Y25618D01*
X4793Y25635D01*
X4852Y25639D01*
X4905Y25665D01*
X4944Y25710D01*
X4963Y25766D01*
X4982Y25787D01*
X4999Y25788D01*
X5053Y25813D01*
X5093Y25857D01*
X5113Y25913D01*
X5135Y25937D01*
X5147Y25937D01*
X5201Y25962D01*
X5241Y26005D01*
X5262Y26060D01*
X5262Y26061D01*
X5297Y26097D01*
X5304Y26097D01*
X5359Y26120D01*
X5400Y26163D01*
X5422Y26218D01*
X5440Y26237D01*
X5443Y26237D01*
X5497Y26260D01*
X5539Y26302D01*
X5562Y26357D01*
X5561Y26416D01*
X5570Y26433D01*
X5634Y26450D01*
X5641Y26456D01*
X5650Y26457D01*
X5739Y26509D01*
X5744Y26515D01*
X5752Y26519D01*
X5788Y26555D01*
X5788Y26555D01*
X5789Y26556D01*
X5791Y26558D01*
X5792Y26558D01*
X5792Y26558D01*
X6019Y26758D01*
X6500Y27154D01*
X6998Y27529D01*
X7511Y27883D01*
X8039Y28214D01*
X8580Y28523D01*
X9134Y28809D01*
X9700Y29071D01*
X10276Y29308D01*
X10861Y29521D01*
X11455Y29709D01*
X12057Y29872D01*
X12665Y30009D01*
X13278Y30120D01*
X13896Y30206D01*
X14516Y30264D01*
X14826Y30284D01*
X14830Y30283D01*
X14830Y30283D01*
X14830Y30283D01*
X14879Y30288D01*
X14886Y30292D01*
X14895Y30291D01*
X14987Y30325D01*
X14993Y30331D01*
X15001Y30332D01*
X15016Y30342D01*
X15049Y30334D01*
X15094Y30295D01*
X15150Y30276D01*
X15209Y30280D01*
X15262Y30306D01*
X15291Y30307D01*
X15303Y30296D01*
X15359Y30276D01*
X15418Y30279D01*
X15472Y30304D01*
X15505Y30305D01*
X15513Y30297D01*
X15569Y30276D01*
X15628Y30278D01*
X15682Y30303D01*
X15682Y30303D01*
X15732Y30304D01*
X15737Y30299D01*
X15792Y30277D01*
X15852Y30278D01*
X15906Y30301D01*
X15932Y30301D01*
X15934Y30300D01*
X15989Y30277D01*
X16048Y30277D01*
X16103Y30300D01*
X16145Y30342D01*
X16163Y30349D01*
X16220Y30316D01*
D02*
G37*
G36*
X92836Y24413D02*
X90553D01*
Y25080D01*
X90356D01*
Y24413D01*
X89962D01*
Y25200D01*
X90947D01*
Y24531D01*
X91143D01*
Y25200D01*
X92836D01*
Y24413D01*
D02*
G37*
G36*
X59372D02*
X57088D01*
Y25080D01*
X56891D01*
Y24413D01*
X56498D01*
Y25200D01*
X57482D01*
Y24531D01*
X57679D01*
Y25200D01*
X59372D01*
Y24413D01*
D02*
G37*
G36*
X25907D02*
X23624D01*
Y25080D01*
X23427D01*
Y24413D01*
X23033D01*
Y25200D01*
X24017D01*
Y24531D01*
X24214D01*
Y25200D01*
X25907D01*
Y24413D01*
D02*
G37*
G36*
X89765D02*
X89372D01*
Y25200D01*
X89765D01*
Y24413D01*
D02*
G37*
G36*
X56301D02*
X55907D01*
Y25200D01*
X56301D01*
Y24413D01*
D02*
G37*
G36*
X22836D02*
X22443D01*
Y25200D01*
X22836D01*
Y24413D01*
D02*
G37*
G36*
X90947Y23822D02*
X89962D01*
Y24216D01*
X90947D01*
Y23822D01*
D02*
G37*
G36*
X57482D02*
X56498D01*
Y24216D01*
X57482D01*
Y23822D01*
D02*
G37*
G36*
X24017D02*
X23033D01*
Y24216D01*
X24017D01*
Y23822D01*
D02*
G37*
G36*
X89884Y13704D02*
X89076D01*
Y14098D01*
X89884D01*
Y13704D01*
D02*
G37*
G36*
X56419D02*
X55612D01*
Y14098D01*
X56419D01*
Y13704D01*
D02*
G37*
G36*
X22954D02*
X22147D01*
Y14098D01*
X22954D01*
Y13704D01*
D02*
G37*
G36*
X89884Y13113D02*
X89076D01*
Y13507D01*
X89884D01*
Y13113D01*
D02*
G37*
G36*
X56419D02*
X55612D01*
Y13507D01*
X56419D01*
Y13113D01*
D02*
G37*
G36*
X22954D02*
X22147D01*
Y13507D01*
X22954D01*
Y13113D01*
D02*
G37*
G36*
X89884Y12523D02*
X89549D01*
Y12326D01*
X89884D01*
Y11932D01*
X89549D01*
Y11735D01*
X89884D01*
Y11342D01*
X89549D01*
Y11145D01*
X89884D01*
Y10357D01*
X89076D01*
Y11145D01*
X89431D01*
Y11342D01*
X89076D01*
Y11735D01*
X89431D01*
Y11932D01*
X89076D01*
Y12326D01*
X89431D01*
Y12523D01*
X89076D01*
Y12916D01*
X89884D01*
Y12523D01*
D02*
G37*
G36*
X56419D02*
X56084D01*
Y12326D01*
X56419D01*
Y11932D01*
X56084D01*
Y11735D01*
X56419D01*
Y11342D01*
X56084D01*
Y11145D01*
X56419D01*
Y10357D01*
X55612D01*
Y11145D01*
X55966D01*
Y11342D01*
X55612D01*
Y11735D01*
X55966D01*
Y11932D01*
X55612D01*
Y12326D01*
X55966D01*
Y12523D01*
X55612D01*
Y12916D01*
X56419D01*
Y12523D01*
D02*
G37*
G36*
X22954D02*
X22620D01*
Y12326D01*
X22954D01*
Y11932D01*
X22620D01*
Y11735D01*
X22954D01*
Y11342D01*
X22620D01*
Y11145D01*
X22954D01*
Y10357D01*
X22147D01*
Y11145D01*
X22502D01*
Y11342D01*
X22147D01*
Y11735D01*
X22502D01*
Y11932D01*
X22147D01*
Y12326D01*
X22502D01*
Y12523D01*
X22147D01*
Y12916D01*
X22954D01*
Y12523D01*
D02*
G37*
G36*
X93275Y25636D02*
X93335Y25637D01*
X93352Y25628D01*
X93369Y25565D01*
X93374Y25558D01*
X93375Y25549D01*
X93427Y25459D01*
X93434Y25454D01*
X93437Y25446D01*
X93472Y25411D01*
X93677Y25178D01*
X94073Y24696D01*
X94448Y24199D01*
X94801Y23686D01*
X95133Y23158D01*
X95442Y22617D01*
X95727Y22063D01*
X95989Y21497D01*
X96227Y20921D01*
X96440Y20336D01*
X96628Y19741D01*
X96791Y19140D01*
X96928Y18532D01*
X97039Y17919D01*
X97124Y17301D01*
X97183Y16681D01*
X97203Y16371D01*
X97201Y16367D01*
X97201Y16367D01*
X97201Y16367D01*
X97207Y16318D01*
X97211Y16310D01*
X97210Y16302D01*
X97244Y16210D01*
X97250Y16204D01*
X97251Y16196D01*
X97261Y16182D01*
X97252Y16149D01*
X97213Y16105D01*
X97194Y16048D01*
X97198Y15989D01*
X97224Y15936D01*
X97226Y15907D01*
X97215Y15895D01*
X97195Y15839D01*
X97198Y15780D01*
X97223Y15726D01*
X97224Y15693D01*
X97216Y15685D01*
X97195Y15629D01*
X97197Y15570D01*
X97221Y15516D01*
X97221Y15516D01*
X97223Y15466D01*
X97218Y15461D01*
X97196Y15406D01*
X97196Y15346D01*
X97220Y15292D01*
X97220Y15266D01*
X97218Y15264D01*
X97196Y15209D01*
X97196Y15150D01*
X97219Y15095D01*
X97261Y15053D01*
X97267Y15035D01*
X97234Y14978D01*
X97233Y14970D01*
X97228Y14963D01*
X97201Y14863D01*
X97202Y14854D01*
X97199Y14846D01*
Y14796D01*
X97179Y14487D01*
X97118Y13867D01*
X97031Y13249D01*
X96919Y12637D01*
X96780Y12029D01*
X96616Y11428D01*
X96426Y10834D01*
X96211Y10249D01*
X95972Y9674D01*
X95709Y9109D01*
X95422Y8556D01*
X95111Y8015D01*
X94778Y7489D01*
X94423Y6976D01*
X94047Y6480D01*
X93650Y5999D01*
X93443Y5765D01*
X93443Y5764D01*
X93442Y5763D01*
X93411Y5725D01*
X93408Y5717D01*
X93402Y5711D01*
X93362Y5625D01*
X93348Y5621D01*
X93316Y5617D01*
X93309Y5619D01*
X93295Y5640D01*
X93259Y5664D01*
X93217Y5673D01*
Y25606D01*
X93267Y25640D01*
X93275Y25636D01*
D02*
G37*
G36*
X59811D02*
X59870Y25637D01*
X59887Y25628D01*
X59904Y25565D01*
X59909Y25558D01*
X59911Y25549D01*
X59962Y25459D01*
X59969Y25454D01*
X59973Y25446D01*
X60008Y25411D01*
X60212Y25178D01*
X60608Y24696D01*
X60983Y24199D01*
X61337Y23686D01*
X61668Y23158D01*
X61977Y22617D01*
X62263Y22063D01*
X62525Y21497D01*
X62762Y20921D01*
X62976Y20336D01*
X63164Y19741D01*
X63326Y19140D01*
X63463Y18532D01*
X63575Y17919D01*
X63660Y17301D01*
X63719Y16681D01*
X63738Y16371D01*
X63737Y16367D01*
X63737Y16367D01*
X63737Y16367D01*
X63742Y16318D01*
X63746Y16310D01*
X63746Y16302D01*
X63780Y16210D01*
X63785Y16204D01*
X63787Y16196D01*
X63796Y16182D01*
X63788Y16149D01*
X63749Y16105D01*
X63730Y16048D01*
X63734Y15989D01*
X63760Y15936D01*
X63761Y15907D01*
X63750Y15895D01*
X63730Y15839D01*
X63733Y15780D01*
X63758Y15726D01*
X63760Y15693D01*
X63752Y15685D01*
X63731Y15629D01*
X63732Y15570D01*
X63757Y15516D01*
X63757Y15516D01*
X63758Y15466D01*
X63753Y15461D01*
X63731Y15406D01*
X63732Y15346D01*
X63755Y15292D01*
X63755Y15266D01*
X63754Y15264D01*
X63731Y15209D01*
X63731Y15150D01*
X63754Y15095D01*
X63797Y15053D01*
X63803Y15035D01*
X63770Y14978D01*
X63769Y14970D01*
X63763Y14963D01*
X63737Y14863D01*
X63738Y14854D01*
X63734Y14846D01*
Y14796D01*
X63714Y14487D01*
X63654Y13867D01*
X63567Y13249D01*
X63454Y12637D01*
X63315Y12029D01*
X63151Y11428D01*
X62961Y10834D01*
X62747Y10249D01*
X62508Y9674D01*
X62244Y9109D01*
X61957Y8556D01*
X61647Y8015D01*
X61314Y7489D01*
X60959Y6976D01*
X60582Y6480D01*
X60185Y5999D01*
X59979Y5765D01*
X59978Y5764D01*
X59977Y5763D01*
X59946Y5725D01*
X59944Y5717D01*
X59938Y5711D01*
X59898Y5625D01*
X59884Y5621D01*
X59852Y5617D01*
X59845Y5619D01*
X59831Y5640D01*
X59795Y5664D01*
X59752Y5673D01*
Y25606D01*
X59802Y25640D01*
X59811Y25636D01*
D02*
G37*
G36*
X26346D02*
X26405Y25637D01*
X26423Y25628D01*
X26440Y25565D01*
X26445Y25558D01*
X26446Y25549D01*
X26498Y25459D01*
X26505Y25454D01*
X26508Y25446D01*
X26543Y25411D01*
X26747Y25178D01*
X27143Y24696D01*
X27519Y24199D01*
X27872Y23686D01*
X28204Y23158D01*
X28513Y22617D01*
X28798Y22063D01*
X29060Y21497D01*
X29298Y20921D01*
X29511Y20336D01*
X29699Y19741D01*
X29862Y19140D01*
X29999Y18532D01*
X30110Y17919D01*
X30195Y17301D01*
X30254Y16681D01*
X30274Y16371D01*
X30272Y16367D01*
X30272Y16367D01*
X30272Y16367D01*
X30277Y16318D01*
X30281Y16310D01*
X30281Y16302D01*
X30315Y16210D01*
X30321Y16204D01*
X30322Y16196D01*
X30332Y16182D01*
X30323Y16149D01*
X30284Y16105D01*
X30265Y16048D01*
X30269Y15989D01*
X30295Y15936D01*
X30297Y15907D01*
X30286Y15895D01*
X30266Y15839D01*
X30268Y15780D01*
X30294Y15726D01*
X30295Y15693D01*
X30287Y15685D01*
X30266Y15629D01*
X30268Y15570D01*
X30292Y15516D01*
X30292Y15516D01*
X30293Y15466D01*
X30288Y15461D01*
X30266Y15406D01*
X30267Y15346D01*
X30291Y15292D01*
X30291Y15266D01*
X30289Y15264D01*
X30267Y15209D01*
X30267Y15150D01*
X30290Y15095D01*
X30332Y15053D01*
X30338Y15035D01*
X30305Y14978D01*
X30304Y14970D01*
X30299Y14963D01*
X30272Y14863D01*
X30273Y14854D01*
X30270Y14846D01*
Y14796D01*
X30250Y14487D01*
X30189Y13867D01*
X30102Y13249D01*
X29990Y12637D01*
X29851Y12029D01*
X29687Y11428D01*
X29497Y10834D01*
X29282Y10249D01*
X29043Y9674D01*
X28780Y9109D01*
X28492Y8556D01*
X28182Y8015D01*
X27849Y7489D01*
X27494Y6976D01*
X27118Y6480D01*
X26721Y5999D01*
X26514Y5765D01*
X26514Y5764D01*
X26512Y5763D01*
X26481Y5725D01*
X26479Y5717D01*
X26473Y5711D01*
X26433Y5625D01*
X26419Y5621D01*
X26387Y5617D01*
X26380Y5619D01*
X26366Y5640D01*
X26330Y5664D01*
X26287Y5673D01*
Y25606D01*
X26337Y25640D01*
X26346Y25636D01*
D02*
G37*
G36*
X94680Y-1920D02*
X94746Y-2019D01*
X94791Y-2128D01*
X94814Y-2244D01*
Y-2362D01*
X94791Y-2478D01*
X94746Y-2587D01*
X94680Y-2685D01*
X94638Y-2727D01*
X94214Y-2303D01*
X94638Y-1878D01*
X94680Y-1920D01*
D02*
G37*
G36*
X94214Y-2303D02*
X93790Y-2727D01*
X93748Y-2685D01*
X93682Y-2587D01*
X93637Y-2478D01*
X93614Y-2362D01*
Y-2244D01*
X93637Y-2128D01*
X93682Y-2019D01*
X93748Y-1920D01*
X93790Y-1878D01*
X93790D01*
X94214Y-2303D01*
D02*
G37*
G36*
X4227Y-1920D02*
X4293Y-2019D01*
X4338Y-2128D01*
X4361Y-2244D01*
Y-2362D01*
X4338Y-2478D01*
X4293Y-2587D01*
X4227Y-2685D01*
X4185Y-2727D01*
X3761Y-2303D01*
X4185Y-1878D01*
X4227Y-1920D01*
D02*
G37*
G36*
X3761Y-2303D02*
X3337Y-2727D01*
X3295Y-2685D01*
X3229Y-2587D01*
X3184Y-2478D01*
X3161Y-2362D01*
Y-2244D01*
X3184Y-2128D01*
X3229Y-2019D01*
X3295Y-1920D01*
X3337Y-1878D01*
X3337D01*
X3761Y-2303D01*
D02*
G37*
%LPC*%
G36*
X84913Y25045D02*
X84863Y25035D01*
X84821Y25006D01*
X84792Y24964D01*
X84782Y24914D01*
X84792Y24864D01*
X84821Y24822D01*
X84863Y24794D01*
X84913Y24784D01*
X84963Y24794D01*
X85005Y24822D01*
X85033Y24864D01*
X85043Y24914D01*
X85033Y24964D01*
X85005Y25006D01*
X84963Y25035D01*
X84913Y25045D01*
D02*
G37*
G36*
X83986Y24474D02*
X83924Y24462D01*
X83872Y24427D01*
X83838Y24375D01*
X83825Y24314D01*
X83838Y24252D01*
X83872Y24200D01*
X83924Y24165D01*
X83986Y24153D01*
X84047Y24165D01*
X84099Y24200D01*
X84134Y24252D01*
X84146Y24314D01*
X84134Y24375D01*
X84099Y24427D01*
X84047Y24462D01*
X83986Y24474D01*
D02*
G37*
G36*
X84913Y24465D02*
X84851Y24453D01*
X84799Y24418D01*
X84765Y24366D01*
X84752Y24304D01*
X84765Y24243D01*
X84799Y24191D01*
X84851Y24156D01*
X84913Y24144D01*
X84974Y24156D01*
X85026Y24191D01*
X85061Y24243D01*
X85073Y24304D01*
X85061Y24366D01*
X85026Y24418D01*
X84974Y24453D01*
X84913Y24465D01*
D02*
G37*
G36*
X84734Y23720D02*
X84672Y23707D01*
X84620Y23673D01*
X84585Y23620D01*
X84573Y23559D01*
X84585Y23498D01*
X84620Y23445D01*
X84672Y23411D01*
X84734Y23398D01*
X84795Y23411D01*
X84847Y23445D01*
X84882Y23498D01*
X84894Y23559D01*
X84882Y23620D01*
X84847Y23673D01*
X84795Y23707D01*
X84734Y23720D01*
D02*
G37*
G36*
X83763Y23615D02*
X83701Y23603D01*
X83649Y23568D01*
X83615Y23516D01*
X83602Y23454D01*
X83615Y23393D01*
X83649Y23341D01*
X83701Y23306D01*
X83763Y23294D01*
X83824Y23306D01*
X83876Y23341D01*
X83911Y23393D01*
X83923Y23454D01*
X83911Y23516D01*
X83876Y23568D01*
X83824Y23603D01*
X83763Y23615D01*
D02*
G37*
G36*
X85641Y24230D02*
X85589Y24220D01*
X85545Y24190D01*
X85542Y24186D01*
X85529Y24178D01*
X85495Y24126D01*
X85482Y24064D01*
X85495Y24003D01*
X85505Y23988D01*
Y22978D01*
X85493Y22960D01*
X85481Y22899D01*
X85493Y22837D01*
X85528Y22785D01*
X85580Y22751D01*
X85641Y22738D01*
X85703Y22751D01*
X85755Y22785D01*
X85790Y22837D01*
X85802Y22899D01*
X85790Y22960D01*
X85778Y22978D01*
Y23983D01*
X85791Y24003D01*
X85803Y24064D01*
X85791Y24126D01*
X85756Y24178D01*
X85738Y24190D01*
X85738Y24190D01*
X85694Y24220D01*
X85641Y24230D01*
D02*
G37*
G36*
X79213Y22935D02*
X79151Y22923D01*
X79134Y22911D01*
X77103D01*
X77051Y22901D01*
X77006Y22871D01*
X75939Y21803D01*
X75909Y21759D01*
X75899Y21707D01*
Y20873D01*
X75887Y20856D01*
X75875Y20794D01*
X75887Y20733D01*
X75922Y20681D01*
X75974Y20646D01*
X76035Y20634D01*
X76097Y20646D01*
X76149Y20681D01*
X76184Y20733D01*
X76196Y20794D01*
X76184Y20856D01*
X76172Y20873D01*
Y21650D01*
X77160Y22638D01*
X79134D01*
X79151Y22626D01*
X79213Y22614D01*
X79274Y22626D01*
X79292Y22638D01*
X81326D01*
X81806Y22158D01*
X81851Y22128D01*
X81903Y22118D01*
X85324D01*
X85341Y22106D01*
X85403Y22094D01*
X85464Y22106D01*
X85516Y22141D01*
X85551Y22193D01*
X85563Y22254D01*
X85551Y22316D01*
X85516Y22368D01*
X85464Y22403D01*
X85403Y22415D01*
X85341Y22403D01*
X85324Y22391D01*
X81960D01*
X81480Y22871D01*
X81435Y22901D01*
X81383Y22911D01*
X79292D01*
X79274Y22923D01*
X79213Y22935D01*
D02*
G37*
G36*
X80193Y21915D02*
X80131Y21903D01*
X80079Y21868D01*
X80045Y21816D01*
X80032Y21754D01*
X80035Y21742D01*
X80025Y21729D01*
X79991Y21705D01*
X79943Y21715D01*
X79881Y21703D01*
X79829Y21668D01*
X79795Y21616D01*
X79782Y21554D01*
X79795Y21493D01*
X79829Y21441D01*
X79880Y21407D01*
X79857Y21364D01*
X79796Y21377D01*
X79776Y21373D01*
X79729Y21387D01*
X79723Y21409D01*
X79716Y21448D01*
X79681Y21501D01*
X79629Y21535D01*
X79567Y21548D01*
X79506Y21535D01*
X79454Y21501D01*
X79419Y21448D01*
X79407Y21387D01*
X79419Y21326D01*
X79425Y21316D01*
X79389Y21285D01*
X79337Y21320D01*
X79276Y21332D01*
X79214Y21320D01*
X79162Y21285D01*
X79127Y21233D01*
X79115Y21171D01*
X79127Y21110D01*
X79162Y21058D01*
X79214Y21023D01*
X79276Y21011D01*
X79337Y21023D01*
X79389Y21058D01*
X79424Y21110D01*
X79436Y21171D01*
X79424Y21233D01*
X79418Y21242D01*
X79454Y21273D01*
X79506Y21239D01*
X79567Y21226D01*
X79587Y21230D01*
X79634Y21216D01*
X79640Y21194D01*
X79648Y21155D01*
X79682Y21103D01*
X79734Y21068D01*
X79796Y21056D01*
X79857Y21068D01*
X79909Y21103D01*
X79944Y21155D01*
X79956Y21216D01*
X79944Y21278D01*
X79909Y21330D01*
X79859Y21363D01*
X79881Y21406D01*
X79943Y21394D01*
X80004Y21406D01*
X80056Y21441D01*
X80091Y21493D01*
X80103Y21554D01*
X80101Y21566D01*
X80111Y21579D01*
X80145Y21603D01*
X80193Y21594D01*
X80254Y21606D01*
X80306Y21641D01*
X80341Y21693D01*
X80353Y21754D01*
X80341Y21816D01*
X80306Y21868D01*
X80254Y21903D01*
X80193Y21915D01*
D02*
G37*
G36*
X83986Y21886D02*
X83924Y21874D01*
X83872Y21839D01*
X83838Y21787D01*
X83825Y21726D01*
X83838Y21664D01*
X83872Y21612D01*
X83924Y21577D01*
X83986Y21565D01*
X84047Y21577D01*
X84099Y21612D01*
X84134Y21664D01*
X84146Y21726D01*
X84134Y21787D01*
X84099Y21839D01*
X84047Y21874D01*
X83986Y21886D01*
D02*
G37*
G36*
X73349Y21725D02*
X73287Y21713D01*
X73235Y21678D01*
X73201Y21626D01*
X73188Y21564D01*
X73201Y21503D01*
X73235Y21451D01*
X73287Y21416D01*
X73349Y21404D01*
X73410Y21416D01*
X73462Y21451D01*
X73497Y21503D01*
X73509Y21564D01*
X73497Y21626D01*
X73462Y21678D01*
X73410Y21713D01*
X73349Y21725D01*
D02*
G37*
G36*
X74173Y21753D02*
X74091Y21736D01*
X74022Y21690D01*
X73976Y21621D01*
X73960Y21539D01*
Y21328D01*
X73976Y21246D01*
X74022Y21177D01*
X74091Y21131D01*
X74173Y21115D01*
X74254Y21131D01*
X74324Y21177D01*
X74370Y21246D01*
X74386Y21328D01*
Y21539D01*
X74370Y21621D01*
X74324Y21690D01*
X74254Y21736D01*
X74173Y21753D01*
D02*
G37*
G36*
X77086Y21632D02*
X76940Y21613D01*
X76804Y21556D01*
X76687Y21467D01*
X76598Y21350D01*
X76542Y21214D01*
X76522Y21068D01*
Y17581D01*
X76217Y17581D01*
X76213Y17585D01*
X76201Y17646D01*
X76166Y17698D01*
X76114Y17733D01*
X76053Y17745D01*
X75991Y17733D01*
X75939Y17698D01*
X75905Y17646D01*
X75892Y17585D01*
X75889Y17581D01*
X75595Y17581D01*
X75595Y17581D01*
Y17581D01*
X75558Y17609D01*
X74954Y18212D01*
Y18582D01*
X74957Y18588D01*
X74957Y18607D01*
X74958Y18612D01*
X74959Y18617D01*
X74960Y18620D01*
X74960Y18622D01*
X74960Y18623D01*
X74961Y18624D01*
X74962Y18625D01*
X74962Y18626D01*
X74962Y18628D01*
X74962Y18629D01*
X74963Y18630D01*
X74991Y18673D01*
X75003Y18734D01*
X74991Y18796D01*
X74956Y18848D01*
X74904Y18883D01*
X74843Y18895D01*
X74781Y18883D01*
X74729Y18848D01*
X74695Y18796D01*
X74682Y18734D01*
X74695Y18673D01*
X74723Y18630D01*
X74724Y18629D01*
X74724Y18628D01*
X74724Y18626D01*
X74724Y18625D01*
X74724Y18624D01*
X74725Y18623D01*
X74726Y18622D01*
X74726Y18620D01*
X74727Y18617D01*
X74728Y18613D01*
X74729Y18598D01*
X74729Y18589D01*
X74732Y18583D01*
Y18166D01*
X74732Y18166D01*
X74740Y18124D01*
X74764Y18087D01*
X75812Y17040D01*
Y16790D01*
X75652Y16631D01*
X75646Y16628D01*
X75639Y16621D01*
X75621Y16604D01*
X75613Y16598D01*
X75611Y16596D01*
X75610Y16596D01*
X75609Y16595D01*
X75609Y16595D01*
X75608Y16595D01*
X75607Y16593D01*
X75607Y16593D01*
X75605Y16593D01*
X75553Y16558D01*
X75518Y16506D01*
X75506Y16444D01*
X75518Y16383D01*
X75553Y16331D01*
X75605Y16296D01*
X75667Y16284D01*
X75728Y16296D01*
X75780Y16331D01*
X75815Y16383D01*
X75827Y16444D01*
X75821Y16477D01*
X75821Y16478D01*
X75822Y16479D01*
X75823Y16481D01*
X75831Y16491D01*
X75836Y16497D01*
X75839Y16503D01*
X76002Y16666D01*
X76002Y16666D01*
X76026Y16702D01*
X76034Y16744D01*
X76034Y16744D01*
Y17086D01*
X76034Y17086D01*
X76026Y17129D01*
X76002Y17165D01*
X76002Y17165D01*
X75829Y17338D01*
X75848Y17384D01*
X76113D01*
X76125Y17328D01*
X76159Y17276D01*
X76211Y17241D01*
X76273Y17229D01*
X76334Y17241D01*
X76386Y17276D01*
X76421Y17328D01*
X76432Y17384D01*
X76522D01*
Y15678D01*
X76542Y15532D01*
X76598Y15396D01*
X76687Y15279D01*
X76804Y15190D01*
X76940Y15133D01*
X77086Y15114D01*
X77232Y15133D01*
X77368Y15190D01*
X77485Y15279D01*
X77575Y15396D01*
X77631Y15532D01*
X77650Y15678D01*
Y16763D01*
X77952D01*
X77979Y16713D01*
X77974Y16705D01*
X77964Y16655D01*
X77974Y16606D01*
X78002Y16563D01*
X78045Y16535D01*
X78095Y16525D01*
X78145Y16535D01*
X78187Y16563D01*
X78199D01*
X78242Y16535D01*
X78291Y16525D01*
X78341Y16535D01*
X78384Y16563D01*
X78396D01*
X78438Y16535D01*
X78488Y16525D01*
X78503Y16528D01*
X78553Y16489D01*
Y12226D01*
X78189Y11862D01*
X73191D01*
X72506Y12547D01*
X72445Y12588D01*
X72373Y12602D01*
X72301Y12588D01*
X72240Y12547D01*
X72200Y12486D01*
X72185Y12414D01*
X72200Y12342D01*
X72240Y12282D01*
X72980Y11542D01*
X73041Y11501D01*
X73113Y11487D01*
X78207D01*
X78221Y11477D01*
X78303Y11461D01*
X78384Y11477D01*
X78454Y11524D01*
X78917Y11987D01*
X78917Y11987D01*
X78963Y12056D01*
X78979Y12138D01*
Y18588D01*
X78979Y18588D01*
X78963Y18670D01*
X78917Y18739D01*
X78917Y18739D01*
X78599Y19057D01*
X78530Y19103D01*
X78448Y19119D01*
X78367Y19103D01*
X78298Y19057D01*
X78251Y18988D01*
X78235Y18906D01*
X78251Y18825D01*
X78298Y18756D01*
X78553Y18500D01*
Y16946D01*
X77650D01*
Y20965D01*
X77689Y20986D01*
X77700Y20986D01*
X77758Y20974D01*
X77820Y20987D01*
X77872Y21021D01*
X77907Y21074D01*
X77919Y21135D01*
X77907Y21196D01*
X77872Y21249D01*
X77820Y21283D01*
X77758Y21296D01*
X77697Y21283D01*
X77665Y21262D01*
X77606Y21274D01*
X77575Y21350D01*
X77485Y21467D01*
X77368Y21556D01*
X77232Y21613D01*
X77086Y21632D01*
D02*
G37*
G36*
X78943Y21115D02*
X78881Y21103D01*
X78829Y21068D01*
X78795Y21016D01*
X78782Y20954D01*
X78795Y20893D01*
X78829Y20841D01*
X78881Y20806D01*
X78892Y20781D01*
X78875Y20756D01*
X78862Y20694D01*
X78875Y20633D01*
X78909Y20581D01*
X78961Y20546D01*
X79023Y20534D01*
X79084Y20546D01*
X79136Y20581D01*
X79171Y20633D01*
X79183Y20694D01*
X79171Y20756D01*
X79136Y20808D01*
X79084Y20843D01*
X79074Y20867D01*
X79091Y20893D01*
X79103Y20954D01*
X79091Y21016D01*
X79056Y21068D01*
X79004Y21103D01*
X78943Y21115D01*
D02*
G37*
G36*
X73393Y20275D02*
X73331Y20263D01*
X73279Y20228D01*
X73245Y20176D01*
X73232Y20114D01*
X73245Y20053D01*
X73274Y20008D01*
X73277Y20000D01*
X73281Y19997D01*
X73282Y19995D01*
X73283Y19993D01*
X73285Y19991D01*
X73286Y19988D01*
X73287Y19985D01*
X73288Y19981D01*
X73288Y19977D01*
X73289Y19971D01*
X73289Y19963D01*
X73292Y19957D01*
Y19627D01*
X73300Y19588D01*
X73321Y19555D01*
X73354Y19533D01*
X73393Y19526D01*
X73432Y19533D01*
X73464Y19555D01*
X73486Y19588D01*
X73494Y19627D01*
Y19957D01*
X73497Y19963D01*
X73497Y19971D01*
X73498Y19977D01*
X73498Y19981D01*
X73499Y19985D01*
X73500Y19988D01*
X73501Y19991D01*
X73502Y19993D01*
X73504Y19995D01*
X73505Y19997D01*
X73509Y20000D01*
X73512Y20008D01*
X73541Y20053D01*
X73553Y20114D01*
X73541Y20176D01*
X73506Y20228D01*
X73454Y20263D01*
X73393Y20275D01*
D02*
G37*
G36*
X74853Y19755D02*
X74791Y19743D01*
X74739Y19708D01*
X74705Y19656D01*
X74692Y19594D01*
X74705Y19533D01*
X74739Y19481D01*
X74791Y19446D01*
X74853Y19434D01*
X74914Y19446D01*
X74966Y19481D01*
X75001Y19533D01*
X75013Y19594D01*
X75001Y19656D01*
X74966Y19708D01*
X74914Y19743D01*
X74853Y19755D01*
D02*
G37*
G36*
X75943Y19067D02*
X75881Y19055D01*
X75829Y19020D01*
X75795Y18968D01*
X75782Y18906D01*
X75795Y18845D01*
X75829Y18793D01*
X75881Y18758D01*
X75943Y18746D01*
X76004Y18758D01*
X76056Y18793D01*
X76091Y18845D01*
X76103Y18906D01*
X76091Y18968D01*
X76056Y19020D01*
X76004Y19055D01*
X75943Y19067D01*
D02*
G37*
G36*
X72693Y19675D02*
X72631Y19663D01*
X72579Y19628D01*
X72545Y19576D01*
X72532Y19514D01*
X72535Y19499D01*
X72531Y19496D01*
X72510Y19463D01*
X72502Y19424D01*
Y18044D01*
X72510Y18006D01*
X72531Y17973D01*
X72550Y17954D01*
X72553Y17947D01*
X72558Y17942D01*
X72562Y17938D01*
X72564Y17934D01*
X72566Y17931D01*
X72568Y17928D01*
X72569Y17925D01*
X72570Y17923D01*
X72570Y17920D01*
X72570Y17918D01*
X72571Y17913D01*
X72574Y17905D01*
X72585Y17853D01*
X72619Y17801D01*
X72671Y17766D01*
X72733Y17754D01*
X72794Y17766D01*
X72846Y17801D01*
X72881Y17853D01*
X72893Y17914D01*
X72881Y17976D01*
X72846Y18028D01*
X72794Y18063D01*
X72742Y18073D01*
X72734Y18077D01*
X72729Y18077D01*
X72727Y18077D01*
X72725Y18077D01*
X72722Y18078D01*
X72720Y18079D01*
X72717Y18081D01*
X72713Y18083D01*
X72709Y18086D01*
X72705Y18089D01*
X72704Y18090D01*
Y19356D01*
X72754Y19366D01*
X72806Y19401D01*
X72831Y19437D01*
X73260D01*
X73260Y19514D01*
X72853D01*
X72841Y19576D01*
X72806Y19628D01*
X72754Y19663D01*
X72693Y19675D01*
D02*
G37*
G36*
X72243Y17735D02*
X72181Y17723D01*
X72129Y17688D01*
X72095Y17636D01*
X72082Y17574D01*
X72095Y17513D01*
X72129Y17461D01*
X72181Y17426D01*
X72210Y17420D01*
X72214Y17418D01*
X72217Y17416D01*
X72217Y17415D01*
X72217Y17415D01*
X72218Y17415D01*
X72220Y17414D01*
X72220Y17414D01*
X72220Y17414D01*
X72221Y17414D01*
X72222Y17413D01*
X72224Y17411D01*
X72227Y17410D01*
X72244Y17395D01*
X72250Y17389D01*
X72257Y17386D01*
X72322Y17321D01*
X72358Y17297D01*
X72401Y17288D01*
X72449D01*
X72460Y17273D01*
X72471Y17238D01*
X72443Y17196D01*
X72431Y17134D01*
X72443Y17073D01*
X72478Y17021D01*
X72530Y16986D01*
X72591Y16974D01*
X72653Y16986D01*
X72705Y17021D01*
X72740Y17073D01*
X72752Y17134D01*
X72740Y17196D01*
X72711Y17238D01*
X72723Y17273D01*
X72733Y17288D01*
X73541D01*
X73547Y17286D01*
X73565Y17285D01*
X73571Y17284D01*
X73575Y17284D01*
X73579Y17283D01*
X73581Y17282D01*
X73582Y17282D01*
X73583Y17281D01*
X73584Y17281D01*
X73585Y17280D01*
X73587Y17280D01*
X73588Y17280D01*
X73588Y17280D01*
X73631Y17251D01*
X73693Y17239D01*
X73754Y17251D01*
X73806Y17286D01*
X73841Y17338D01*
X73853Y17399D01*
X73841Y17461D01*
X73806Y17513D01*
X73754Y17548D01*
X73693Y17560D01*
X73631Y17548D01*
X73588Y17519D01*
X73588Y17519D01*
X73587Y17519D01*
X73585Y17518D01*
X73584Y17518D01*
X73583Y17518D01*
X73582Y17517D01*
X73581Y17517D01*
X73579Y17516D01*
X73575Y17515D01*
X73571Y17515D01*
X73557Y17513D01*
X73548Y17513D01*
X73542Y17511D01*
X72447D01*
X72428Y17530D01*
X72427Y17534D01*
X72423Y17536D01*
X72422Y17539D01*
X72416Y17546D01*
X72411Y17551D01*
X72408Y17555D01*
X72405Y17559D01*
X72404Y17561D01*
X72404Y17562D01*
X72404Y17562D01*
X72403Y17563D01*
X72403Y17564D01*
X72402Y17565D01*
X72402Y17566D01*
X72402Y17566D01*
X72403Y17574D01*
X72391Y17636D01*
X72356Y17688D01*
X72304Y17723D01*
X72243Y17735D01*
D02*
G37*
G36*
X83993Y17151D02*
X83931Y17138D01*
X83879Y17104D01*
X83845Y17052D01*
X83832Y16990D01*
X83845Y16929D01*
X83879Y16877D01*
X83931Y16842D01*
X83993Y16830D01*
X84054Y16842D01*
X84106Y16877D01*
X84141Y16929D01*
X84153Y16990D01*
X84141Y17052D01*
X84106Y17104D01*
X84054Y17138D01*
X83993Y17151D01*
D02*
G37*
G36*
X85958Y17140D02*
X85897Y17127D01*
X85845Y17093D01*
X85810Y17040D01*
X85804Y17009D01*
X85761Y16966D01*
X85700Y16954D01*
X85648Y16919D01*
X85613Y16867D01*
X85601Y16806D01*
X85611Y16756D01*
X85588Y16724D01*
X85574Y16713D01*
X85563Y16715D01*
X85501Y16703D01*
X85449Y16668D01*
X85415Y16616D01*
X85402Y16554D01*
X85415Y16493D01*
X85449Y16441D01*
X85501Y16406D01*
X85563Y16394D01*
X85624Y16406D01*
X85676Y16441D01*
X85711Y16493D01*
X85723Y16554D01*
X85714Y16604D01*
X85736Y16636D01*
X85750Y16647D01*
X85761Y16645D01*
X85823Y16657D01*
X85875Y16692D01*
X85910Y16744D01*
X85916Y16776D01*
X85958Y16818D01*
X86020Y16831D01*
X86072Y16865D01*
X86107Y16918D01*
X86119Y16979D01*
X86107Y17040D01*
X86072Y17093D01*
X86020Y17127D01*
X85958Y17140D01*
D02*
G37*
G36*
X73893Y17035D02*
X73831Y17023D01*
X73779Y16988D01*
X73745Y16936D01*
X73732Y16874D01*
X73745Y16813D01*
X73779Y16761D01*
X73831Y16726D01*
X73893Y16714D01*
X73954Y16726D01*
X73997Y16755D01*
X73998Y16755D01*
X73999Y16755D01*
X74001Y16755D01*
X74002Y16756D01*
X74003Y16756D01*
X74004Y16757D01*
X74005Y16757D01*
X74007Y16758D01*
X74010Y16758D01*
X74015Y16759D01*
X74029Y16760D01*
X74038Y16760D01*
X74044Y16763D01*
X75362D01*
X75366Y16761D01*
X75369Y16761D01*
X75371Y16760D01*
X75389Y16760D01*
X75394Y16759D01*
X75398Y16758D01*
X75401Y16758D01*
X75402Y16757D01*
X75402Y16757D01*
X75403Y16757D01*
X75405Y16756D01*
X75406Y16756D01*
X75406Y16756D01*
X75406Y16756D01*
X75406Y16756D01*
X75409Y16751D01*
X75461Y16716D01*
X75523Y16704D01*
X75584Y16716D01*
X75636Y16751D01*
X75671Y16803D01*
X75683Y16864D01*
X75671Y16926D01*
X75636Y16978D01*
X75584Y17013D01*
X75523Y17025D01*
X75461Y17013D01*
X75435Y16995D01*
X75430Y16994D01*
X75427Y16993D01*
X75426Y16993D01*
X75426Y16993D01*
X75425Y16993D01*
X75423Y16992D01*
X75423Y16992D01*
X75423Y16992D01*
X75423Y16992D01*
X75422Y16991D01*
X75419Y16991D01*
X75416Y16990D01*
X75393Y16988D01*
X75385Y16988D01*
X75379Y16985D01*
X74045D01*
X74039Y16988D01*
X74021Y16989D01*
X74015Y16989D01*
X74010Y16990D01*
X74007Y16991D01*
X74005Y16992D01*
X74004Y16992D01*
X74003Y16993D01*
X74002Y16993D01*
X74001Y16993D01*
X73999Y16993D01*
X73998Y16994D01*
X73997Y16994D01*
X73954Y17023D01*
X73893Y17035D01*
D02*
G37*
G36*
X73953Y16232D02*
X73891Y16219D01*
X73839Y16185D01*
X73805Y16132D01*
X73792Y16071D01*
X73805Y16010D01*
X73839Y15957D01*
X73891Y15923D01*
X73953Y15910D01*
X74014Y15923D01*
X74066Y15957D01*
X74101Y16010D01*
X74113Y16071D01*
X74101Y16132D01*
X74066Y16185D01*
X74014Y16219D01*
X73953Y16232D01*
D02*
G37*
G36*
X80457Y22402D02*
X80395Y22390D01*
X80343Y22355D01*
X80308Y22303D01*
X80296Y22242D01*
X80308Y22180D01*
X80343Y22128D01*
X80395Y22093D01*
X80457Y22081D01*
X80502Y22090D01*
X80512Y22085D01*
X80537Y22059D01*
X80542Y22051D01*
X80532Y22004D01*
X80545Y21943D01*
X80574Y21898D01*
X80577Y21890D01*
X80581Y21887D01*
X80582Y21885D01*
X80583Y21883D01*
X80585Y21881D01*
X80586Y21878D01*
X80587Y21875D01*
X80588Y21871D01*
X80588Y21867D01*
X80589Y21861D01*
X80589Y21853D01*
X80592Y21847D01*
Y16624D01*
X80203Y16235D01*
X80196Y16232D01*
X80191Y16227D01*
X80187Y16224D01*
X80183Y16221D01*
X80179Y16219D01*
X80176Y16217D01*
X80174Y16216D01*
X80171Y16216D01*
X80169Y16215D01*
X80167Y16215D01*
X80162Y16215D01*
X80154Y16211D01*
X80102Y16201D01*
X80050Y16166D01*
X80015Y16114D01*
X80003Y16052D01*
X80015Y15991D01*
X80050Y15939D01*
X80102Y15904D01*
X80163Y15892D01*
X80225Y15904D01*
X80277Y15939D01*
X80311Y15991D01*
X80322Y16043D01*
X80325Y16051D01*
X80326Y16056D01*
X80326Y16058D01*
X80326Y16061D01*
X80327Y16063D01*
X80328Y16066D01*
X80330Y16069D01*
X80332Y16072D01*
X80334Y16076D01*
X80338Y16080D01*
X80343Y16085D01*
X80346Y16092D01*
X80764Y16511D01*
X80786Y16543D01*
X80794Y16582D01*
Y21847D01*
X80797Y21853D01*
X80797Y21861D01*
X80798Y21867D01*
X80798Y21871D01*
X80799Y21875D01*
X80800Y21878D01*
X80801Y21881D01*
X80802Y21883D01*
X80804Y21885D01*
X80805Y21887D01*
X80809Y21890D01*
X80812Y21898D01*
X80841Y21943D01*
X80853Y22004D01*
X80841Y22066D01*
X80806Y22118D01*
X80754Y22153D01*
X80693Y22165D01*
X80647Y22156D01*
X80637Y22162D01*
X80612Y22187D01*
X80608Y22195D01*
X80617Y22242D01*
X80605Y22303D01*
X80570Y22355D01*
X80518Y22390D01*
X80457Y22402D01*
D02*
G37*
G36*
X82623Y16195D02*
X82561Y16183D01*
X82509Y16148D01*
X82475Y16096D01*
X82462Y16034D01*
X82475Y15973D01*
X82509Y15921D01*
X82561Y15886D01*
X82623Y15874D01*
X82684Y15886D01*
X82736Y15921D01*
X82771Y15973D01*
X82783Y16034D01*
X82771Y16096D01*
X82736Y16148D01*
X82684Y16183D01*
X82623Y16195D01*
D02*
G37*
G36*
X82233D02*
X82171Y16183D01*
X82119Y16148D01*
X82085Y16096D01*
X82072Y16034D01*
X82085Y15973D01*
X82119Y15921D01*
X82171Y15886D01*
X82233Y15874D01*
X82294Y15886D01*
X82346Y15921D01*
X82381Y15973D01*
X82393Y16034D01*
X82381Y16096D01*
X82346Y16148D01*
X82294Y16183D01*
X82233Y16195D01*
D02*
G37*
G36*
X81643Y16185D02*
X81581Y16173D01*
X81529Y16138D01*
X81495Y16086D01*
X81482Y16024D01*
X81495Y15963D01*
X81529Y15911D01*
X81581Y15876D01*
X81643Y15864D01*
X81704Y15876D01*
X81756Y15911D01*
X81791Y15963D01*
X81803Y16024D01*
X81791Y16086D01*
X81756Y16138D01*
X81704Y16173D01*
X81643Y16185D01*
D02*
G37*
G36*
X85363Y15942D02*
X85313Y15932D01*
X85271Y15904D01*
X85242Y15861D01*
X85232Y15811D01*
X85242Y15761D01*
X85271Y15719D01*
X85313Y15691D01*
X85363Y15681D01*
X85387Y15686D01*
X85442Y15661D01*
X85471Y15619D01*
X85513Y15591D01*
X85563Y15581D01*
X85613Y15591D01*
X85624Y15598D01*
X85663Y15616D01*
X85702Y15598D01*
X85713Y15591D01*
X85763Y15581D01*
X85813Y15591D01*
X85824Y15598D01*
X85863Y15616D01*
X85902Y15598D01*
X85913Y15591D01*
X85963Y15581D01*
X86013Y15591D01*
X86055Y15619D01*
X86083Y15661D01*
X86093Y15711D01*
X86083Y15761D01*
X86055Y15804D01*
X86013Y15832D01*
X85963Y15842D01*
X85913Y15832D01*
X85902Y15824D01*
X85863Y15807D01*
X85824Y15824D01*
X85813Y15832D01*
X85763Y15842D01*
X85713Y15832D01*
X85702Y15824D01*
X85663Y15807D01*
X85624Y15824D01*
X85613Y15832D01*
X85563Y15842D01*
X85539Y15837D01*
X85483Y15861D01*
X85455Y15904D01*
X85413Y15932D01*
X85363Y15942D01*
D02*
G37*
G36*
X70703Y16408D02*
X70588Y16393D01*
X70481Y16349D01*
X70389Y16278D01*
X70318Y16186D01*
X70274Y16079D01*
X70259Y15964D01*
X70274Y15849D01*
X70318Y15742D01*
X70389Y15650D01*
X70481Y15580D01*
X70588Y15535D01*
X70703Y15520D01*
X70818Y15535D01*
X70925Y15580D01*
X71017Y15650D01*
X71088Y15742D01*
X71132Y15849D01*
X71147Y15964D01*
X71132Y16079D01*
X71088Y16186D01*
X71017Y16278D01*
X70925Y16349D01*
X70818Y16393D01*
X70703Y16408D01*
D02*
G37*
G36*
X73493Y15795D02*
X73431Y15783D01*
X73379Y15748D01*
X73345Y15696D01*
X73332Y15634D01*
X73345Y15573D01*
X73379Y15521D01*
X73431Y15486D01*
X73493Y15474D01*
X73554Y15486D01*
X73606Y15521D01*
X73641Y15573D01*
X73653Y15634D01*
X73641Y15696D01*
X73606Y15748D01*
X73554Y15783D01*
X73493Y15795D01*
D02*
G37*
G36*
X80833Y15575D02*
X80783Y15565D01*
X80741Y15537D01*
X80712Y15494D01*
X80702Y15444D01*
X80712Y15394D01*
X80741Y15352D01*
X80783Y15324D01*
X80833Y15314D01*
X80883Y15324D01*
X80925Y15352D01*
X80953Y15394D01*
X80963Y15444D01*
X80953Y15494D01*
X80925Y15537D01*
X80883Y15565D01*
X80833Y15575D01*
D02*
G37*
G36*
X75748Y15570D02*
X75687Y15558D01*
X75635Y15523D01*
X75600Y15471D01*
X75588Y15410D01*
X75600Y15348D01*
X75635Y15296D01*
X75687Y15261D01*
X75748Y15249D01*
X75810Y15261D01*
X75862Y15296D01*
X75897Y15348D01*
X75909Y15410D01*
X75897Y15471D01*
X75862Y15523D01*
X75810Y15558D01*
X75748Y15570D01*
D02*
G37*
G36*
X80833Y14825D02*
X80783Y14815D01*
X80741Y14786D01*
X80712Y14744D01*
X80702Y14694D01*
X80712Y14644D01*
X80741Y14602D01*
X80783Y14574D01*
X80833Y14564D01*
X80883Y14574D01*
X80925Y14602D01*
X80953Y14644D01*
X80963Y14694D01*
X80953Y14744D01*
X80925Y14786D01*
X80883Y14815D01*
X80833Y14825D01*
D02*
G37*
G36*
X73289Y14267D02*
X73227Y14255D01*
X73175Y14220D01*
X73140Y14168D01*
X73128Y14107D01*
X73140Y14045D01*
X73175Y13993D01*
X73227Y13958D01*
X73289Y13946D01*
X73350Y13958D01*
X73402Y13993D01*
X73437Y14045D01*
X73449Y14107D01*
X73437Y14168D01*
X73402Y14220D01*
X73350Y14255D01*
X73289Y14267D01*
D02*
G37*
G36*
X80833Y14044D02*
X80783Y14034D01*
X80741Y14006D01*
X80712Y13964D01*
X80702Y13914D01*
X80712Y13864D01*
X80741Y13822D01*
X80783Y13793D01*
X80833Y13783D01*
X80883Y13793D01*
X80925Y13822D01*
X80953Y13864D01*
X80963Y13914D01*
X80953Y13964D01*
X80925Y14006D01*
X80883Y14034D01*
X80833Y14044D01*
D02*
G37*
G36*
X76263Y14579D02*
X76181Y14563D01*
X76112Y14517D01*
X75888Y14293D01*
X75842Y14224D01*
X75826Y14142D01*
X75826Y14142D01*
Y13642D01*
X75842Y13560D01*
X75888Y13491D01*
X75957Y13445D01*
X76039Y13429D01*
X76121Y13445D01*
X76190Y13491D01*
X76236Y13560D01*
X76252Y13642D01*
Y14054D01*
X76414Y14215D01*
X76460Y14284D01*
X76476Y14366D01*
X76460Y14448D01*
X76414Y14517D01*
X76345Y14563D01*
X76263Y14579D01*
D02*
G37*
G36*
X72727Y13825D02*
X72657Y13816D01*
X72593Y13789D01*
X72537Y13746D01*
X72494Y13690D01*
X72467Y13625D01*
X72458Y13555D01*
X72467Y13486D01*
X72494Y13421D01*
X72537Y13365D01*
X72593Y13322D01*
X72657Y13295D01*
X72727Y13286D01*
X72797Y13295D01*
X72862Y13322D01*
X72918Y13365D01*
X72961Y13421D01*
X72988Y13486D01*
X72997Y13555D01*
X72988Y13625D01*
X72961Y13690D01*
X72918Y13746D01*
X72862Y13789D01*
X72797Y13816D01*
X72727Y13825D01*
D02*
G37*
G36*
X70050D02*
X69980Y13816D01*
X69915Y13789D01*
X69860Y13746D01*
X69817Y13690D01*
X69790Y13625D01*
X69781Y13555D01*
X69790Y13486D01*
X69817Y13421D01*
X69860Y13365D01*
X69915Y13322D01*
X69980Y13295D01*
X70050Y13286D01*
X70120Y13295D01*
X70185Y13322D01*
X70241Y13365D01*
X70283Y13421D01*
X70310Y13486D01*
X70320Y13555D01*
X70310Y13625D01*
X70283Y13690D01*
X70241Y13746D01*
X70185Y13789D01*
X70120Y13816D01*
X70050Y13825D01*
D02*
G37*
G36*
X83272Y12303D02*
X83222Y12293D01*
X83180Y12265D01*
X83152Y12222D01*
X83142Y12172D01*
X83152Y12122D01*
X83180Y12080D01*
X83222Y12052D01*
X83272Y12042D01*
X83322Y12052D01*
X83365Y12080D01*
X83393Y12122D01*
X83403Y12172D01*
X83393Y12222D01*
X83365Y12265D01*
X83322Y12293D01*
X83272Y12303D01*
D02*
G37*
G36*
X85233Y11055D02*
X85183Y11045D01*
X85141Y11017D01*
X85112Y10974D01*
X85103Y10924D01*
X85112Y10874D01*
X85141Y10832D01*
X85183Y10804D01*
X85233Y10794D01*
X85283Y10804D01*
X85325Y10832D01*
X85354Y10874D01*
X85363Y10924D01*
X85354Y10974D01*
X85325Y11017D01*
X85283Y11045D01*
X85233Y11055D01*
D02*
G37*
G36*
X84272D02*
X84222Y11045D01*
X84180Y11017D01*
X84152Y10974D01*
X84142Y10924D01*
X84152Y10874D01*
X84180Y10832D01*
X84222Y10804D01*
X84272Y10794D01*
X84322Y10804D01*
X84365Y10832D01*
X84393Y10874D01*
X84403Y10924D01*
X84393Y10974D01*
X84365Y11017D01*
X84322Y11045D01*
X84272Y11055D01*
D02*
G37*
G36*
X83312D02*
X83262Y11045D01*
X83219Y11017D01*
X83191Y10974D01*
X83181Y10924D01*
X83191Y10874D01*
X83219Y10832D01*
X83262Y10804D01*
X83312Y10794D01*
X83362Y10804D01*
X83404Y10832D01*
X83432Y10874D01*
X83442Y10924D01*
X83432Y10974D01*
X83404Y11017D01*
X83362Y11045D01*
X83312Y11055D01*
D02*
G37*
%LPD*%
G36*
X74908Y18660D02*
X74905Y18655D01*
X74902Y18650D01*
X74900Y18643D01*
X74898Y18636D01*
X74896Y18629D01*
X74895Y18620D01*
X74894Y18611D01*
X74893Y18590D01*
X74793D01*
X74793Y18601D01*
X74791Y18620D01*
X74790Y18629D01*
X74788Y18636D01*
X74786Y18643D01*
X74784Y18650D01*
X74781Y18655D01*
X74778Y18660D01*
X74774Y18664D01*
X74912D01*
X74908Y18660D01*
D02*
G37*
G36*
X75790Y16541D02*
X75783Y16533D01*
X75771Y16518D01*
X75766Y16512D01*
X75763Y16505D01*
X75760Y16499D01*
X75759Y16493D01*
X75758Y16487D01*
X75758Y16481D01*
X75760Y16476D01*
X75637Y16538D01*
X75640Y16539D01*
X75643Y16541D01*
X75647Y16544D01*
X75652Y16547D01*
X75663Y16556D01*
X75683Y16575D01*
X75691Y16583D01*
X75790Y16541D01*
D02*
G37*
G36*
X73456Y20038D02*
X73451Y20032D01*
X73447Y20025D01*
X73443Y20018D01*
X73440Y20010D01*
X73438Y20002D01*
X73436Y19994D01*
X73434Y19985D01*
X73433Y19975D01*
X73433Y19965D01*
X73353D01*
X73353Y19975D01*
X73352Y19985D01*
X73350Y19994D01*
X73348Y20002D01*
X73346Y20010D01*
X73343Y20018D01*
X73339Y20025D01*
X73334Y20032D01*
X73330Y20038D01*
X73324Y20044D01*
X73462D01*
X73456Y20038D01*
D02*
G37*
G36*
X72663Y18041D02*
X72670Y18035D01*
X72678Y18030D01*
X72685Y18025D01*
X72693Y18021D01*
X72700Y18018D01*
X72708Y18016D01*
X72716Y18014D01*
X72724Y18013D01*
X72732Y18013D01*
X72635Y17915D01*
X72634Y17923D01*
X72633Y17931D01*
X72632Y17939D01*
X72629Y17947D01*
X72626Y17954D01*
X72622Y17962D01*
X72617Y17970D01*
X72612Y17977D01*
X72606Y17984D01*
X72599Y17991D01*
X72656Y18048D01*
X72663Y18041D01*
D02*
G37*
G36*
X72340Y17556D02*
X72341Y17550D01*
X72342Y17544D01*
X72344Y17538D01*
X72348Y17531D01*
X72351Y17524D01*
X72356Y17518D01*
X72362Y17510D01*
X72368Y17503D01*
X72376Y17495D01*
X72295Y17435D01*
X72287Y17442D01*
X72266Y17460D01*
X72260Y17465D01*
X72253Y17468D01*
X72248Y17472D01*
X72242Y17474D01*
X72237Y17476D01*
X72232Y17476D01*
X72340Y17561D01*
X72340Y17556D01*
D02*
G37*
G36*
X73623Y17330D02*
X73619Y17334D01*
X73614Y17337D01*
X73608Y17340D01*
X73602Y17343D01*
X73595Y17345D01*
X73587Y17346D01*
X73579Y17348D01*
X73570Y17349D01*
X73549Y17349D01*
Y17449D01*
X73560Y17450D01*
X73579Y17451D01*
X73587Y17452D01*
X73595Y17454D01*
X73602Y17456D01*
X73608Y17459D01*
X73614Y17462D01*
X73619Y17465D01*
X73623Y17468D01*
Y17330D01*
D02*
G37*
G36*
X73967Y16940D02*
X73972Y16936D01*
X73978Y16934D01*
X73984Y16931D01*
X73991Y16929D01*
X73999Y16927D01*
X74007Y16926D01*
X74016Y16925D01*
X74037Y16924D01*
Y16824D01*
X74026Y16824D01*
X74007Y16823D01*
X73999Y16821D01*
X73991Y16820D01*
X73984Y16817D01*
X73978Y16815D01*
X73972Y16812D01*
X73967Y16809D01*
X73963Y16805D01*
Y16943D01*
X73967Y16940D01*
D02*
G37*
G36*
X75446Y16803D02*
X75442Y16807D01*
X75438Y16811D01*
X75432Y16814D01*
X75426Y16817D01*
X75419Y16819D01*
X75412Y16821D01*
X75404Y16822D01*
X75394Y16823D01*
X75374Y16824D01*
X75386Y16924D01*
X75397Y16924D01*
X75424Y16927D01*
X75432Y16928D01*
X75439Y16930D01*
X75445Y16932D01*
X75451Y16934D01*
X75456Y16937D01*
X75460Y16940D01*
X75446Y16803D01*
D02*
G37*
G36*
X80756Y21928D02*
X80751Y21922D01*
X80747Y21915D01*
X80743Y21908D01*
X80740Y21900D01*
X80738Y21892D01*
X80736Y21884D01*
X80734Y21875D01*
X80733Y21865D01*
X80733Y21855D01*
X80653D01*
X80653Y21865D01*
X80652Y21875D01*
X80650Y21884D01*
X80648Y21892D01*
X80646Y21900D01*
X80643Y21908D01*
X80639Y21915D01*
X80634Y21922D01*
X80630Y21928D01*
X80624Y21934D01*
X80762D01*
X80756Y21928D01*
D02*
G37*
G36*
X80297Y16129D02*
X80290Y16122D01*
X80284Y16115D01*
X80279Y16108D01*
X80274Y16100D01*
X80270Y16093D01*
X80267Y16085D01*
X80265Y16077D01*
X80263Y16069D01*
X80262Y16061D01*
X80262Y16053D01*
X80164Y16151D01*
X80172Y16151D01*
X80180Y16152D01*
X80188Y16154D01*
X80196Y16156D01*
X80203Y16159D01*
X80211Y16163D01*
X80218Y16168D01*
X80226Y16173D01*
X80233Y16179D01*
X80240Y16186D01*
X80297Y16129D01*
D02*
G37*
%LPC*%
G36*
X51448Y25045D02*
X51398Y25035D01*
X51356Y25006D01*
X51328Y24964D01*
X51318Y24914D01*
X51328Y24864D01*
X51356Y24822D01*
X51398Y24794D01*
X51448Y24784D01*
X51498Y24794D01*
X51541Y24822D01*
X51569Y24864D01*
X51579Y24914D01*
X51569Y24964D01*
X51541Y25006D01*
X51498Y25035D01*
X51448Y25045D01*
D02*
G37*
G36*
X50521Y24474D02*
X50460Y24462D01*
X50408Y24427D01*
X50373Y24375D01*
X50361Y24314D01*
X50373Y24252D01*
X50408Y24200D01*
X50460Y24165D01*
X50521Y24153D01*
X50583Y24165D01*
X50635Y24200D01*
X50670Y24252D01*
X50682Y24314D01*
X50670Y24375D01*
X50635Y24427D01*
X50583Y24462D01*
X50521Y24474D01*
D02*
G37*
G36*
X51448Y24465D02*
X51387Y24453D01*
X51335Y24418D01*
X51300Y24366D01*
X51288Y24304D01*
X51300Y24243D01*
X51335Y24191D01*
X51387Y24156D01*
X51448Y24144D01*
X51510Y24156D01*
X51562Y24191D01*
X51597Y24243D01*
X51609Y24304D01*
X51597Y24366D01*
X51562Y24418D01*
X51510Y24453D01*
X51448Y24465D01*
D02*
G37*
G36*
X51269Y23720D02*
X51208Y23707D01*
X51155Y23673D01*
X51121Y23620D01*
X51108Y23559D01*
X51121Y23498D01*
X51155Y23445D01*
X51208Y23411D01*
X51269Y23398D01*
X51330Y23411D01*
X51383Y23445D01*
X51417Y23498D01*
X51430Y23559D01*
X51417Y23620D01*
X51383Y23673D01*
X51330Y23707D01*
X51269Y23720D01*
D02*
G37*
G36*
X50298Y23615D02*
X50237Y23603D01*
X50185Y23568D01*
X50150Y23516D01*
X50138Y23454D01*
X50150Y23393D01*
X50185Y23341D01*
X50237Y23306D01*
X50298Y23294D01*
X50360Y23306D01*
X50412Y23341D01*
X50447Y23393D01*
X50459Y23454D01*
X50447Y23516D01*
X50412Y23568D01*
X50360Y23603D01*
X50298Y23615D01*
D02*
G37*
G36*
X52177Y24230D02*
X52124Y24220D01*
X52080Y24190D01*
X52077Y24186D01*
X52065Y24178D01*
X52030Y24126D01*
X52018Y24064D01*
X52030Y24003D01*
X52040Y23988D01*
Y22978D01*
X52028Y22960D01*
X52016Y22899D01*
X52028Y22837D01*
X52063Y22785D01*
X52115Y22751D01*
X52177Y22738D01*
X52238Y22751D01*
X52290Y22785D01*
X52325Y22837D01*
X52337Y22899D01*
X52325Y22960D01*
X52313Y22978D01*
Y23983D01*
X52327Y24003D01*
X52339Y24064D01*
X52327Y24126D01*
X52292Y24178D01*
X52273Y24190D01*
X52273Y24190D01*
X52229Y24220D01*
X52177Y24230D01*
D02*
G37*
G36*
X45748Y22935D02*
X45687Y22923D01*
X45669Y22911D01*
X43638D01*
X43586Y22901D01*
X43542Y22871D01*
X42474Y21803D01*
X42444Y21759D01*
X42434Y21707D01*
Y20873D01*
X42422Y20856D01*
X42410Y20794D01*
X42422Y20733D01*
X42457Y20681D01*
X42509Y20646D01*
X42571Y20634D01*
X42632Y20646D01*
X42684Y20681D01*
X42719Y20733D01*
X42731Y20794D01*
X42719Y20856D01*
X42707Y20873D01*
Y21650D01*
X43695Y22638D01*
X45669D01*
X45687Y22626D01*
X45748Y22614D01*
X45810Y22626D01*
X45827Y22638D01*
X47862D01*
X48342Y22158D01*
X48386Y22128D01*
X48438Y22118D01*
X51859D01*
X51877Y22106D01*
X51938Y22094D01*
X52000Y22106D01*
X52052Y22141D01*
X52087Y22193D01*
X52099Y22254D01*
X52087Y22316D01*
X52052Y22368D01*
X52000Y22403D01*
X51938Y22415D01*
X51877Y22403D01*
X51859Y22391D01*
X48495D01*
X48015Y22871D01*
X47971Y22901D01*
X47918Y22911D01*
X45827D01*
X45810Y22923D01*
X45748Y22935D01*
D02*
G37*
G36*
X46728Y21915D02*
X46667Y21903D01*
X46615Y21868D01*
X46580Y21816D01*
X46568Y21754D01*
X46570Y21742D01*
X46560Y21729D01*
X46527Y21705D01*
X46478Y21715D01*
X46417Y21703D01*
X46365Y21668D01*
X46330Y21616D01*
X46318Y21554D01*
X46330Y21493D01*
X46365Y21441D01*
X46415Y21407D01*
X46393Y21364D01*
X46331Y21377D01*
X46311Y21373D01*
X46264Y21387D01*
X46259Y21409D01*
X46251Y21448D01*
X46216Y21501D01*
X46164Y21535D01*
X46103Y21548D01*
X46041Y21535D01*
X45989Y21501D01*
X45954Y21448D01*
X45942Y21387D01*
X45954Y21326D01*
X45960Y21316D01*
X45925Y21285D01*
X45873Y21320D01*
X45811Y21332D01*
X45750Y21320D01*
X45698Y21285D01*
X45663Y21233D01*
X45651Y21171D01*
X45663Y21110D01*
X45698Y21058D01*
X45750Y21023D01*
X45811Y21011D01*
X45873Y21023D01*
X45925Y21058D01*
X45959Y21110D01*
X45972Y21171D01*
X45959Y21233D01*
X45953Y21242D01*
X45989Y21273D01*
X46041Y21239D01*
X46103Y21226D01*
X46123Y21230D01*
X46170Y21216D01*
X46175Y21194D01*
X46183Y21155D01*
X46218Y21103D01*
X46270Y21068D01*
X46331Y21056D01*
X46393Y21068D01*
X46445Y21103D01*
X46480Y21155D01*
X46492Y21216D01*
X46480Y21278D01*
X46445Y21330D01*
X46395Y21363D01*
X46417Y21406D01*
X46478Y21394D01*
X46540Y21406D01*
X46592Y21441D01*
X46627Y21493D01*
X46639Y21554D01*
X46637Y21566D01*
X46647Y21579D01*
X46680Y21603D01*
X46728Y21594D01*
X46790Y21606D01*
X46842Y21641D01*
X46877Y21693D01*
X46889Y21754D01*
X46877Y21816D01*
X46842Y21868D01*
X46790Y21903D01*
X46728Y21915D01*
D02*
G37*
G36*
X50521Y21886D02*
X50460Y21874D01*
X50408Y21839D01*
X50373Y21787D01*
X50361Y21726D01*
X50373Y21664D01*
X50408Y21612D01*
X50460Y21577D01*
X50521Y21565D01*
X50583Y21577D01*
X50635Y21612D01*
X50670Y21664D01*
X50682Y21726D01*
X50670Y21787D01*
X50635Y21839D01*
X50583Y21874D01*
X50521Y21886D01*
D02*
G37*
G36*
X39884Y21725D02*
X39823Y21713D01*
X39771Y21678D01*
X39736Y21626D01*
X39724Y21564D01*
X39736Y21503D01*
X39771Y21451D01*
X39823Y21416D01*
X39884Y21404D01*
X39946Y21416D01*
X39998Y21451D01*
X40033Y21503D01*
X40045Y21564D01*
X40033Y21626D01*
X39998Y21678D01*
X39946Y21713D01*
X39884Y21725D01*
D02*
G37*
G36*
X40708Y21753D02*
X40627Y21736D01*
X40558Y21690D01*
X40511Y21621D01*
X40495Y21539D01*
Y21328D01*
X40511Y21246D01*
X40558Y21177D01*
X40627Y21131D01*
X40708Y21115D01*
X40790Y21131D01*
X40859Y21177D01*
X40905Y21246D01*
X40922Y21328D01*
Y21539D01*
X40905Y21621D01*
X40859Y21690D01*
X40790Y21736D01*
X40708Y21753D01*
D02*
G37*
G36*
X43622Y21632D02*
X43476Y21613D01*
X43340Y21556D01*
X43223Y21467D01*
X43133Y21350D01*
X43077Y21214D01*
X43058Y21068D01*
Y17581D01*
X42752Y17581D01*
X42749Y17585D01*
X42737Y17646D01*
X42702Y17698D01*
X42650Y17733D01*
X42588Y17745D01*
X42527Y17733D01*
X42475Y17698D01*
X42440Y17646D01*
X42428Y17585D01*
X42424Y17581D01*
X42130Y17581D01*
X42130Y17581D01*
Y17581D01*
X42093Y17609D01*
X41490Y18212D01*
Y18582D01*
X41492Y18588D01*
X41493Y18607D01*
X41493Y18612D01*
X41494Y18617D01*
X41495Y18620D01*
X41496Y18622D01*
X41496Y18623D01*
X41497Y18624D01*
X41497Y18625D01*
X41497Y18626D01*
X41497Y18628D01*
X41498Y18629D01*
X41498Y18630D01*
X41527Y18673D01*
X41539Y18734D01*
X41527Y18796D01*
X41492Y18848D01*
X41440Y18883D01*
X41378Y18895D01*
X41317Y18883D01*
X41265Y18848D01*
X41230Y18796D01*
X41218Y18734D01*
X41230Y18673D01*
X41259Y18630D01*
X41259Y18629D01*
X41259Y18628D01*
X41259Y18626D01*
X41260Y18625D01*
X41260Y18624D01*
X41261Y18623D01*
X41261Y18622D01*
X41262Y18620D01*
X41262Y18617D01*
X41263Y18613D01*
X41264Y18598D01*
X41264Y18589D01*
X41267Y18583D01*
Y18166D01*
X41267Y18166D01*
X41276Y18124D01*
X41300Y18087D01*
X42347Y17040D01*
Y16790D01*
X42188Y16631D01*
X42181Y16628D01*
X42174Y16621D01*
X42156Y16604D01*
X42148Y16598D01*
X42146Y16596D01*
X42146Y16596D01*
X42144Y16595D01*
X42144Y16595D01*
X42144Y16595D01*
X42142Y16593D01*
X42142Y16593D01*
X42140Y16593D01*
X42088Y16558D01*
X42054Y16506D01*
X42041Y16444D01*
X42054Y16383D01*
X42088Y16331D01*
X42140Y16296D01*
X42202Y16284D01*
X42263Y16296D01*
X42315Y16331D01*
X42350Y16383D01*
X42363Y16444D01*
X42356Y16477D01*
X42356Y16478D01*
X42357Y16479D01*
X42358Y16481D01*
X42366Y16491D01*
X42372Y16497D01*
X42374Y16503D01*
X42537Y16666D01*
X42537Y16666D01*
X42561Y16702D01*
X42570Y16744D01*
X42570Y16744D01*
Y17086D01*
X42570Y17086D01*
X42561Y17129D01*
X42537Y17165D01*
X42537Y17165D01*
X42364Y17338D01*
X42383Y17384D01*
X42649D01*
X42660Y17328D01*
X42695Y17276D01*
X42747Y17241D01*
X42808Y17229D01*
X42870Y17241D01*
X42922Y17276D01*
X42957Y17328D01*
X42968Y17384D01*
X43058D01*
Y15678D01*
X43077Y15532D01*
X43133Y15396D01*
X43223Y15279D01*
X43340Y15190D01*
X43476Y15133D01*
X43622Y15114D01*
X43768Y15133D01*
X43904Y15190D01*
X44020Y15279D01*
X44110Y15396D01*
X44166Y15532D01*
X44186Y15678D01*
Y16763D01*
X44488D01*
X44515Y16713D01*
X44510Y16705D01*
X44500Y16655D01*
X44510Y16606D01*
X44538Y16563D01*
X44580Y16535D01*
X44630Y16525D01*
X44680Y16535D01*
X44722Y16563D01*
X44735D01*
X44777Y16535D01*
X44827Y16525D01*
X44877Y16535D01*
X44919Y16563D01*
X44932D01*
X44974Y16535D01*
X45024Y16525D01*
X45039Y16528D01*
X45089Y16489D01*
Y12226D01*
X44725Y11862D01*
X39726D01*
X39041Y12547D01*
X38980Y12588D01*
X38908Y12602D01*
X38837Y12588D01*
X38776Y12547D01*
X38735Y12486D01*
X38721Y12414D01*
X38735Y12342D01*
X38776Y12282D01*
X39516Y11542D01*
X39577Y11501D01*
X39648Y11487D01*
X44743D01*
X44757Y11477D01*
X44838Y11461D01*
X44920Y11477D01*
X44989Y11524D01*
X45452Y11987D01*
X45452Y11987D01*
X45499Y12056D01*
X45515Y12138D01*
Y18588D01*
X45515Y18588D01*
X45499Y18670D01*
X45452Y18739D01*
X45452Y18739D01*
X45134Y19057D01*
X45065Y19103D01*
X44984Y19119D01*
X44902Y19103D01*
X44833Y19057D01*
X44787Y18988D01*
X44771Y18906D01*
X44787Y18825D01*
X44833Y18756D01*
X45089Y18500D01*
Y16946D01*
X44186D01*
Y20965D01*
X44225Y20986D01*
X44236Y20986D01*
X44294Y20974D01*
X44355Y20987D01*
X44407Y21021D01*
X44442Y21074D01*
X44454Y21135D01*
X44442Y21196D01*
X44407Y21249D01*
X44355Y21283D01*
X44294Y21296D01*
X44232Y21283D01*
X44200Y21262D01*
X44142Y21274D01*
X44110Y21350D01*
X44020Y21467D01*
X43904Y21556D01*
X43768Y21613D01*
X43622Y21632D01*
D02*
G37*
G36*
X45478Y21115D02*
X45417Y21103D01*
X45365Y21068D01*
X45330Y21016D01*
X45318Y20954D01*
X45330Y20893D01*
X45365Y20841D01*
X45417Y20806D01*
X45427Y20781D01*
X45410Y20756D01*
X45398Y20694D01*
X45410Y20633D01*
X45445Y20581D01*
X45497Y20546D01*
X45558Y20534D01*
X45620Y20546D01*
X45672Y20581D01*
X45707Y20633D01*
X45719Y20694D01*
X45707Y20756D01*
X45672Y20808D01*
X45620Y20843D01*
X45610Y20867D01*
X45627Y20893D01*
X45639Y20954D01*
X45627Y21016D01*
X45592Y21068D01*
X45540Y21103D01*
X45478Y21115D01*
D02*
G37*
G36*
X39928Y20275D02*
X39867Y20263D01*
X39815Y20228D01*
X39780Y20176D01*
X39768Y20114D01*
X39780Y20053D01*
X39810Y20008D01*
X39813Y20000D01*
X39816Y19997D01*
X39818Y19995D01*
X39819Y19993D01*
X39820Y19991D01*
X39821Y19988D01*
X39822Y19985D01*
X39823Y19981D01*
X39824Y19977D01*
X39824Y19971D01*
X39824Y19963D01*
X39827Y19957D01*
Y19627D01*
X39835Y19588D01*
X39857Y19555D01*
X39890Y19533D01*
X39928Y19526D01*
X39967Y19533D01*
X40000Y19555D01*
X40022Y19588D01*
X40029Y19627D01*
Y19957D01*
X40032Y19963D01*
X40032Y19971D01*
X40033Y19977D01*
X40034Y19981D01*
X40035Y19985D01*
X40036Y19988D01*
X40037Y19991D01*
X40038Y19993D01*
X40039Y19995D01*
X40040Y19997D01*
X40044Y20000D01*
X40047Y20008D01*
X40077Y20053D01*
X40089Y20114D01*
X40077Y20176D01*
X40042Y20228D01*
X39990Y20263D01*
X39928Y20275D01*
D02*
G37*
G36*
X41388Y19755D02*
X41327Y19743D01*
X41275Y19708D01*
X41240Y19656D01*
X41228Y19594D01*
X41240Y19533D01*
X41275Y19481D01*
X41327Y19446D01*
X41388Y19434D01*
X41450Y19446D01*
X41502Y19481D01*
X41537Y19533D01*
X41549Y19594D01*
X41537Y19656D01*
X41502Y19708D01*
X41450Y19743D01*
X41388Y19755D01*
D02*
G37*
G36*
X42478Y19067D02*
X42417Y19055D01*
X42365Y19020D01*
X42330Y18968D01*
X42318Y18906D01*
X42330Y18845D01*
X42365Y18793D01*
X42417Y18758D01*
X42478Y18746D01*
X42540Y18758D01*
X42592Y18793D01*
X42627Y18845D01*
X42639Y18906D01*
X42627Y18968D01*
X42592Y19020D01*
X42540Y19055D01*
X42478Y19067D01*
D02*
G37*
G36*
X39228Y19675D02*
X39167Y19663D01*
X39115Y19628D01*
X39080Y19576D01*
X39068Y19514D01*
X39071Y19499D01*
X39067Y19496D01*
X39045Y19463D01*
X39037Y19424D01*
Y18044D01*
X39045Y18006D01*
X39067Y17973D01*
X39086Y17954D01*
X39088Y17947D01*
X39094Y17942D01*
X39097Y17938D01*
X39100Y17934D01*
X39102Y17931D01*
X39103Y17928D01*
X39104Y17925D01*
X39105Y17923D01*
X39106Y17920D01*
X39106Y17918D01*
X39106Y17913D01*
X39110Y17905D01*
X39120Y17853D01*
X39155Y17801D01*
X39207Y17766D01*
X39268Y17754D01*
X39330Y17766D01*
X39382Y17801D01*
X39417Y17853D01*
X39429Y17914D01*
X39417Y17976D01*
X39382Y18028D01*
X39330Y18063D01*
X39277Y18073D01*
X39270Y18077D01*
X39264Y18077D01*
X39262Y18077D01*
X39260Y18077D01*
X39258Y18078D01*
X39255Y18079D01*
X39252Y18081D01*
X39249Y18083D01*
X39245Y18086D01*
X39241Y18089D01*
X39239Y18090D01*
Y19356D01*
X39290Y19366D01*
X39342Y19401D01*
X39366Y19437D01*
X39795D01*
X39796Y19514D01*
X39389D01*
X39377Y19576D01*
X39342Y19628D01*
X39290Y19663D01*
X39228Y19675D01*
D02*
G37*
G36*
X38778Y17735D02*
X38717Y17723D01*
X38665Y17688D01*
X38630Y17636D01*
X38618Y17574D01*
X38630Y17513D01*
X38665Y17461D01*
X38717Y17426D01*
X38746Y17420D01*
X38749Y17418D01*
X38752Y17416D01*
X38753Y17415D01*
X38753Y17415D01*
X38753Y17415D01*
X38755Y17414D01*
X38755Y17414D01*
X38756Y17414D01*
X38756Y17414D01*
X38757Y17413D01*
X38760Y17411D01*
X38762Y17410D01*
X38780Y17395D01*
X38786Y17389D01*
X38792Y17386D01*
X38858Y17321D01*
X38894Y17297D01*
X38936Y17288D01*
X38985D01*
X38996Y17273D01*
X39007Y17238D01*
X38978Y17196D01*
X38966Y17134D01*
X38978Y17073D01*
X39013Y17021D01*
X39065Y16986D01*
X39127Y16974D01*
X39188Y16986D01*
X39240Y17021D01*
X39275Y17073D01*
X39287Y17134D01*
X39275Y17196D01*
X39247Y17238D01*
X39258Y17273D01*
X39269Y17288D01*
X40076D01*
X40082Y17286D01*
X40101Y17285D01*
X40106Y17284D01*
X40111Y17284D01*
X40114Y17283D01*
X40117Y17282D01*
X40117Y17282D01*
X40118Y17281D01*
X40119Y17281D01*
X40120Y17280D01*
X40122Y17280D01*
X40123Y17280D01*
X40124Y17280D01*
X40167Y17251D01*
X40228Y17239D01*
X40290Y17251D01*
X40342Y17286D01*
X40377Y17338D01*
X40389Y17399D01*
X40377Y17461D01*
X40342Y17513D01*
X40290Y17548D01*
X40228Y17560D01*
X40167Y17548D01*
X40124Y17519D01*
X40123Y17519D01*
X40122Y17519D01*
X40120Y17518D01*
X40119Y17518D01*
X40118Y17518D01*
X40117Y17517D01*
X40117Y17517D01*
X40114Y17516D01*
X40111Y17515D01*
X40107Y17515D01*
X40092Y17513D01*
X40083Y17513D01*
X40077Y17511D01*
X38982D01*
X38963Y17530D01*
X38962Y17534D01*
X38959Y17536D01*
X38957Y17539D01*
X38951Y17546D01*
X38947Y17551D01*
X38943Y17555D01*
X38941Y17559D01*
X38939Y17561D01*
X38939Y17562D01*
X38939Y17562D01*
X38939Y17563D01*
X38938Y17564D01*
X38938Y17565D01*
X38938Y17566D01*
X38937Y17566D01*
X38939Y17574D01*
X38927Y17636D01*
X38892Y17688D01*
X38840Y17723D01*
X38778Y17735D01*
D02*
G37*
G36*
X50528Y17151D02*
X50467Y17138D01*
X50415Y17104D01*
X50380Y17052D01*
X50368Y16990D01*
X50380Y16929D01*
X50415Y16877D01*
X50467Y16842D01*
X50528Y16830D01*
X50590Y16842D01*
X50642Y16877D01*
X50677Y16929D01*
X50689Y16990D01*
X50677Y17052D01*
X50642Y17104D01*
X50590Y17138D01*
X50528Y17151D01*
D02*
G37*
G36*
X52494Y17140D02*
X52432Y17127D01*
X52380Y17093D01*
X52345Y17040D01*
X52339Y17009D01*
X52297Y16966D01*
X52235Y16954D01*
X52183Y16919D01*
X52148Y16867D01*
X52136Y16806D01*
X52146Y16756D01*
X52124Y16724D01*
X52110Y16713D01*
X52098Y16715D01*
X52037Y16703D01*
X51985Y16668D01*
X51950Y16616D01*
X51938Y16554D01*
X51950Y16493D01*
X51985Y16441D01*
X52037Y16406D01*
X52098Y16394D01*
X52160Y16406D01*
X52212Y16441D01*
X52247Y16493D01*
X52259Y16554D01*
X52249Y16604D01*
X52272Y16636D01*
X52286Y16647D01*
X52297Y16645D01*
X52358Y16657D01*
X52410Y16692D01*
X52445Y16744D01*
X52451Y16776D01*
X52494Y16818D01*
X52555Y16831D01*
X52607Y16865D01*
X52642Y16918D01*
X52654Y16979D01*
X52642Y17040D01*
X52607Y17093D01*
X52555Y17127D01*
X52494Y17140D01*
D02*
G37*
G36*
X40428Y17035D02*
X40367Y17023D01*
X40315Y16988D01*
X40280Y16936D01*
X40268Y16874D01*
X40280Y16813D01*
X40315Y16761D01*
X40367Y16726D01*
X40428Y16714D01*
X40490Y16726D01*
X40533Y16755D01*
X40533Y16755D01*
X40535Y16755D01*
X40537Y16755D01*
X40537Y16756D01*
X40538Y16756D01*
X40540Y16757D01*
X40540Y16757D01*
X40542Y16758D01*
X40546Y16758D01*
X40550Y16759D01*
X40565Y16760D01*
X40573Y16760D01*
X40580Y16763D01*
X41898D01*
X41902Y16761D01*
X41904Y16761D01*
X41907Y16760D01*
X41925Y16760D01*
X41930Y16759D01*
X41934Y16758D01*
X41937Y16758D01*
X41937Y16757D01*
X41938Y16757D01*
X41939Y16757D01*
X41940Y16756D01*
X41941Y16756D01*
X41941Y16756D01*
X41941Y16756D01*
X41942Y16756D01*
X41945Y16751D01*
X41997Y16716D01*
X42058Y16704D01*
X42120Y16716D01*
X42172Y16751D01*
X42207Y16803D01*
X42219Y16864D01*
X42207Y16926D01*
X42172Y16978D01*
X42120Y17013D01*
X42058Y17025D01*
X41997Y17013D01*
X41970Y16995D01*
X41965Y16994D01*
X41962Y16993D01*
X41962Y16993D01*
X41961Y16993D01*
X41961Y16993D01*
X41959Y16992D01*
X41959Y16992D01*
X41958Y16992D01*
X41958Y16992D01*
X41957Y16991D01*
X41954Y16991D01*
X41951Y16990D01*
X41929Y16988D01*
X41920Y16988D01*
X41914Y16985D01*
X40580D01*
X40575Y16988D01*
X40556Y16989D01*
X40551Y16989D01*
X40546Y16990D01*
X40542Y16991D01*
X40540Y16992D01*
X40540Y16992D01*
X40538Y16993D01*
X40537Y16993D01*
X40537Y16993D01*
X40535Y16993D01*
X40533Y16994D01*
X40533Y16994D01*
X40490Y17023D01*
X40428Y17035D01*
D02*
G37*
G36*
X40488Y16232D02*
X40427Y16219D01*
X40375Y16185D01*
X40340Y16132D01*
X40328Y16071D01*
X40340Y16010D01*
X40375Y15957D01*
X40427Y15923D01*
X40488Y15910D01*
X40550Y15923D01*
X40602Y15957D01*
X40637Y16010D01*
X40649Y16071D01*
X40637Y16132D01*
X40602Y16185D01*
X40550Y16219D01*
X40488Y16232D01*
D02*
G37*
G36*
X46992Y22402D02*
X46931Y22390D01*
X46879Y22355D01*
X46844Y22303D01*
X46832Y22242D01*
X46844Y22180D01*
X46879Y22128D01*
X46931Y22093D01*
X46992Y22081D01*
X47038Y22090D01*
X47048Y22085D01*
X47073Y22059D01*
X47077Y22051D01*
X47068Y22004D01*
X47080Y21943D01*
X47110Y21898D01*
X47113Y21890D01*
X47116Y21887D01*
X47118Y21885D01*
X47119Y21883D01*
X47120Y21881D01*
X47121Y21878D01*
X47122Y21875D01*
X47123Y21871D01*
X47124Y21867D01*
X47124Y21861D01*
X47124Y21853D01*
X47127Y21847D01*
Y16624D01*
X46738Y16235D01*
X46732Y16232D01*
X46726Y16227D01*
X46722Y16224D01*
X46718Y16221D01*
X46715Y16219D01*
X46712Y16217D01*
X46709Y16216D01*
X46707Y16216D01*
X46705Y16215D01*
X46702Y16215D01*
X46697Y16215D01*
X46690Y16211D01*
X46637Y16201D01*
X46585Y16166D01*
X46550Y16114D01*
X46538Y16052D01*
X46550Y15991D01*
X46585Y15939D01*
X46637Y15904D01*
X46699Y15892D01*
X46760Y15904D01*
X46812Y15939D01*
X46847Y15991D01*
X46857Y16043D01*
X46861Y16051D01*
X46861Y16056D01*
X46861Y16058D01*
X46862Y16061D01*
X46863Y16063D01*
X46864Y16066D01*
X46865Y16069D01*
X46867Y16072D01*
X46870Y16076D01*
X46873Y16080D01*
X46879Y16085D01*
X46881Y16092D01*
X47300Y16511D01*
X47322Y16543D01*
X47329Y16582D01*
Y21847D01*
X47332Y21853D01*
X47332Y21861D01*
X47333Y21867D01*
X47334Y21871D01*
X47335Y21875D01*
X47336Y21878D01*
X47337Y21881D01*
X47338Y21883D01*
X47339Y21885D01*
X47340Y21887D01*
X47344Y21890D01*
X47347Y21898D01*
X47377Y21943D01*
X47389Y22004D01*
X47377Y22066D01*
X47342Y22118D01*
X47290Y22153D01*
X47228Y22165D01*
X47183Y22156D01*
X47173Y22162D01*
X47148Y22187D01*
X47144Y22195D01*
X47153Y22242D01*
X47141Y22303D01*
X47106Y22355D01*
X47054Y22390D01*
X46992Y22402D01*
D02*
G37*
G36*
X49158Y16195D02*
X49097Y16183D01*
X49045Y16148D01*
X49010Y16096D01*
X48998Y16034D01*
X49010Y15973D01*
X49045Y15921D01*
X49097Y15886D01*
X49158Y15874D01*
X49220Y15886D01*
X49272Y15921D01*
X49307Y15973D01*
X49319Y16034D01*
X49307Y16096D01*
X49272Y16148D01*
X49220Y16183D01*
X49158Y16195D01*
D02*
G37*
G36*
X48768D02*
X48707Y16183D01*
X48655Y16148D01*
X48620Y16096D01*
X48608Y16034D01*
X48620Y15973D01*
X48655Y15921D01*
X48707Y15886D01*
X48768Y15874D01*
X48830Y15886D01*
X48882Y15921D01*
X48917Y15973D01*
X48929Y16034D01*
X48917Y16096D01*
X48882Y16148D01*
X48830Y16183D01*
X48768Y16195D01*
D02*
G37*
G36*
X48178Y16185D02*
X48117Y16173D01*
X48065Y16138D01*
X48030Y16086D01*
X48018Y16024D01*
X48030Y15963D01*
X48065Y15911D01*
X48117Y15876D01*
X48178Y15864D01*
X48240Y15876D01*
X48292Y15911D01*
X48327Y15963D01*
X48339Y16024D01*
X48327Y16086D01*
X48292Y16138D01*
X48240Y16173D01*
X48178Y16185D01*
D02*
G37*
G36*
X51898Y15942D02*
X51848Y15932D01*
X51806Y15904D01*
X51778Y15861D01*
X51768Y15811D01*
X51778Y15761D01*
X51806Y15719D01*
X51848Y15691D01*
X51898Y15681D01*
X51922Y15686D01*
X51978Y15661D01*
X52006Y15619D01*
X52048Y15591D01*
X52098Y15581D01*
X52148Y15591D01*
X52160Y15598D01*
X52198Y15616D01*
X52237Y15598D01*
X52248Y15591D01*
X52298Y15581D01*
X52348Y15591D01*
X52360Y15598D01*
X52398Y15616D01*
X52437Y15598D01*
X52448Y15591D01*
X52498Y15581D01*
X52548Y15591D01*
X52591Y15619D01*
X52619Y15661D01*
X52629Y15711D01*
X52619Y15761D01*
X52591Y15804D01*
X52548Y15832D01*
X52498Y15842D01*
X52448Y15832D01*
X52437Y15824D01*
X52398Y15807D01*
X52360Y15824D01*
X52348Y15832D01*
X52298Y15842D01*
X52248Y15832D01*
X52237Y15824D01*
X52198Y15807D01*
X52160Y15824D01*
X52148Y15832D01*
X52098Y15842D01*
X52075Y15837D01*
X52019Y15861D01*
X51991Y15904D01*
X51948Y15932D01*
X51898Y15942D01*
D02*
G37*
G36*
X37238Y16408D02*
X37123Y16393D01*
X37016Y16349D01*
X36924Y16278D01*
X36854Y16186D01*
X36809Y16079D01*
X36794Y15964D01*
X36809Y15849D01*
X36854Y15742D01*
X36924Y15650D01*
X37016Y15580D01*
X37123Y15535D01*
X37238Y15520D01*
X37353Y15535D01*
X37460Y15580D01*
X37552Y15650D01*
X37623Y15742D01*
X37667Y15849D01*
X37682Y15964D01*
X37667Y16079D01*
X37623Y16186D01*
X37552Y16278D01*
X37460Y16349D01*
X37353Y16393D01*
X37238Y16408D01*
D02*
G37*
G36*
X40028Y15795D02*
X39967Y15783D01*
X39915Y15748D01*
X39880Y15696D01*
X39868Y15634D01*
X39880Y15573D01*
X39915Y15521D01*
X39967Y15486D01*
X40028Y15474D01*
X40090Y15486D01*
X40142Y15521D01*
X40177Y15573D01*
X40189Y15634D01*
X40177Y15696D01*
X40142Y15748D01*
X40090Y15783D01*
X40028Y15795D01*
D02*
G37*
G36*
X47368Y15575D02*
X47318Y15565D01*
X47276Y15537D01*
X47248Y15494D01*
X47238Y15444D01*
X47248Y15394D01*
X47276Y15352D01*
X47318Y15324D01*
X47368Y15314D01*
X47418Y15324D01*
X47461Y15352D01*
X47489Y15394D01*
X47499Y15444D01*
X47489Y15494D01*
X47461Y15537D01*
X47418Y15565D01*
X47368Y15575D01*
D02*
G37*
G36*
X42284Y15570D02*
X42222Y15558D01*
X42170Y15523D01*
X42136Y15471D01*
X42123Y15410D01*
X42136Y15348D01*
X42170Y15296D01*
X42222Y15261D01*
X42284Y15249D01*
X42345Y15261D01*
X42397Y15296D01*
X42432Y15348D01*
X42444Y15410D01*
X42432Y15471D01*
X42397Y15523D01*
X42345Y15558D01*
X42284Y15570D01*
D02*
G37*
G36*
X47368Y14825D02*
X47318Y14815D01*
X47276Y14786D01*
X47248Y14744D01*
X47238Y14694D01*
X47248Y14644D01*
X47276Y14602D01*
X47318Y14574D01*
X47368Y14564D01*
X47418Y14574D01*
X47461Y14602D01*
X47489Y14644D01*
X47499Y14694D01*
X47489Y14744D01*
X47461Y14786D01*
X47418Y14815D01*
X47368Y14825D01*
D02*
G37*
G36*
X39824Y14267D02*
X39763Y14255D01*
X39711Y14220D01*
X39676Y14168D01*
X39664Y14107D01*
X39676Y14045D01*
X39711Y13993D01*
X39763Y13958D01*
X39824Y13946D01*
X39886Y13958D01*
X39938Y13993D01*
X39973Y14045D01*
X39985Y14107D01*
X39973Y14168D01*
X39938Y14220D01*
X39886Y14255D01*
X39824Y14267D01*
D02*
G37*
G36*
X47368Y14044D02*
X47318Y14034D01*
X47276Y14006D01*
X47248Y13964D01*
X47238Y13914D01*
X47248Y13864D01*
X47276Y13822D01*
X47318Y13793D01*
X47368Y13783D01*
X47418Y13793D01*
X47461Y13822D01*
X47489Y13864D01*
X47499Y13914D01*
X47489Y13964D01*
X47461Y14006D01*
X47418Y14034D01*
X47368Y14044D01*
D02*
G37*
G36*
X42798Y14579D02*
X42717Y14563D01*
X42648Y14517D01*
X42424Y14293D01*
X42377Y14224D01*
X42361Y14142D01*
X42361Y14142D01*
Y13642D01*
X42377Y13560D01*
X42424Y13491D01*
X42493Y13445D01*
X42574Y13429D01*
X42656Y13445D01*
X42725Y13491D01*
X42771Y13560D01*
X42788Y13642D01*
Y14054D01*
X42949Y14215D01*
X42995Y14284D01*
X43012Y14366D01*
X42995Y14448D01*
X42949Y14517D01*
X42880Y14563D01*
X42798Y14579D01*
D02*
G37*
G36*
X39263Y13825D02*
X39193Y13816D01*
X39128Y13789D01*
X39072Y13746D01*
X39029Y13690D01*
X39002Y13625D01*
X38993Y13555D01*
X39002Y13486D01*
X39029Y13421D01*
X39072Y13365D01*
X39128Y13322D01*
X39193Y13295D01*
X39263Y13286D01*
X39332Y13295D01*
X39397Y13322D01*
X39453Y13365D01*
X39496Y13421D01*
X39523Y13486D01*
X39532Y13555D01*
X39523Y13625D01*
X39496Y13690D01*
X39453Y13746D01*
X39397Y13789D01*
X39332Y13816D01*
X39263Y13825D01*
D02*
G37*
G36*
X36586D02*
X36516Y13816D01*
X36451Y13789D01*
X36395Y13746D01*
X36352Y13690D01*
X36325Y13625D01*
X36316Y13555D01*
X36325Y13486D01*
X36352Y13421D01*
X36395Y13365D01*
X36451Y13322D01*
X36516Y13295D01*
X36586Y13286D01*
X36655Y13295D01*
X36720Y13322D01*
X36776Y13365D01*
X36819Y13421D01*
X36846Y13486D01*
X36855Y13555D01*
X36846Y13625D01*
X36819Y13690D01*
X36776Y13746D01*
X36720Y13789D01*
X36655Y13816D01*
X36586Y13825D01*
D02*
G37*
G36*
X49808Y12303D02*
X49758Y12293D01*
X49716Y12265D01*
X49687Y12222D01*
X49677Y12172D01*
X49687Y12122D01*
X49716Y12080D01*
X49758Y12052D01*
X49808Y12042D01*
X49858Y12052D01*
X49900Y12080D01*
X49928Y12122D01*
X49938Y12172D01*
X49928Y12222D01*
X49900Y12265D01*
X49858Y12293D01*
X49808Y12303D01*
D02*
G37*
G36*
X51768Y11055D02*
X51719Y11045D01*
X51676Y11017D01*
X51648Y10974D01*
X51638Y10924D01*
X51648Y10874D01*
X51676Y10832D01*
X51719Y10804D01*
X51768Y10794D01*
X51818Y10804D01*
X51861Y10832D01*
X51889Y10874D01*
X51899Y10924D01*
X51889Y10974D01*
X51861Y11017D01*
X51818Y11045D01*
X51768Y11055D01*
D02*
G37*
G36*
X50808D02*
X50758Y11045D01*
X50716Y11017D01*
X50687Y10974D01*
X50677Y10924D01*
X50687Y10874D01*
X50716Y10832D01*
X50758Y10804D01*
X50808Y10794D01*
X50858Y10804D01*
X50900Y10832D01*
X50928Y10874D01*
X50938Y10924D01*
X50928Y10974D01*
X50900Y11017D01*
X50858Y11045D01*
X50808Y11055D01*
D02*
G37*
G36*
X49847D02*
X49797Y11045D01*
X49755Y11017D01*
X49727Y10974D01*
X49717Y10924D01*
X49727Y10874D01*
X49755Y10832D01*
X49797Y10804D01*
X49847Y10794D01*
X49897Y10804D01*
X49939Y10832D01*
X49968Y10874D01*
X49978Y10924D01*
X49968Y10974D01*
X49939Y11017D01*
X49897Y11045D01*
X49847Y11055D01*
D02*
G37*
%LPD*%
G36*
X41444Y18660D02*
X41440Y18655D01*
X41438Y18650D01*
X41435Y18643D01*
X41433Y18636D01*
X41431Y18629D01*
X41430Y18620D01*
X41429Y18611D01*
X41428Y18590D01*
X41328D01*
X41328Y18601D01*
X41327Y18620D01*
X41325Y18629D01*
X41324Y18636D01*
X41322Y18643D01*
X41319Y18650D01*
X41316Y18655D01*
X41313Y18660D01*
X41309Y18664D01*
X41447D01*
X41444Y18660D01*
D02*
G37*
G36*
X42326Y16541D02*
X42318Y16533D01*
X42306Y16518D01*
X42302Y16512D01*
X42298Y16505D01*
X42296Y16499D01*
X42294Y16493D01*
X42294Y16487D01*
X42294Y16481D01*
X42295Y16476D01*
X42172Y16538D01*
X42175Y16539D01*
X42179Y16541D01*
X42183Y16544D01*
X42187Y16547D01*
X42198Y16556D01*
X42218Y16575D01*
X42226Y16583D01*
X42326Y16541D01*
D02*
G37*
G36*
X39992Y20038D02*
X39987Y20032D01*
X39983Y20025D01*
X39979Y20018D01*
X39976Y20010D01*
X39973Y20002D01*
X39971Y19994D01*
X39969Y19985D01*
X39969Y19975D01*
X39968Y19965D01*
X39888D01*
X39888Y19975D01*
X39887Y19985D01*
X39886Y19994D01*
X39884Y20002D01*
X39881Y20010D01*
X39878Y20018D01*
X39874Y20025D01*
X39870Y20032D01*
X39865Y20038D01*
X39859Y20044D01*
X39997D01*
X39992Y20038D01*
D02*
G37*
G36*
X39198Y18041D02*
X39206Y18035D01*
X39213Y18030D01*
X39221Y18025D01*
X39228Y18021D01*
X39236Y18018D01*
X39244Y18016D01*
X39251Y18014D01*
X39259Y18013D01*
X39267Y18013D01*
X39170Y17915D01*
X39170Y17923D01*
X39169Y17931D01*
X39167Y17939D01*
X39164Y17947D01*
X39161Y17954D01*
X39157Y17962D01*
X39153Y17970D01*
X39148Y17977D01*
X39141Y17984D01*
X39135Y17991D01*
X39191Y18048D01*
X39198Y18041D01*
D02*
G37*
G36*
X38876Y17556D02*
X38876Y17550D01*
X38878Y17544D01*
X38880Y17538D01*
X38883Y17531D01*
X38887Y17524D01*
X38892Y17518D01*
X38897Y17510D01*
X38904Y17503D01*
X38911Y17495D01*
X38830Y17435D01*
X38823Y17442D01*
X38802Y17460D01*
X38795Y17465D01*
X38789Y17468D01*
X38783Y17472D01*
X38778Y17474D01*
X38772Y17476D01*
X38767Y17476D01*
X38876Y17561D01*
X38876Y17556D01*
D02*
G37*
G36*
X40158Y17330D02*
X40154Y17334D01*
X40149Y17337D01*
X40144Y17340D01*
X40137Y17343D01*
X40130Y17345D01*
X40123Y17346D01*
X40114Y17348D01*
X40105Y17349D01*
X40085Y17349D01*
Y17449D01*
X40095Y17450D01*
X40114Y17451D01*
X40123Y17452D01*
X40130Y17454D01*
X40137Y17456D01*
X40144Y17459D01*
X40149Y17462D01*
X40154Y17465D01*
X40158Y17468D01*
Y17330D01*
D02*
G37*
G36*
X40503Y16940D02*
X40508Y16936D01*
X40513Y16934D01*
X40519Y16931D01*
X40526Y16929D01*
X40534Y16927D01*
X40542Y16926D01*
X40552Y16925D01*
X40572Y16924D01*
Y16824D01*
X40562Y16824D01*
X40542Y16823D01*
X40534Y16821D01*
X40526Y16820D01*
X40519Y16817D01*
X40513Y16815D01*
X40508Y16812D01*
X40503Y16809D01*
X40499Y16805D01*
Y16943D01*
X40503Y16940D01*
D02*
G37*
G36*
X41981Y16803D02*
X41978Y16807D01*
X41973Y16811D01*
X41968Y16814D01*
X41962Y16817D01*
X41955Y16819D01*
X41947Y16821D01*
X41939Y16822D01*
X41930Y16823D01*
X41909Y16824D01*
X41921Y16924D01*
X41932Y16924D01*
X41960Y16927D01*
X41967Y16928D01*
X41975Y16930D01*
X41981Y16932D01*
X41986Y16934D01*
X41991Y16937D01*
X41995Y16940D01*
X41981Y16803D01*
D02*
G37*
G36*
X47292Y21928D02*
X47287Y21922D01*
X47283Y21915D01*
X47279Y21908D01*
X47276Y21900D01*
X47273Y21892D01*
X47271Y21884D01*
X47270Y21875D01*
X47269Y21865D01*
X47268Y21855D01*
X47188D01*
X47188Y21865D01*
X47187Y21875D01*
X47186Y21884D01*
X47184Y21892D01*
X47181Y21900D01*
X47178Y21908D01*
X47174Y21915D01*
X47170Y21922D01*
X47165Y21928D01*
X47159Y21934D01*
X47297D01*
X47292Y21928D01*
D02*
G37*
G36*
X46832Y16129D02*
X46825Y16122D01*
X46819Y16115D01*
X46814Y16108D01*
X46809Y16100D01*
X46806Y16093D01*
X46802Y16085D01*
X46800Y16077D01*
X46798Y16069D01*
X46797Y16061D01*
X46797Y16053D01*
X46700Y16151D01*
X46708Y16151D01*
X46716Y16152D01*
X46723Y16154D01*
X46731Y16156D01*
X46739Y16159D01*
X46746Y16163D01*
X46754Y16168D01*
X46761Y16173D01*
X46768Y16179D01*
X46776Y16186D01*
X46832Y16129D01*
D02*
G37*
%LPC*%
G36*
X17984Y25045D02*
X17934Y25035D01*
X17892Y25006D01*
X17863Y24964D01*
X17853Y24914D01*
X17863Y24864D01*
X17892Y24822D01*
X17934Y24794D01*
X17984Y24784D01*
X18034Y24794D01*
X18076Y24822D01*
X18104Y24864D01*
X18114Y24914D01*
X18104Y24964D01*
X18076Y25006D01*
X18034Y25035D01*
X17984Y25045D01*
D02*
G37*
G36*
X17057Y24474D02*
X16995Y24462D01*
X16943Y24427D01*
X16908Y24375D01*
X16896Y24314D01*
X16908Y24252D01*
X16943Y24200D01*
X16995Y24165D01*
X17057Y24153D01*
X17118Y24165D01*
X17170Y24200D01*
X17205Y24252D01*
X17217Y24314D01*
X17205Y24375D01*
X17170Y24427D01*
X17118Y24462D01*
X17057Y24474D01*
D02*
G37*
G36*
X17984Y24465D02*
X17922Y24453D01*
X17870Y24418D01*
X17835Y24366D01*
X17823Y24304D01*
X17835Y24243D01*
X17870Y24191D01*
X17922Y24156D01*
X17984Y24144D01*
X18045Y24156D01*
X18097Y24191D01*
X18132Y24243D01*
X18144Y24304D01*
X18132Y24366D01*
X18097Y24418D01*
X18045Y24453D01*
X17984Y24465D01*
D02*
G37*
G36*
X17804Y23720D02*
X17743Y23707D01*
X17691Y23673D01*
X17656Y23620D01*
X17644Y23559D01*
X17656Y23498D01*
X17691Y23445D01*
X17743Y23411D01*
X17804Y23398D01*
X17866Y23411D01*
X17918Y23445D01*
X17953Y23498D01*
X17965Y23559D01*
X17953Y23620D01*
X17918Y23673D01*
X17866Y23707D01*
X17804Y23720D01*
D02*
G37*
G36*
X16834Y23615D02*
X16772Y23603D01*
X16720Y23568D01*
X16685Y23516D01*
X16673Y23454D01*
X16685Y23393D01*
X16720Y23341D01*
X16772Y23306D01*
X16834Y23294D01*
X16895Y23306D01*
X16947Y23341D01*
X16982Y23393D01*
X16994Y23454D01*
X16982Y23516D01*
X16947Y23568D01*
X16895Y23603D01*
X16834Y23615D01*
D02*
G37*
G36*
X18712Y24230D02*
X18660Y24220D01*
X18615Y24190D01*
X18613Y24186D01*
X18600Y24178D01*
X18565Y24126D01*
X18553Y24064D01*
X18565Y24003D01*
X18575Y23988D01*
Y22978D01*
X18564Y22960D01*
X18552Y22899D01*
X18564Y22837D01*
X18599Y22785D01*
X18651Y22751D01*
X18712Y22738D01*
X18774Y22751D01*
X18826Y22785D01*
X18860Y22837D01*
X18873Y22899D01*
X18860Y22960D01*
X18849Y22978D01*
Y23983D01*
X18862Y24003D01*
X18874Y24064D01*
X18862Y24126D01*
X18827Y24178D01*
X18809Y24190D01*
X18809Y24190D01*
X18764Y24220D01*
X18712Y24230D01*
D02*
G37*
G36*
X12284Y22935D02*
X12222Y22923D01*
X12205Y22911D01*
X10174D01*
X10121Y22901D01*
X10077Y22871D01*
X9009Y21803D01*
X8980Y21759D01*
X8969Y21707D01*
Y20873D01*
X8958Y20856D01*
X8946Y20794D01*
X8958Y20733D01*
X8993Y20681D01*
X9045Y20646D01*
X9106Y20634D01*
X9168Y20646D01*
X9220Y20681D01*
X9254Y20733D01*
X9267Y20794D01*
X9254Y20856D01*
X9243Y20873D01*
Y21650D01*
X10230Y22638D01*
X12205D01*
X12222Y22626D01*
X12284Y22614D01*
X12345Y22626D01*
X12363Y22638D01*
X14397D01*
X14877Y22158D01*
X14921Y22128D01*
X14974Y22118D01*
X18395D01*
X18412Y22106D01*
X18474Y22094D01*
X18535Y22106D01*
X18587Y22141D01*
X18622Y22193D01*
X18634Y22254D01*
X18622Y22316D01*
X18587Y22368D01*
X18535Y22403D01*
X18474Y22415D01*
X18412Y22403D01*
X18395Y22391D01*
X15030D01*
X14550Y22871D01*
X14506Y22901D01*
X14454Y22911D01*
X12363D01*
X12345Y22923D01*
X12284Y22935D01*
D02*
G37*
G36*
X13264Y21915D02*
X13202Y21903D01*
X13150Y21868D01*
X13115Y21816D01*
X13103Y21754D01*
X13106Y21742D01*
X13095Y21729D01*
X13062Y21705D01*
X13014Y21715D01*
X12952Y21703D01*
X12900Y21668D01*
X12865Y21616D01*
X12853Y21554D01*
X12865Y21493D01*
X12900Y21441D01*
X12951Y21407D01*
X12928Y21364D01*
X12867Y21377D01*
X12847Y21373D01*
X12800Y21387D01*
X12794Y21409D01*
X12787Y21448D01*
X12752Y21501D01*
X12700Y21535D01*
X12638Y21548D01*
X12577Y21535D01*
X12525Y21501D01*
X12490Y21448D01*
X12478Y21387D01*
X12490Y21326D01*
X12496Y21316D01*
X12460Y21285D01*
X12408Y21320D01*
X12347Y21332D01*
X12285Y21320D01*
X12233Y21285D01*
X12198Y21233D01*
X12186Y21171D01*
X12198Y21110D01*
X12233Y21058D01*
X12285Y21023D01*
X12347Y21011D01*
X12408Y21023D01*
X12460Y21058D01*
X12495Y21110D01*
X12507Y21171D01*
X12495Y21233D01*
X12489Y21242D01*
X12525Y21273D01*
X12577Y21239D01*
X12638Y21226D01*
X12658Y21230D01*
X12705Y21216D01*
X12711Y21194D01*
X12718Y21155D01*
X12753Y21103D01*
X12805Y21068D01*
X12867Y21056D01*
X12928Y21068D01*
X12980Y21103D01*
X13015Y21155D01*
X13027Y21216D01*
X13015Y21278D01*
X12980Y21330D01*
X12930Y21363D01*
X12952Y21406D01*
X13014Y21394D01*
X13075Y21406D01*
X13127Y21441D01*
X13162Y21493D01*
X13174Y21554D01*
X13172Y21566D01*
X13182Y21579D01*
X13216Y21603D01*
X13264Y21594D01*
X13325Y21606D01*
X13377Y21641D01*
X13412Y21693D01*
X13424Y21754D01*
X13412Y21816D01*
X13377Y21868D01*
X13325Y21903D01*
X13264Y21915D01*
D02*
G37*
G36*
X17057Y21886D02*
X16995Y21874D01*
X16943Y21839D01*
X16908Y21787D01*
X16896Y21726D01*
X16908Y21664D01*
X16943Y21612D01*
X16995Y21577D01*
X17057Y21565D01*
X17118Y21577D01*
X17170Y21612D01*
X17205Y21664D01*
X17217Y21726D01*
X17205Y21787D01*
X17170Y21839D01*
X17118Y21874D01*
X17057Y21886D01*
D02*
G37*
G36*
X6420Y21725D02*
X6358Y21713D01*
X6306Y21678D01*
X6271Y21626D01*
X6259Y21564D01*
X6271Y21503D01*
X6306Y21451D01*
X6358Y21416D01*
X6420Y21404D01*
X6481Y21416D01*
X6533Y21451D01*
X6568Y21503D01*
X6580Y21564D01*
X6568Y21626D01*
X6533Y21678D01*
X6481Y21713D01*
X6420Y21725D01*
D02*
G37*
G36*
X7244Y21753D02*
X7162Y21736D01*
X7093Y21690D01*
X7047Y21621D01*
X7031Y21539D01*
Y21328D01*
X7047Y21246D01*
X7093Y21177D01*
X7162Y21131D01*
X7244Y21115D01*
X7325Y21131D01*
X7394Y21177D01*
X7441Y21246D01*
X7457Y21328D01*
Y21539D01*
X7441Y21621D01*
X7394Y21690D01*
X7325Y21736D01*
X7244Y21753D01*
D02*
G37*
G36*
X10157Y21632D02*
X10011Y21613D01*
X9875Y21556D01*
X9758Y21467D01*
X9669Y21350D01*
X9612Y21214D01*
X9593Y21068D01*
Y17581D01*
X9288Y17581D01*
X9284Y17585D01*
X9272Y17646D01*
X9237Y17698D01*
X9185Y17733D01*
X9124Y17745D01*
X9062Y17733D01*
X9010Y17698D01*
X8975Y17646D01*
X8963Y17585D01*
X8960Y17581D01*
X8666Y17581D01*
X8666Y17581D01*
Y17581D01*
X8629Y17609D01*
X8025Y18212D01*
Y18582D01*
X8028Y18588D01*
X8028Y18607D01*
X8029Y18612D01*
X8030Y18617D01*
X8030Y18620D01*
X8031Y18622D01*
X8031Y18623D01*
X8032Y18624D01*
X8032Y18625D01*
X8033Y18626D01*
X8033Y18628D01*
X8033Y18629D01*
X8033Y18630D01*
X8062Y18673D01*
X8074Y18734D01*
X8062Y18796D01*
X8027Y18848D01*
X7975Y18883D01*
X7914Y18895D01*
X7852Y18883D01*
X7800Y18848D01*
X7765Y18796D01*
X7753Y18734D01*
X7765Y18673D01*
X7794Y18630D01*
X7794Y18629D01*
X7795Y18628D01*
X7795Y18626D01*
X7795Y18625D01*
X7795Y18624D01*
X7796Y18623D01*
X7796Y18622D01*
X7797Y18620D01*
X7798Y18617D01*
X7799Y18613D01*
X7800Y18598D01*
X7800Y18589D01*
X7803Y18583D01*
Y18166D01*
X7803Y18166D01*
X7811Y18124D01*
X7835Y18087D01*
X8883Y17040D01*
Y16790D01*
X8723Y16631D01*
X8717Y16628D01*
X8710Y16621D01*
X8691Y16604D01*
X8683Y16598D01*
X8682Y16596D01*
X8681Y16596D01*
X8680Y16595D01*
X8679Y16595D01*
X8679Y16595D01*
X8678Y16593D01*
X8678Y16593D01*
X8676Y16593D01*
X8624Y16558D01*
X8589Y16506D01*
X8577Y16444D01*
X8589Y16383D01*
X8624Y16331D01*
X8676Y16296D01*
X8737Y16284D01*
X8799Y16296D01*
X8851Y16331D01*
X8886Y16383D01*
X8898Y16444D01*
X8892Y16477D01*
X8892Y16478D01*
X8892Y16479D01*
X8894Y16481D01*
X8902Y16491D01*
X8907Y16497D01*
X8910Y16503D01*
X9072Y16666D01*
X9072Y16666D01*
X9097Y16702D01*
X9105Y16744D01*
X9105Y16744D01*
Y17086D01*
X9105Y17086D01*
X9097Y17129D01*
X9072Y17165D01*
X9072Y17165D01*
X8899Y17338D01*
X8919Y17384D01*
X9184D01*
X9195Y17328D01*
X9230Y17276D01*
X9282Y17241D01*
X9344Y17229D01*
X9405Y17241D01*
X9457Y17276D01*
X9492Y17328D01*
X9503Y17384D01*
X9593D01*
Y15678D01*
X9612Y15532D01*
X9669Y15396D01*
X9758Y15279D01*
X9875Y15190D01*
X10011Y15133D01*
X10157Y15114D01*
X10303Y15133D01*
X10439Y15190D01*
X10556Y15279D01*
X10645Y15396D01*
X10702Y15532D01*
X10721Y15678D01*
Y16763D01*
X11023D01*
X11050Y16713D01*
X11045Y16705D01*
X11035Y16655D01*
X11045Y16606D01*
X11073Y16563D01*
X11116Y16535D01*
X11165Y16525D01*
X11215Y16535D01*
X11258Y16563D01*
X11270D01*
X11312Y16535D01*
X11362Y16525D01*
X11412Y16535D01*
X11455Y16563D01*
X11467D01*
X11509Y16535D01*
X11559Y16525D01*
X11574Y16528D01*
X11624Y16489D01*
Y12226D01*
X11260Y11862D01*
X6262D01*
X5576Y12547D01*
X5516Y12588D01*
X5444Y12602D01*
X5372Y12588D01*
X5311Y12547D01*
X5270Y12486D01*
X5256Y12414D01*
X5270Y12342D01*
X5311Y12282D01*
X6051Y11542D01*
X6112Y11501D01*
X6184Y11487D01*
X11278D01*
X11292Y11477D01*
X11374Y11461D01*
X11455Y11477D01*
X11524Y11524D01*
X11988Y11987D01*
X11988Y11987D01*
X12034Y12056D01*
X12050Y12138D01*
Y18588D01*
X12050Y18588D01*
X12034Y18670D01*
X11988Y18739D01*
X11988Y18739D01*
X11670Y19057D01*
X11601Y19103D01*
X11519Y19119D01*
X11438Y19103D01*
X11368Y19057D01*
X11322Y18988D01*
X11306Y18906D01*
X11322Y18825D01*
X11368Y18756D01*
X11624Y18500D01*
Y16946D01*
X10721D01*
Y20965D01*
X10760Y20986D01*
X10771Y20986D01*
X10829Y20974D01*
X10891Y20987D01*
X10943Y21021D01*
X10978Y21074D01*
X10990Y21135D01*
X10978Y21196D01*
X10943Y21249D01*
X10891Y21283D01*
X10829Y21296D01*
X10768Y21283D01*
X10736Y21262D01*
X10677Y21274D01*
X10645Y21350D01*
X10556Y21467D01*
X10439Y21556D01*
X10303Y21613D01*
X10157Y21632D01*
D02*
G37*
G36*
X12014Y21115D02*
X11952Y21103D01*
X11900Y21068D01*
X11865Y21016D01*
X11853Y20954D01*
X11865Y20893D01*
X11900Y20841D01*
X11952Y20806D01*
X11963Y20781D01*
X11945Y20756D01*
X11933Y20694D01*
X11945Y20633D01*
X11980Y20581D01*
X12032Y20546D01*
X12094Y20534D01*
X12155Y20546D01*
X12207Y20581D01*
X12242Y20633D01*
X12254Y20694D01*
X12242Y20756D01*
X12207Y20808D01*
X12155Y20843D01*
X12145Y20867D01*
X12162Y20893D01*
X12174Y20954D01*
X12162Y21016D01*
X12127Y21068D01*
X12075Y21103D01*
X12014Y21115D01*
D02*
G37*
G36*
X6464Y20275D02*
X6402Y20263D01*
X6350Y20228D01*
X6315Y20176D01*
X6303Y20114D01*
X6315Y20053D01*
X6345Y20008D01*
X6348Y20000D01*
X6352Y19997D01*
X6353Y19995D01*
X6354Y19993D01*
X6355Y19991D01*
X6357Y19988D01*
X6358Y19985D01*
X6358Y19981D01*
X6359Y19977D01*
X6360Y19971D01*
X6360Y19963D01*
X6363Y19957D01*
Y19627D01*
X6370Y19588D01*
X6392Y19555D01*
X6425Y19533D01*
X6464Y19526D01*
X6502Y19533D01*
X6535Y19555D01*
X6557Y19588D01*
X6565Y19627D01*
Y19957D01*
X6568Y19963D01*
X6568Y19971D01*
X6568Y19977D01*
X6569Y19981D01*
X6570Y19985D01*
X6571Y19988D01*
X6572Y19991D01*
X6573Y19993D01*
X6575Y19995D01*
X6576Y19997D01*
X6579Y20000D01*
X6582Y20008D01*
X6612Y20053D01*
X6624Y20114D01*
X6612Y20176D01*
X6577Y20228D01*
X6525Y20263D01*
X6464Y20275D01*
D02*
G37*
G36*
X7924Y19755D02*
X7862Y19743D01*
X7810Y19708D01*
X7775Y19656D01*
X7763Y19594D01*
X7775Y19533D01*
X7810Y19481D01*
X7862Y19446D01*
X7924Y19434D01*
X7985Y19446D01*
X8037Y19481D01*
X8072Y19533D01*
X8084Y19594D01*
X8072Y19656D01*
X8037Y19708D01*
X7985Y19743D01*
X7924Y19755D01*
D02*
G37*
G36*
X9014Y19067D02*
X8952Y19055D01*
X8900Y19020D01*
X8865Y18968D01*
X8853Y18906D01*
X8865Y18845D01*
X8900Y18793D01*
X8952Y18758D01*
X9014Y18746D01*
X9075Y18758D01*
X9127Y18793D01*
X9162Y18845D01*
X9174Y18906D01*
X9162Y18968D01*
X9127Y19020D01*
X9075Y19055D01*
X9014Y19067D01*
D02*
G37*
G36*
X5764Y19675D02*
X5702Y19663D01*
X5650Y19628D01*
X5615Y19576D01*
X5603Y19514D01*
X5606Y19499D01*
X5602Y19496D01*
X5580Y19463D01*
X5573Y19424D01*
Y18044D01*
X5580Y18006D01*
X5602Y17973D01*
X5621Y17954D01*
X5624Y17947D01*
X5629Y17942D01*
X5632Y17938D01*
X5635Y17934D01*
X5637Y17931D01*
X5639Y17928D01*
X5640Y17925D01*
X5641Y17923D01*
X5641Y17920D01*
X5641Y17918D01*
X5641Y17913D01*
X5645Y17905D01*
X5655Y17853D01*
X5690Y17801D01*
X5742Y17766D01*
X5804Y17754D01*
X5865Y17766D01*
X5917Y17801D01*
X5952Y17853D01*
X5964Y17914D01*
X5952Y17976D01*
X5917Y18028D01*
X5865Y18063D01*
X5813Y18073D01*
X5805Y18077D01*
X5800Y18077D01*
X5798Y18077D01*
X5795Y18077D01*
X5793Y18078D01*
X5790Y18079D01*
X5787Y18081D01*
X5784Y18083D01*
X5780Y18086D01*
X5776Y18089D01*
X5775Y18090D01*
Y19356D01*
X5825Y19366D01*
X5877Y19401D01*
X5902Y19437D01*
X6331D01*
X6331Y19514D01*
X5924D01*
X5912Y19576D01*
X5877Y19628D01*
X5825Y19663D01*
X5764Y19675D01*
D02*
G37*
G36*
X5314Y17735D02*
X5252Y17723D01*
X5200Y17688D01*
X5165Y17636D01*
X5153Y17574D01*
X5165Y17513D01*
X5200Y17461D01*
X5252Y17426D01*
X5281Y17420D01*
X5285Y17418D01*
X5287Y17416D01*
X5288Y17415D01*
X5288Y17415D01*
X5289Y17415D01*
X5291Y17414D01*
X5291Y17414D01*
X5291Y17414D01*
X5292Y17414D01*
X5293Y17413D01*
X5295Y17411D01*
X5298Y17410D01*
X5315Y17395D01*
X5321Y17389D01*
X5328Y17386D01*
X5393Y17321D01*
X5429Y17297D01*
X5472Y17288D01*
X5520D01*
X5531Y17273D01*
X5542Y17238D01*
X5514Y17196D01*
X5502Y17134D01*
X5514Y17073D01*
X5549Y17021D01*
X5601Y16986D01*
X5662Y16974D01*
X5724Y16986D01*
X5776Y17021D01*
X5811Y17073D01*
X5823Y17134D01*
X5811Y17196D01*
X5782Y17238D01*
X5793Y17273D01*
X5804Y17288D01*
X6612D01*
X6618Y17286D01*
X6636Y17285D01*
X6641Y17284D01*
X6646Y17284D01*
X6650Y17283D01*
X6652Y17282D01*
X6652Y17282D01*
X6654Y17281D01*
X6655Y17281D01*
X6655Y17280D01*
X6657Y17280D01*
X6659Y17280D01*
X6659Y17280D01*
X6702Y17251D01*
X6764Y17239D01*
X6825Y17251D01*
X6877Y17286D01*
X6912Y17338D01*
X6924Y17399D01*
X6912Y17461D01*
X6877Y17513D01*
X6825Y17548D01*
X6764Y17560D01*
X6702Y17548D01*
X6659Y17519D01*
X6659Y17519D01*
X6657Y17519D01*
X6655Y17518D01*
X6655Y17518D01*
X6654Y17518D01*
X6652Y17517D01*
X6652Y17517D01*
X6650Y17516D01*
X6646Y17515D01*
X6642Y17515D01*
X6628Y17513D01*
X6619Y17513D01*
X6613Y17511D01*
X5518D01*
X5499Y17530D01*
X5498Y17534D01*
X5494Y17536D01*
X5493Y17539D01*
X5486Y17546D01*
X5482Y17551D01*
X5479Y17555D01*
X5476Y17559D01*
X5475Y17561D01*
X5475Y17562D01*
X5475Y17562D01*
X5474Y17563D01*
X5474Y17564D01*
X5473Y17565D01*
X5473Y17566D01*
X5473Y17566D01*
X5474Y17574D01*
X5462Y17636D01*
X5427Y17688D01*
X5375Y17723D01*
X5314Y17735D01*
D02*
G37*
G36*
X17064Y17151D02*
X17002Y17138D01*
X16950Y17104D01*
X16915Y17052D01*
X16903Y16990D01*
X16915Y16929D01*
X16950Y16877D01*
X17002Y16842D01*
X17064Y16830D01*
X17125Y16842D01*
X17177Y16877D01*
X17212Y16929D01*
X17224Y16990D01*
X17212Y17052D01*
X17177Y17104D01*
X17125Y17138D01*
X17064Y17151D01*
D02*
G37*
G36*
X19029Y17140D02*
X18968Y17127D01*
X18916Y17093D01*
X18881Y17040D01*
X18874Y17009D01*
X18832Y16966D01*
X18771Y16954D01*
X18719Y16919D01*
X18684Y16867D01*
X18672Y16806D01*
X18681Y16756D01*
X18659Y16724D01*
X18645Y16713D01*
X18634Y16715D01*
X18572Y16703D01*
X18520Y16668D01*
X18485Y16616D01*
X18473Y16554D01*
X18485Y16493D01*
X18520Y16441D01*
X18572Y16406D01*
X18634Y16394D01*
X18695Y16406D01*
X18747Y16441D01*
X18782Y16493D01*
X18794Y16554D01*
X18784Y16604D01*
X18807Y16636D01*
X18821Y16647D01*
X18832Y16645D01*
X18894Y16657D01*
X18946Y16692D01*
X18981Y16744D01*
X18987Y16776D01*
X19029Y16818D01*
X19090Y16831D01*
X19143Y16865D01*
X19177Y16918D01*
X19190Y16979D01*
X19177Y17040D01*
X19143Y17093D01*
X19090Y17127D01*
X19029Y17140D01*
D02*
G37*
G36*
X6964Y17035D02*
X6902Y17023D01*
X6850Y16988D01*
X6815Y16936D01*
X6803Y16874D01*
X6815Y16813D01*
X6850Y16761D01*
X6902Y16726D01*
X6964Y16714D01*
X7025Y16726D01*
X7068Y16755D01*
X7069Y16755D01*
X7070Y16755D01*
X7072Y16755D01*
X7073Y16756D01*
X7074Y16756D01*
X7075Y16757D01*
X7076Y16757D01*
X7078Y16758D01*
X7081Y16758D01*
X7085Y16759D01*
X7100Y16760D01*
X7109Y16760D01*
X7115Y16763D01*
X8433D01*
X8437Y16761D01*
X8440Y16761D01*
X8442Y16760D01*
X8460Y16760D01*
X8465Y16759D01*
X8469Y16758D01*
X8472Y16758D01*
X8473Y16757D01*
X8473Y16757D01*
X8474Y16757D01*
X8475Y16756D01*
X8476Y16756D01*
X8477Y16756D01*
X8477Y16756D01*
X8477Y16756D01*
X8480Y16751D01*
X8532Y16716D01*
X8594Y16704D01*
X8655Y16716D01*
X8707Y16751D01*
X8742Y16803D01*
X8754Y16864D01*
X8742Y16926D01*
X8707Y16978D01*
X8655Y17013D01*
X8594Y17025D01*
X8532Y17013D01*
X8505Y16995D01*
X8501Y16994D01*
X8498Y16993D01*
X8497Y16993D01*
X8497Y16993D01*
X8496Y16993D01*
X8494Y16992D01*
X8494Y16992D01*
X8493Y16992D01*
X8493Y16992D01*
X8493Y16991D01*
X8490Y16991D01*
X8487Y16990D01*
X8464Y16988D01*
X8456Y16988D01*
X8449Y16985D01*
X7116D01*
X7110Y16988D01*
X7092Y16989D01*
X7086Y16989D01*
X7081Y16990D01*
X7078Y16991D01*
X7076Y16992D01*
X7075Y16992D01*
X7074Y16993D01*
X7073Y16993D01*
X7072Y16993D01*
X7070Y16993D01*
X7069Y16994D01*
X7068Y16994D01*
X7025Y17023D01*
X6964Y17035D01*
D02*
G37*
G36*
X7024Y16232D02*
X6962Y16219D01*
X6910Y16185D01*
X6875Y16132D01*
X6863Y16071D01*
X6875Y16010D01*
X6910Y15957D01*
X6962Y15923D01*
X7024Y15910D01*
X7085Y15923D01*
X7137Y15957D01*
X7172Y16010D01*
X7184Y16071D01*
X7172Y16132D01*
X7137Y16185D01*
X7085Y16219D01*
X7024Y16232D01*
D02*
G37*
G36*
X13528Y22402D02*
X13466Y22390D01*
X13414Y22355D01*
X13379Y22303D01*
X13367Y22242D01*
X13379Y22180D01*
X13414Y22128D01*
X13466Y22093D01*
X13528Y22081D01*
X13573Y22090D01*
X13583Y22085D01*
X13608Y22059D01*
X13613Y22051D01*
X13603Y22004D01*
X13615Y21943D01*
X13645Y21898D01*
X13648Y21890D01*
X13652Y21887D01*
X13653Y21885D01*
X13654Y21883D01*
X13655Y21881D01*
X13657Y21878D01*
X13658Y21875D01*
X13658Y21871D01*
X13659Y21867D01*
X13660Y21861D01*
X13660Y21853D01*
X13663Y21847D01*
Y16624D01*
X13274Y16235D01*
X13267Y16232D01*
X13261Y16227D01*
X13257Y16224D01*
X13254Y16221D01*
X13250Y16219D01*
X13247Y16217D01*
X13245Y16216D01*
X13242Y16216D01*
X13240Y16215D01*
X13238Y16215D01*
X13233Y16215D01*
X13225Y16211D01*
X13173Y16201D01*
X13120Y16166D01*
X13086Y16114D01*
X13073Y16052D01*
X13086Y15991D01*
X13120Y15939D01*
X13173Y15904D01*
X13234Y15892D01*
X13295Y15904D01*
X13348Y15939D01*
X13382Y15991D01*
X13393Y16043D01*
X13396Y16051D01*
X13396Y16056D01*
X13397Y16058D01*
X13397Y16061D01*
X13398Y16063D01*
X13399Y16066D01*
X13401Y16069D01*
X13403Y16072D01*
X13405Y16076D01*
X13409Y16080D01*
X13414Y16085D01*
X13417Y16092D01*
X13835Y16511D01*
X13857Y16543D01*
X13865Y16582D01*
Y21847D01*
X13868Y21853D01*
X13868Y21861D01*
X13868Y21867D01*
X13869Y21871D01*
X13870Y21875D01*
X13871Y21878D01*
X13872Y21881D01*
X13873Y21883D01*
X13875Y21885D01*
X13876Y21887D01*
X13879Y21890D01*
X13882Y21898D01*
X13912Y21943D01*
X13924Y22004D01*
X13912Y22066D01*
X13877Y22118D01*
X13825Y22153D01*
X13764Y22165D01*
X13718Y22156D01*
X13708Y22162D01*
X13683Y22187D01*
X13679Y22195D01*
X13688Y22242D01*
X13676Y22303D01*
X13641Y22355D01*
X13589Y22390D01*
X13528Y22402D01*
D02*
G37*
G36*
X15694Y16195D02*
X15632Y16183D01*
X15580Y16148D01*
X15545Y16096D01*
X15533Y16034D01*
X15545Y15973D01*
X15580Y15921D01*
X15632Y15886D01*
X15694Y15874D01*
X15755Y15886D01*
X15807Y15921D01*
X15842Y15973D01*
X15854Y16034D01*
X15842Y16096D01*
X15807Y16148D01*
X15755Y16183D01*
X15694Y16195D01*
D02*
G37*
G36*
X15304D02*
X15242Y16183D01*
X15190Y16148D01*
X15155Y16096D01*
X15143Y16034D01*
X15155Y15973D01*
X15190Y15921D01*
X15242Y15886D01*
X15304Y15874D01*
X15365Y15886D01*
X15417Y15921D01*
X15452Y15973D01*
X15464Y16034D01*
X15452Y16096D01*
X15417Y16148D01*
X15365Y16183D01*
X15304Y16195D01*
D02*
G37*
G36*
X14714Y16185D02*
X14652Y16173D01*
X14600Y16138D01*
X14565Y16086D01*
X14553Y16024D01*
X14565Y15963D01*
X14600Y15911D01*
X14652Y15876D01*
X14714Y15864D01*
X14775Y15876D01*
X14827Y15911D01*
X14862Y15963D01*
X14874Y16024D01*
X14862Y16086D01*
X14827Y16138D01*
X14775Y16173D01*
X14714Y16185D01*
D02*
G37*
G36*
X18434Y15942D02*
X18384Y15932D01*
X18342Y15904D01*
X18313Y15861D01*
X18303Y15811D01*
X18313Y15761D01*
X18342Y15719D01*
X18384Y15691D01*
X18434Y15681D01*
X18457Y15686D01*
X18513Y15661D01*
X18542Y15619D01*
X18584Y15591D01*
X18634Y15581D01*
X18684Y15591D01*
X18695Y15598D01*
X18734Y15616D01*
X18772Y15598D01*
X18784Y15591D01*
X18834Y15581D01*
X18884Y15591D01*
X18895Y15598D01*
X18934Y15616D01*
X18972Y15598D01*
X18984Y15591D01*
X19034Y15581D01*
X19084Y15591D01*
X19126Y15619D01*
X19154Y15661D01*
X19164Y15711D01*
X19154Y15761D01*
X19126Y15804D01*
X19084Y15832D01*
X19034Y15842D01*
X18984Y15832D01*
X18972Y15824D01*
X18934Y15807D01*
X18895Y15824D01*
X18884Y15832D01*
X18834Y15842D01*
X18784Y15832D01*
X18772Y15824D01*
X18734Y15807D01*
X18695Y15824D01*
X18684Y15832D01*
X18634Y15842D01*
X18610Y15837D01*
X18554Y15861D01*
X18526Y15904D01*
X18484Y15932D01*
X18434Y15942D01*
D02*
G37*
G36*
X3774Y16408D02*
X3659Y16393D01*
X3552Y16349D01*
X3460Y16278D01*
X3389Y16186D01*
X3345Y16079D01*
X3330Y15964D01*
X3345Y15849D01*
X3389Y15742D01*
X3460Y15650D01*
X3552Y15580D01*
X3659Y15535D01*
X3774Y15520D01*
X3889Y15535D01*
X3996Y15580D01*
X4088Y15650D01*
X4158Y15742D01*
X4203Y15849D01*
X4218Y15964D01*
X4203Y16079D01*
X4158Y16186D01*
X4088Y16278D01*
X3996Y16349D01*
X3889Y16393D01*
X3774Y16408D01*
D02*
G37*
G36*
X6564Y15795D02*
X6502Y15783D01*
X6450Y15748D01*
X6415Y15696D01*
X6403Y15634D01*
X6415Y15573D01*
X6450Y15521D01*
X6502Y15486D01*
X6564Y15474D01*
X6625Y15486D01*
X6677Y15521D01*
X6712Y15573D01*
X6724Y15634D01*
X6712Y15696D01*
X6677Y15748D01*
X6625Y15783D01*
X6564Y15795D01*
D02*
G37*
G36*
X13904Y15575D02*
X13854Y15565D01*
X13812Y15537D01*
X13783Y15494D01*
X13773Y15444D01*
X13783Y15394D01*
X13812Y15352D01*
X13854Y15324D01*
X13904Y15314D01*
X13954Y15324D01*
X13996Y15352D01*
X14024Y15394D01*
X14034Y15444D01*
X14024Y15494D01*
X13996Y15537D01*
X13954Y15565D01*
X13904Y15575D01*
D02*
G37*
G36*
X8819Y15570D02*
X8758Y15558D01*
X8706Y15523D01*
X8671Y15471D01*
X8659Y15410D01*
X8671Y15348D01*
X8706Y15296D01*
X8758Y15261D01*
X8819Y15249D01*
X8881Y15261D01*
X8933Y15296D01*
X8968Y15348D01*
X8980Y15410D01*
X8968Y15471D01*
X8933Y15523D01*
X8881Y15558D01*
X8819Y15570D01*
D02*
G37*
G36*
X13904Y14825D02*
X13854Y14815D01*
X13812Y14786D01*
X13783Y14744D01*
X13773Y14694D01*
X13783Y14644D01*
X13812Y14602D01*
X13854Y14574D01*
X13904Y14564D01*
X13954Y14574D01*
X13996Y14602D01*
X14024Y14644D01*
X14034Y14694D01*
X14024Y14744D01*
X13996Y14786D01*
X13954Y14815D01*
X13904Y14825D01*
D02*
G37*
G36*
X6360Y14267D02*
X6298Y14255D01*
X6246Y14220D01*
X6211Y14168D01*
X6199Y14107D01*
X6211Y14045D01*
X6246Y13993D01*
X6298Y13958D01*
X6360Y13946D01*
X6421Y13958D01*
X6473Y13993D01*
X6508Y14045D01*
X6520Y14107D01*
X6508Y14168D01*
X6473Y14220D01*
X6421Y14255D01*
X6360Y14267D01*
D02*
G37*
G36*
X13904Y14044D02*
X13854Y14034D01*
X13812Y14006D01*
X13783Y13964D01*
X13773Y13914D01*
X13783Y13864D01*
X13812Y13822D01*
X13854Y13793D01*
X13904Y13783D01*
X13954Y13793D01*
X13996Y13822D01*
X14024Y13864D01*
X14034Y13914D01*
X14024Y13964D01*
X13996Y14006D01*
X13954Y14034D01*
X13904Y14044D01*
D02*
G37*
G36*
X9334Y14579D02*
X9252Y14563D01*
X9183Y14517D01*
X8959Y14293D01*
X8913Y14224D01*
X8897Y14142D01*
X8897Y14142D01*
Y13642D01*
X8913Y13560D01*
X8959Y13491D01*
X9028Y13445D01*
X9110Y13429D01*
X9191Y13445D01*
X9261Y13491D01*
X9307Y13560D01*
X9323Y13642D01*
Y14054D01*
X9485Y14215D01*
X9531Y14284D01*
X9547Y14366D01*
X9531Y14448D01*
X9485Y14517D01*
X9415Y14563D01*
X9334Y14579D01*
D02*
G37*
G36*
X5798Y13825D02*
X5728Y13816D01*
X5663Y13789D01*
X5608Y13746D01*
X5565Y13690D01*
X5538Y13625D01*
X5529Y13555D01*
X5538Y13486D01*
X5565Y13421D01*
X5608Y13365D01*
X5663Y13322D01*
X5728Y13295D01*
X5798Y13286D01*
X5868Y13295D01*
X5933Y13322D01*
X5989Y13365D01*
X6031Y13421D01*
X6058Y13486D01*
X6068Y13555D01*
X6058Y13625D01*
X6031Y13690D01*
X5989Y13746D01*
X5933Y13789D01*
X5868Y13816D01*
X5798Y13825D01*
D02*
G37*
G36*
X3121D02*
X3051Y13816D01*
X2986Y13789D01*
X2930Y13746D01*
X2888Y13690D01*
X2861Y13625D01*
X2851Y13555D01*
X2861Y13486D01*
X2888Y13421D01*
X2930Y13365D01*
X2986Y13322D01*
X3051Y13295D01*
X3121Y13286D01*
X3191Y13295D01*
X3256Y13322D01*
X3311Y13365D01*
X3354Y13421D01*
X3381Y13486D01*
X3390Y13555D01*
X3381Y13625D01*
X3354Y13690D01*
X3311Y13746D01*
X3256Y13789D01*
X3191Y13816D01*
X3121Y13825D01*
D02*
G37*
G36*
X16343Y12303D02*
X16293Y12293D01*
X16251Y12265D01*
X16223Y12222D01*
X16213Y12172D01*
X16223Y12122D01*
X16251Y12080D01*
X16293Y12052D01*
X16343Y12042D01*
X16393Y12052D01*
X16435Y12080D01*
X16464Y12122D01*
X16474Y12172D01*
X16464Y12222D01*
X16435Y12265D01*
X16393Y12293D01*
X16343Y12303D01*
D02*
G37*
G36*
X18304Y11055D02*
X18254Y11045D01*
X18212Y11017D01*
X18183Y10974D01*
X18173Y10924D01*
X18183Y10874D01*
X18212Y10832D01*
X18254Y10804D01*
X18304Y10794D01*
X18354Y10804D01*
X18396Y10832D01*
X18424Y10874D01*
X18434Y10924D01*
X18424Y10974D01*
X18396Y11017D01*
X18354Y11045D01*
X18304Y11055D01*
D02*
G37*
G36*
X17343D02*
X17293Y11045D01*
X17251Y11017D01*
X17223Y10974D01*
X17213Y10924D01*
X17223Y10874D01*
X17251Y10832D01*
X17293Y10804D01*
X17343Y10794D01*
X17393Y10804D01*
X17435Y10832D01*
X17464Y10874D01*
X17474Y10924D01*
X17464Y10974D01*
X17435Y11017D01*
X17393Y11045D01*
X17343Y11055D01*
D02*
G37*
G36*
X16383D02*
X16333Y11045D01*
X16290Y11017D01*
X16262Y10974D01*
X16252Y10924D01*
X16262Y10874D01*
X16290Y10832D01*
X16333Y10804D01*
X16383Y10794D01*
X16433Y10804D01*
X16475Y10832D01*
X16503Y10874D01*
X16513Y10924D01*
X16503Y10974D01*
X16475Y11017D01*
X16433Y11045D01*
X16383Y11055D01*
D02*
G37*
%LPD*%
G36*
X7979Y18660D02*
X7976Y18655D01*
X7973Y18650D01*
X7971Y18643D01*
X7969Y18636D01*
X7967Y18629D01*
X7965Y18620D01*
X7965Y18611D01*
X7964Y18590D01*
X7864D01*
X7864Y18601D01*
X7862Y18620D01*
X7861Y18629D01*
X7859Y18636D01*
X7857Y18643D01*
X7855Y18650D01*
X7852Y18655D01*
X7848Y18660D01*
X7845Y18664D01*
X7983D01*
X7979Y18660D01*
D02*
G37*
G36*
X8861Y16541D02*
X8854Y16533D01*
X8842Y16518D01*
X8837Y16512D01*
X8834Y16505D01*
X8831Y16499D01*
X8830Y16493D01*
X8829Y16487D01*
X8829Y16481D01*
X8831Y16476D01*
X8707Y16538D01*
X8711Y16539D01*
X8714Y16541D01*
X8718Y16544D01*
X8723Y16547D01*
X8734Y16556D01*
X8754Y16575D01*
X8762Y16583D01*
X8861Y16541D01*
D02*
G37*
G36*
X6527Y20038D02*
X6522Y20032D01*
X6518Y20025D01*
X6514Y20018D01*
X6511Y20010D01*
X6508Y20002D01*
X6506Y19994D01*
X6505Y19985D01*
X6504Y19975D01*
X6504Y19965D01*
X6424D01*
X6423Y19975D01*
X6423Y19985D01*
X6421Y19994D01*
X6419Y20002D01*
X6417Y20010D01*
X6413Y20018D01*
X6410Y20025D01*
X6405Y20032D01*
X6400Y20038D01*
X6395Y20044D01*
X6533D01*
X6527Y20038D01*
D02*
G37*
G36*
X5734Y18041D02*
X5741Y18035D01*
X5749Y18030D01*
X5756Y18025D01*
X5764Y18021D01*
X5771Y18018D01*
X5779Y18016D01*
X5787Y18014D01*
X5795Y18013D01*
X5803Y18013D01*
X5705Y17915D01*
X5705Y17923D01*
X5704Y17931D01*
X5702Y17939D01*
X5700Y17947D01*
X5697Y17954D01*
X5693Y17962D01*
X5688Y17970D01*
X5683Y17977D01*
X5677Y17984D01*
X5670Y17991D01*
X5727Y18048D01*
X5734Y18041D01*
D02*
G37*
G36*
X5411Y17556D02*
X5412Y17550D01*
X5413Y17544D01*
X5415Y17538D01*
X5418Y17531D01*
X5422Y17524D01*
X5427Y17518D01*
X5433Y17510D01*
X5439Y17503D01*
X5447Y17495D01*
X5366Y17435D01*
X5358Y17442D01*
X5337Y17460D01*
X5331Y17465D01*
X5324Y17468D01*
X5319Y17472D01*
X5313Y17474D01*
X5308Y17476D01*
X5303Y17476D01*
X5411Y17561D01*
X5411Y17556D01*
D02*
G37*
G36*
X6693Y17330D02*
X6689Y17334D01*
X6685Y17337D01*
X6679Y17340D01*
X6673Y17343D01*
X6666Y17345D01*
X6658Y17346D01*
X6650Y17348D01*
X6640Y17349D01*
X6620Y17349D01*
Y17449D01*
X6631Y17450D01*
X6650Y17451D01*
X6658Y17452D01*
X6666Y17454D01*
X6673Y17456D01*
X6679Y17459D01*
X6685Y17462D01*
X6689Y17465D01*
X6693Y17468D01*
Y17330D01*
D02*
G37*
G36*
X7038Y16940D02*
X7043Y16936D01*
X7048Y16934D01*
X7055Y16931D01*
X7062Y16929D01*
X7069Y16927D01*
X7078Y16926D01*
X7087Y16925D01*
X7108Y16924D01*
Y16824D01*
X7097Y16824D01*
X7078Y16823D01*
X7069Y16821D01*
X7062Y16820D01*
X7055Y16817D01*
X7048Y16815D01*
X7043Y16812D01*
X7038Y16809D01*
X7034Y16805D01*
Y16943D01*
X7038Y16940D01*
D02*
G37*
G36*
X8517Y16803D02*
X8513Y16807D01*
X8509Y16811D01*
X8503Y16814D01*
X8497Y16817D01*
X8490Y16819D01*
X8483Y16821D01*
X8474Y16822D01*
X8465Y16823D01*
X8445Y16824D01*
X8457Y16924D01*
X8467Y16924D01*
X8495Y16927D01*
X8503Y16928D01*
X8510Y16930D01*
X8516Y16932D01*
X8522Y16934D01*
X8527Y16937D01*
X8531Y16940D01*
X8517Y16803D01*
D02*
G37*
G36*
X13827Y21928D02*
X13822Y21922D01*
X13818Y21915D01*
X13814Y21908D01*
X13811Y21900D01*
X13808Y21892D01*
X13806Y21884D01*
X13805Y21875D01*
X13804Y21865D01*
X13804Y21855D01*
X13724D01*
X13723Y21865D01*
X13723Y21875D01*
X13721Y21884D01*
X13719Y21892D01*
X13717Y21900D01*
X13713Y21908D01*
X13710Y21915D01*
X13705Y21922D01*
X13700Y21928D01*
X13695Y21934D01*
X13833D01*
X13827Y21928D01*
D02*
G37*
G36*
X13368Y16129D02*
X13361Y16122D01*
X13355Y16115D01*
X13349Y16108D01*
X13345Y16100D01*
X13341Y16093D01*
X13338Y16085D01*
X13335Y16077D01*
X13334Y16069D01*
X13333Y16061D01*
X13332Y16053D01*
X13235Y16151D01*
X13243Y16151D01*
X13251Y16152D01*
X13259Y16154D01*
X13267Y16156D01*
X13274Y16159D01*
X13282Y16163D01*
X13289Y16168D01*
X13297Y16173D01*
X13304Y16179D01*
X13311Y16186D01*
X13368Y16129D01*
D02*
G37*
D10*
X-1743Y16741D02*
X-1393D01*
X-1568Y16916D01*
Y16683D01*
D65*
X7914Y18166D02*
Y18734D01*
Y18166D02*
X8994Y17086D01*
Y16744D02*
Y17086D01*
X8737Y16488D02*
X8994Y16744D01*
X8737Y16444D02*
Y16488D01*
X6964Y16874D02*
X8584D01*
X8594Y16864D01*
X5305Y17566D02*
X5472Y17399D01*
X6764D01*
X5305Y17566D02*
X5314Y17574D01*
X41378Y18166D02*
Y18734D01*
Y18166D02*
X42458Y17086D01*
Y16744D02*
Y17086D01*
X42202Y16488D02*
X42458Y16744D01*
X42202Y16444D02*
Y16488D01*
X40428Y16874D02*
X42048D01*
X42058Y16864D01*
X38770Y17566D02*
X38936Y17399D01*
X40228D01*
X38770Y17566D02*
X38778Y17574D01*
X74843Y18166D02*
Y18734D01*
Y18166D02*
X75923Y17086D01*
Y16744D02*
Y17086D01*
X75667Y16488D02*
X75923Y16744D01*
X75667Y16444D02*
Y16488D01*
X73893Y16874D02*
X75513D01*
X75523Y16864D01*
X72234Y17566D02*
X72401Y17399D01*
X73693D01*
X72234Y17566D02*
X72243Y17574D01*
D66*
X5674Y18044D02*
X5804Y17914D01*
X5674Y18044D02*
Y19424D01*
X17057Y16997D02*
X17064Y16990D01*
X13234Y16052D02*
X13764Y16582D01*
Y22004D01*
X6464Y19627D02*
Y20114D01*
X5674Y19424D02*
X5764Y19514D01*
X39138Y18044D02*
X39268Y17914D01*
X39138Y18044D02*
Y19424D01*
X50521Y16997D02*
X50528Y16990D01*
X46699Y16052D02*
X47228Y16582D01*
Y22004D01*
X39928Y19627D02*
Y20114D01*
X39138Y19424D02*
X39228Y19514D01*
X72603Y18044D02*
X72733Y17914D01*
X72603Y18044D02*
Y19424D01*
X83986Y16997D02*
X83993Y16990D01*
X80163Y16052D02*
X80693Y16582D01*
Y22004D01*
X73393Y19627D02*
Y20114D01*
X72603Y19424D02*
X72693Y19514D01*
D67*
X12284Y22774D02*
X14454D01*
X10174D02*
X12284D01*
X9106Y20794D02*
Y21707D01*
X10174Y22774D01*
X14454D02*
X14974Y22254D01*
X18474D01*
X18712Y22899D02*
Y24094D01*
X45748Y22774D02*
X47918D01*
X43638D02*
X45748D01*
X42571Y20794D02*
Y21707D01*
X43638Y22774D01*
X47918D02*
X48438Y22254D01*
X51938D01*
X52177Y22899D02*
Y24094D01*
X79213Y22774D02*
X81383D01*
X77103D02*
X79213D01*
X76035Y20794D02*
Y21707D01*
X77103Y22774D01*
X81383D02*
X81903Y22254D01*
X85403D01*
X85641Y22899D02*
Y24094D01*
D68*
X5444Y12414D02*
X6184Y11674D01*
X11374D01*
X38908Y12414D02*
X39648Y11674D01*
X44838D01*
X72373Y12414D02*
X73113Y11674D01*
X78303D01*
D71*
X11837Y12138D02*
Y18588D01*
X11374Y11674D02*
X11837Y12138D01*
X11519Y18906D02*
X11837Y18588D01*
X7244Y21328D02*
Y21539D01*
X9110Y14142D02*
X9334Y14366D01*
X9110Y13642D02*
Y14142D01*
X45302Y12138D02*
Y18588D01*
X44838Y11674D02*
X45302Y12138D01*
X44984Y18906D02*
X45302Y18588D01*
X40708Y21328D02*
Y21539D01*
X42574Y14142D02*
X42798Y14366D01*
X42574Y13642D02*
Y14142D01*
X78766Y12138D02*
Y18588D01*
X78303Y11674D02*
X78766Y12138D01*
X78448Y18906D02*
X78766Y18588D01*
X74173Y21328D02*
Y21539D01*
X76039Y14142D02*
X76263Y14366D01*
X76039Y13642D02*
Y14142D01*
D79*
X96743Y-2410D02*
D03*
X1232Y33815D02*
D03*
X96743D02*
D03*
X1232Y-2410D02*
D03*
D80*
X5412Y4823D02*
D03*
X5262Y4973D02*
D03*
X5112Y5123D02*
D03*
X4952Y5283D02*
D03*
X4812Y5423D02*
D03*
X772Y15180D02*
D03*
X772Y15392D02*
D03*
Y15604D02*
D03*
X772Y15831D02*
D03*
Y16029D02*
D03*
X4812Y25786D02*
D03*
X4962Y25936D02*
D03*
X5112Y26086D02*
D03*
X5272Y26246D02*
D03*
X5412Y26386D02*
D03*
X15170Y30426D02*
D03*
X15382Y30426D02*
D03*
X15594D02*
D03*
X15820Y30426D02*
D03*
X16018D02*
D03*
X25775Y26386D02*
D03*
X25925Y26236D02*
D03*
X26075Y26086D02*
D03*
X26235Y25926D02*
D03*
X26375Y25786D02*
D03*
X30416Y16029D02*
D03*
X30416Y15816D02*
D03*
Y15604D02*
D03*
X30416Y15378D02*
D03*
Y15180D02*
D03*
X26375Y5423D02*
D03*
X26225Y5273D02*
D03*
X26075Y5123D02*
D03*
X25915Y4963D02*
D03*
X25775Y4823D02*
D03*
X15170Y782D02*
D03*
X15368D02*
D03*
X15594D02*
D03*
X15806D02*
D03*
X16018D02*
D03*
X38877Y4823D02*
D03*
X38727Y4973D02*
D03*
X38577Y5123D02*
D03*
X38417Y5283D02*
D03*
X38277Y5423D02*
D03*
X34236Y15180D02*
D03*
X34236Y15392D02*
D03*
Y15604D02*
D03*
X34236Y15831D02*
D03*
Y16029D02*
D03*
X38277Y25786D02*
D03*
X38427Y25936D02*
D03*
X38577Y26086D02*
D03*
X38737Y26246D02*
D03*
X38877Y26386D02*
D03*
X48634Y30426D02*
D03*
X48846Y30426D02*
D03*
X49058D02*
D03*
X49285Y30426D02*
D03*
X49483D02*
D03*
X59240Y26386D02*
D03*
X59390Y26236D02*
D03*
X59540Y26086D02*
D03*
X59700Y25926D02*
D03*
X59840Y25786D02*
D03*
X63880Y16029D02*
D03*
X63880Y15816D02*
D03*
Y15604D02*
D03*
X63880Y15378D02*
D03*
Y15180D02*
D03*
X59840Y5423D02*
D03*
X59690Y5273D02*
D03*
X59540Y5123D02*
D03*
X59380Y4963D02*
D03*
X59240Y4823D02*
D03*
X48634Y782D02*
D03*
X48832D02*
D03*
X49058D02*
D03*
X49270D02*
D03*
X49483D02*
D03*
X72342Y4823D02*
D03*
X72192Y4973D02*
D03*
X72042Y5123D02*
D03*
X71882Y5283D02*
D03*
X71742Y5423D02*
D03*
X67701Y15180D02*
D03*
X67701Y15392D02*
D03*
Y15604D02*
D03*
X67701Y15831D02*
D03*
Y16029D02*
D03*
X71742Y25786D02*
D03*
X71892Y25936D02*
D03*
X72042Y26086D02*
D03*
X72202Y26246D02*
D03*
X72342Y26386D02*
D03*
X82099Y30426D02*
D03*
X82311Y30426D02*
D03*
X82523D02*
D03*
X82749Y30426D02*
D03*
X82947D02*
D03*
X92704Y26386D02*
D03*
X92854Y26236D02*
D03*
X93004Y26086D02*
D03*
X93164Y25926D02*
D03*
X93304Y25786D02*
D03*
X97345Y16029D02*
D03*
X97345Y15816D02*
D03*
Y15604D02*
D03*
X97345Y15378D02*
D03*
Y15180D02*
D03*
X93304Y5423D02*
D03*
X93154Y5273D02*
D03*
X93004Y5123D02*
D03*
X92844Y4963D02*
D03*
X92704Y4823D02*
D03*
X82099Y782D02*
D03*
X82297D02*
D03*
X82523D02*
D03*
X82735D02*
D03*
X82947D02*
D03*
D81*
X3774Y15964D02*
D03*
X37238D02*
D03*
X70703D02*
D03*
D82*
X3121Y13555D02*
D03*
X5798D02*
D03*
X36586D02*
D03*
X39263D02*
D03*
X70050D02*
D03*
X72727D02*
D03*
D83*
X9914Y21068D02*
D03*
X10157D02*
D03*
X12320Y19943D02*
D03*
X10817Y19878D02*
D03*
X7914Y18734D02*
D03*
X8737Y16444D02*
D03*
X8819Y15410D02*
D03*
X9124Y17585D02*
D03*
X9344Y17389D02*
D03*
X5662Y17134D02*
D03*
X7924Y19594D02*
D03*
X6564Y15634D02*
D03*
X7024Y16071D02*
D03*
X6360Y14107D02*
D03*
X8594Y16864D02*
D03*
X6964Y16874D02*
D03*
X8126Y16412D02*
D03*
X5314Y17574D02*
D03*
X6764Y17399D02*
D03*
X5804Y17914D02*
D03*
X5044Y19714D02*
D03*
X5314Y20114D02*
D03*
X5444Y12414D02*
D03*
X11374Y11674D02*
D03*
X12284Y22774D02*
D03*
X9106Y20794D02*
D03*
X18474Y22254D02*
D03*
X14714Y16024D02*
D03*
X15304Y16034D02*
D03*
X15694D02*
D03*
X19029Y16979D02*
D03*
X18832Y16806D02*
D03*
X9867Y15668D02*
D03*
X9014Y18906D02*
D03*
X18634Y16554D02*
D03*
X10147Y15668D02*
D03*
X17064Y16990D02*
D03*
X7244Y21328D02*
D03*
X6420Y21564D02*
D03*
X6464Y20114D02*
D03*
X11519Y18906D02*
D03*
X10829Y21135D02*
D03*
X13264Y21754D02*
D03*
X13528Y22242D02*
D03*
X12094Y20694D02*
D03*
X12638Y21387D02*
D03*
X12867Y21216D02*
D03*
X13234Y16052D02*
D03*
X13014Y21554D02*
D03*
X12014Y20954D02*
D03*
X12347Y21171D02*
D03*
X5764Y19514D02*
D03*
X9110Y14142D02*
D03*
X17057Y24314D02*
D03*
X17984Y24304D02*
D03*
X17057Y21726D02*
D03*
X17804Y23559D02*
D03*
X16834Y23454D02*
D03*
X13764Y22004D02*
D03*
X18712Y22899D02*
D03*
X18714Y24064D02*
D03*
X20309Y18330D02*
D03*
X21063D02*
D03*
Y20216D02*
D03*
X22541Y10554D02*
D03*
X25710Y24944D02*
D03*
X21773Y18330D02*
D03*
Y20234D02*
D03*
X43378Y21068D02*
D03*
X43622D02*
D03*
X45785Y19943D02*
D03*
X44282Y19878D02*
D03*
X41378Y18734D02*
D03*
X42202Y16444D02*
D03*
X42284Y15410D02*
D03*
X42588Y17585D02*
D03*
X42808Y17389D02*
D03*
X39127Y17134D02*
D03*
X41388Y19594D02*
D03*
X40028Y15634D02*
D03*
X40488Y16071D02*
D03*
X39824Y14107D02*
D03*
X42058Y16864D02*
D03*
X40428Y16874D02*
D03*
X41591Y16412D02*
D03*
X38778Y17574D02*
D03*
X40228Y17399D02*
D03*
X39268Y17914D02*
D03*
X38508Y19714D02*
D03*
X38778Y20114D02*
D03*
X38908Y12414D02*
D03*
X44838Y11674D02*
D03*
X45748Y22774D02*
D03*
X42571Y20794D02*
D03*
X51938Y22254D02*
D03*
X48178Y16024D02*
D03*
X48768Y16034D02*
D03*
X49158D02*
D03*
X52494Y16979D02*
D03*
X52297Y16806D02*
D03*
X43331Y15668D02*
D03*
X42478Y18906D02*
D03*
X52098Y16554D02*
D03*
X43612Y15668D02*
D03*
X50528Y16990D02*
D03*
X40708Y21328D02*
D03*
X39884Y21564D02*
D03*
X39928Y20114D02*
D03*
X44984Y18906D02*
D03*
X44294Y21135D02*
D03*
X46728Y21754D02*
D03*
X46992Y22242D02*
D03*
X45558Y20694D02*
D03*
X46103Y21387D02*
D03*
X46331Y21216D02*
D03*
X46699Y16052D02*
D03*
X46478Y21554D02*
D03*
X45478Y20954D02*
D03*
X45811Y21171D02*
D03*
X39228Y19514D02*
D03*
X42574Y14142D02*
D03*
X50521Y24314D02*
D03*
X51448Y24304D02*
D03*
X50521Y21726D02*
D03*
X51269Y23559D02*
D03*
X50298Y23454D02*
D03*
X47228Y22004D02*
D03*
X52177Y22899D02*
D03*
X52178Y24064D02*
D03*
X53773Y18330D02*
D03*
X54528D02*
D03*
Y20216D02*
D03*
X56006Y10554D02*
D03*
X59175Y24944D02*
D03*
X55238Y18330D02*
D03*
Y20234D02*
D03*
X76843Y21068D02*
D03*
X77086D02*
D03*
X79250Y19943D02*
D03*
X77746Y19878D02*
D03*
X74843Y18734D02*
D03*
X75667Y16444D02*
D03*
X75748Y15410D02*
D03*
X76053Y17585D02*
D03*
X76273Y17389D02*
D03*
X72591Y17134D02*
D03*
X74853Y19594D02*
D03*
X73493Y15634D02*
D03*
X73953Y16071D02*
D03*
X73289Y14107D02*
D03*
X75523Y16864D02*
D03*
X73893Y16874D02*
D03*
X75055Y16412D02*
D03*
X72243Y17574D02*
D03*
X73693Y17399D02*
D03*
X72733Y17914D02*
D03*
X71973Y19714D02*
D03*
X72243Y20114D02*
D03*
X72373Y12414D02*
D03*
X78303Y11674D02*
D03*
X79213Y22774D02*
D03*
X76035Y20794D02*
D03*
X85403Y22254D02*
D03*
X81643Y16024D02*
D03*
X82233Y16034D02*
D03*
X82623D02*
D03*
X85958Y16979D02*
D03*
X85761Y16806D02*
D03*
X76796Y15668D02*
D03*
X75943Y18906D02*
D03*
X85563Y16554D02*
D03*
X77076Y15668D02*
D03*
X83993Y16990D02*
D03*
X74173Y21328D02*
D03*
X73349Y21564D02*
D03*
X73393Y20114D02*
D03*
X78448Y18906D02*
D03*
X77758Y21135D02*
D03*
X80193Y21754D02*
D03*
X80457Y22242D02*
D03*
X79023Y20694D02*
D03*
X79567Y21387D02*
D03*
X79796Y21216D02*
D03*
X80163Y16052D02*
D03*
X79943Y21554D02*
D03*
X78943Y20954D02*
D03*
X79276Y21171D02*
D03*
X72693Y19514D02*
D03*
X76039Y14142D02*
D03*
X83986Y24314D02*
D03*
X84913Y24304D02*
D03*
X83986Y21726D02*
D03*
X84734Y23559D02*
D03*
X83763Y23454D02*
D03*
X80693Y22004D02*
D03*
X85641Y22899D02*
D03*
X85643Y24064D02*
D03*
X87238Y18330D02*
D03*
X87992D02*
D03*
Y20216D02*
D03*
X89470Y10554D02*
D03*
X92639Y24944D02*
D03*
X88702Y18330D02*
D03*
Y20234D02*
D03*
D84*
X18304Y10924D02*
D03*
X17343D02*
D03*
X16383D02*
D03*
X16343Y12172D02*
D03*
X19034Y15711D02*
D03*
X18834D02*
D03*
X18434Y15811D02*
D03*
X18634Y15711D02*
D03*
X11559Y16655D02*
D03*
X11362D02*
D03*
X11165D02*
D03*
X13904Y14694D02*
D03*
X13904Y15444D02*
D03*
X13904Y13914D02*
D03*
X17897Y25992D02*
D03*
X17984Y24914D02*
D03*
X51768Y10924D02*
D03*
X50808D02*
D03*
X49847D02*
D03*
X49808Y12172D02*
D03*
X52498Y15711D02*
D03*
X52298D02*
D03*
X51898Y15811D02*
D03*
X52098Y15711D02*
D03*
X45024Y16655D02*
D03*
X44827D02*
D03*
X44630D02*
D03*
X47368Y14694D02*
D03*
X47368Y15444D02*
D03*
X47368Y13914D02*
D03*
X51361Y25992D02*
D03*
X51448Y24914D02*
D03*
X85233Y10924D02*
D03*
X84272D02*
D03*
X83312D02*
D03*
X83272Y12172D02*
D03*
X85963Y15711D02*
D03*
X85763D02*
D03*
X85363Y15811D02*
D03*
X85563Y15711D02*
D03*
X78488Y16655D02*
D03*
X78291D02*
D03*
X78095D02*
D03*
X80833Y14694D02*
D03*
X80833Y15444D02*
D03*
X80833Y13914D02*
D03*
X84826Y25992D02*
D03*
X84913Y24914D02*
D03*
D85*
X10157Y15678D02*
Y21068D01*
X43622Y15678D02*
Y21068D01*
X77086Y15678D02*
Y21068D01*
D86*
X21324Y18764D02*
D03*
X54788D02*
D03*
X88253D02*
D03*
D87*
X23323Y24294D02*
D03*
X56788D02*
D03*
X90252D02*
D03*
M02*
