G04*
G04 #@! TF.GenerationSoftware,Altium Limited,Altium Designer,19.1.7 (138)*
G04*
G04 Layer_Color=32768*
%FSLAX24Y24*%
%MOIN*%
G70*
G01*
G75*
%ADD66C,0.0080*%
D66*
X26019Y27143D02*
G03*
X16397Y31133I-10424J-11540D01*
G01*
X25475Y26573D02*
G03*
X16404Y30344I-9881J-10970D01*
G01*
X31125Y16392D02*
G03*
X27143Y26017I-15531J-789D01*
G01*
X30337Y16373D02*
G03*
X26590Y25455I-14744J-770D01*
G01*
X27133Y5179D02*
G03*
X31123Y14801I-11540J10424D01*
G01*
X26562Y5723D02*
G03*
X30334Y14794I-10970J9881D01*
G01*
X16382Y73D02*
G03*
X26007Y4055I-789J15531D01*
G01*
X16363Y861D02*
G03*
X25444Y4608I-770J14744D01*
G01*
X5169Y4065D02*
G03*
X14790Y75I10424J11540D01*
G01*
X5712Y4636D02*
G03*
X14784Y864I9881J10970D01*
G01*
X64Y14794D02*
G03*
X4044Y5191I15530J811D01*
G01*
X850Y14835D02*
G03*
X4598Y5754I14744J770D01*
G01*
X4055Y26029D02*
G03*
X65Y16408I11540J-10424D01*
G01*
X4625Y25486D02*
G03*
X854Y16414I10970J-9881D01*
G01*
X27147Y26012D02*
G03*
X26590Y25455I-278J-278D01*
G01*
X25475Y26573D02*
G03*
X26017Y27141I248J306D01*
G01*
X31121Y14794D02*
G03*
X30334Y14794I-394J0D01*
G01*
X30336Y16373D02*
G03*
X31121Y16392I392J41D01*
G01*
X26006Y4056D02*
G03*
X25444Y4608I-283J274D01*
G01*
X26562Y5723D02*
G03*
X27131Y5181I306J-248D01*
G01*
X4045Y5192D02*
G03*
X4598Y5754I274J283D01*
G01*
X5712Y4636D02*
G03*
X5171Y4067I-248J-306D01*
G01*
X66Y16408D02*
G03*
X854Y16414I394J7D01*
G01*
X852Y14835D02*
G03*
X66Y14794I-392J-41D01*
G01*
X5181Y27152D02*
G03*
X5743Y26600I284J-273D01*
G01*
X4625Y25486D02*
G03*
X4057Y26027I-306J248D01*
G01*
X16404Y31132D02*
G03*
X16404Y30344I0J-394D01*
G01*
X14824Y30346D02*
G03*
X14805Y31131I-40J392D01*
G01*
X16363Y862D02*
G03*
X16382Y77I41J-392D01*
G01*
X14790Y77D02*
G03*
X14784Y864I-7J394D01*
G01*
X14824Y30348D02*
G03*
X5742Y26600I770J-14744D01*
G01*
X14805Y31136D02*
G03*
X5179Y27154I789J-15531D01*
G01*
X59483Y27143D02*
G03*
X49862Y31133I-10424J-11540D01*
G01*
X58940Y26573D02*
G03*
X49868Y30344I-9881J-10970D01*
G01*
X64590Y16392D02*
G03*
X60608Y26017I-15531J-789D01*
G01*
X63802Y16373D02*
G03*
X60054Y25455I-14744J-770D01*
G01*
X60597Y5179D02*
G03*
X64588Y14801I-11540J10424D01*
G01*
X60027Y5723D02*
G03*
X63798Y14794I-10970J9881D01*
G01*
X49846Y73D02*
G03*
X59472Y4055I-789J15531D01*
G01*
X49827Y861D02*
G03*
X58909Y4608I-770J14744D01*
G01*
X38633Y4065D02*
G03*
X48255Y75I10424J11540D01*
G01*
X39177Y4636D02*
G03*
X48248Y864I9881J10970D01*
G01*
X33528Y14794D02*
G03*
X37509Y5191I15530J811D01*
G01*
X34315Y14835D02*
G03*
X38062Y5754I14744J770D01*
G01*
X37520Y26029D02*
G03*
X33529Y16408I11540J-10424D01*
G01*
X38090Y25486D02*
G03*
X34318Y16414I10970J-9881D01*
G01*
X60611Y26012D02*
G03*
X60054Y25455I-278J-278D01*
G01*
X58940Y26573D02*
G03*
X59481Y27141I248J306D01*
G01*
X64586Y14794D02*
G03*
X63798Y14794I-394J0D01*
G01*
X63800Y16373D02*
G03*
X64585Y16392I392J41D01*
G01*
X59470Y4056D02*
G03*
X58909Y4608I-283J274D01*
G01*
X60027Y5723D02*
G03*
X60595Y5181I306J-248D01*
G01*
X37510Y5192D02*
G03*
X38062Y5754I274J283D01*
G01*
X39177Y4636D02*
G03*
X38635Y4067I-248J-306D01*
G01*
X33531Y16408D02*
G03*
X34318Y16414I394J7D01*
G01*
X34316Y14835D02*
G03*
X33531Y14794I-392J-41D01*
G01*
X38646Y27152D02*
G03*
X39208Y26600I284J-273D01*
G01*
X38090Y25486D02*
G03*
X37522Y26027I-306J248D01*
G01*
X49868Y31132D02*
G03*
X49868Y30344I0J-394D01*
G01*
X48288Y30346D02*
G03*
X48269Y31131I-40J392D01*
G01*
X49827Y862D02*
G03*
X49847Y77I41J-392D01*
G01*
X48255Y77D02*
G03*
X48248Y864I-7J394D01*
G01*
X48288Y30348D02*
G03*
X39207Y26600I770J-14744D01*
G01*
X48269Y31136D02*
G03*
X38644Y27154I789J-15531D01*
G01*
X92948Y27143D02*
G03*
X83326Y31133I-10424J-11540D01*
G01*
X92404Y26573D02*
G03*
X83333Y30344I-9881J-10970D01*
G01*
X98054Y16392D02*
G03*
X94072Y26017I-15531J-789D01*
G01*
X97267Y16373D02*
G03*
X93519Y25455I-14744J-770D01*
G01*
X94062Y5179D02*
G03*
X98052Y14801I-11540J10424D01*
G01*
X93491Y5723D02*
G03*
X97263Y14794I-10970J9881D01*
G01*
X83311Y73D02*
G03*
X92936Y4055I-789J15531D01*
G01*
X83292Y861D02*
G03*
X92373Y4608I-770J14744D01*
G01*
X72098Y4065D02*
G03*
X81720Y75I10424J11540D01*
G01*
X72641Y4636D02*
G03*
X81713Y864I9881J10970D01*
G01*
X66993Y14794D02*
G03*
X70974Y5191I15530J811D01*
G01*
X67779Y14835D02*
G03*
X71527Y5754I14744J770D01*
G01*
X70984Y26029D02*
G03*
X66994Y16408I11540J-10424D01*
G01*
X71555Y25486D02*
G03*
X67783Y16414I10970J-9881D01*
G01*
X94076Y26012D02*
G03*
X93519Y25455I-278J-278D01*
G01*
X92404Y26573D02*
G03*
X92946Y27141I248J306D01*
G01*
X98051Y14794D02*
G03*
X97263Y14794I-394J0D01*
G01*
X97265Y16373D02*
G03*
X98050Y16392I392J41D01*
G01*
X92935Y4056D02*
G03*
X92373Y4608I-283J274D01*
G01*
X93491Y5723D02*
G03*
X94060Y5181I306J-248D01*
G01*
X70975Y5192D02*
G03*
X71527Y5754I274J283D01*
G01*
X72642Y4636D02*
G03*
X72100Y4067I-248J-306D01*
G01*
X66995Y16408D02*
G03*
X67783Y16414I394J7D01*
G01*
X67781Y14835D02*
G03*
X66995Y14794I-392J-41D01*
G01*
X72110Y27152D02*
G03*
X72672Y26600I284J-273D01*
G01*
X71555Y25486D02*
G03*
X70986Y26027I-306J248D01*
G01*
X83333Y31132D02*
G03*
X83333Y30344I0J-394D01*
G01*
X81753Y30346D02*
G03*
X81734Y31131I-40J392D01*
G01*
X83292Y862D02*
G03*
X83311Y77I41J-392D01*
G01*
X81720Y77D02*
G03*
X81713Y864I-7J394D01*
G01*
X81753Y30348D02*
G03*
X72671Y26600I770J-14744D01*
G01*
X81734Y31136D02*
G03*
X72109Y27154I789J-15531D01*
G01*
M02*
