M48
;Layer_Color=9474304
;FILE_FORMAT=2:4
INCH,LZ
;TYPE=PLATED
T1F00S00C0.0059
T2F00S00C0.0098
;TYPE=NON_PLATED
T3F00S00C0.0118
T4F00S00C0.0354
T5F00S00C0.0701
T6F00S00C0.1181
%
T01
X016383Y010924
X017343
X016343Y012172
X013904Y013914
Y014694
X018304Y010924
X047368Y013914
Y014694
X049808Y012172
X049847Y010924
X050808
X051768
X083312
X084272
X085233
X083272Y012172
X080833Y013914
Y014694
X080833Y015444
X085363Y015811
X085563Y015711
X085763
X085963
X084913Y024914
X084826Y025992
X078488Y016655
X078291
X078095
X052498Y015711
X052298
X052098
X051898Y015811
X051448Y024914
X051361Y025992
X047368Y015444
X045024Y016655
X044827
X04463
X019034Y015711
X018834
X018634
X018434Y015811
X017984Y024914
X017897Y025992
X013904Y015444
X011559Y016655
X011362
X011165
T02
X005444Y012414
X00636Y014107
X00911Y014142
X011374Y011674
X022541Y010554
X038908Y012414
X039824Y014107
X042574Y014142
X044838Y011674
X056006Y010554
X072373Y012414
X073289Y014107
X076039Y014142
X078303Y011674
X08947Y010554
X088702Y01833
X087992
X087238
X085958Y016979
X085761Y016806
X085563Y016554
X083993Y01699
X082623Y016034
X082233
X081643Y016024
X080163Y016052
X079943Y021554
X080193Y021754
X080693Y022004
X080457Y022242
X083986Y021726
X085403Y022254
X085641Y022899
X085643Y024064
X084913Y024304
X084734Y023559
X083763Y023454
X083986Y024314
X087992Y020216
X088702Y020234
X092639Y024944
X079213Y022774
X079276Y021171
X079567Y021387
X079796Y021216
X078943Y020954
X079023Y020694
X07925Y019943
X077746Y019878
X077758Y021135
X077086Y021068
X076843
X076035Y020794
X075943Y018906
X074843Y018734
X074853Y019594
X073393Y020114
X072243Y020114
X071973Y019714
X072693Y019514
X072733Y017914
X072243Y017574
X072591Y017134
X073693Y017399
X073893Y016874
X073953Y016071
X073493Y015634
X075055Y016412
X075667Y016444
X075523Y016864
X076053Y017585
X076273Y017389
X076796Y015668
X077076
X075748Y01541
X078448Y018906
X074173Y021328
X073349Y021564
X059175Y024944
X052178Y024064
X051448Y024304
X051269Y023559
X050298Y023454
X050521Y024314
Y021726
X051938Y022254
X052177Y022899
X054528Y020216
X055238Y020234
Y01833
X054528
X053773
X052494Y016979
X052297Y016806
X052098Y016554
X050528Y01699
X049158Y016034
X048768
X048178Y016024
X046699Y016052
X043612Y015668
X043331
X042284Y01541
X042202Y016444
X042058Y016864
X041591Y016412
X040488Y016071
X040428Y016874
X040228Y017399
X039127Y017134
X038778Y017574
X039268Y017914
X039228Y019514
X038508Y019714
X038778Y020114
X039928Y020114
X039884Y021564
X040708Y021328
X042571Y020794
X043378Y021068
X043622
X044294Y021135
X044282Y019878
X045785Y019943
X045558Y020694
X045478Y020954
X045811Y021171
X046103Y021387
X046331Y021216
X046478Y021554
X046728Y021754
X047228Y022004
X046992Y022242
X045748Y022774
X044984Y018906
X042478
X041378Y018734
X041388Y019594
X042588Y017585
X042808Y017389
X040028Y015634
X021773Y01833
X021063
X020309
X019029Y016979
X018832Y016806
X018634Y016554
X018474Y022254
X018712Y022899
X018714Y024064
X017984Y024304
X017804Y023559
X021063Y020216
X021773Y020234
X02571Y024944
X017057Y024314
X016834Y023454
X017057Y021726
X013764Y022004
X013528Y022242
X013264Y021754
X013014Y021554
X012867Y021216
X012638Y021387
X012347Y021171
X012014Y020954
X012094Y020694
X01232Y019943
X010817Y019878
X010829Y021135
X010157Y021068
X009914
X009106Y020794
X009014Y018906
X007914Y018734
X007924Y019594
X006464Y020114
X005314Y020114
X005044Y019714
X005764Y019514
X005804Y017914
X005314Y017574
X005662Y017134
X006764Y017399
X006964Y016874
X007024Y016071
X006564Y015634
X008126Y016412
X008737Y016444
X008594Y016864
X009124Y017585
X009344Y017389
X009867Y015668
X010147
X008819Y01541
X013234Y016052
X014714Y016024
X015304Y016034
X015694
X017064Y01699
X011519Y018906
X012284Y022774
X007244Y021328
X00642Y021564
T03
X000772Y01518
X004812Y005423
X004952Y005283
X005112Y005123
X005262Y004973
X005412Y004823
X01517Y000782
X015368
X015594
X015806
X016018
X025775Y004823
X025915Y004963
X026075Y005123
X026225Y005273
X026375Y005423
X030416Y01518
X034236
X038277Y005423
X038417Y005283
X038577Y005123
X038727Y004973
X038877Y004823
X048634Y000782
X048832
X049058
X04927
X049483
X05924Y004823
X05938Y004963
X05954Y005123
X05969Y005273
X05984Y005423
X06388Y01518
X067701
X071742Y005423
X071882Y005283
X072042Y005123
X072192Y004973
X072342Y004823
X082099Y000782
X082297
X082523
X082735
X082947
X092704Y004823
X092844Y004963
X093004Y005123
X093154Y005273
X093304Y005423
X097345Y01518
Y015378
X097345Y015604
Y015816
X097345Y016029
X093304Y025786
X093164Y025926
X093004Y026086
X092854Y026236
X092704Y026386
X082947Y030426
X082749
X082523Y030426
X082311
X082099Y030426
X072342Y026386
X072202Y026246
X072042Y026086
X071892Y025936
X071742Y025786
X067701Y016029
Y015831
X067701Y015604
Y015392
X06388Y015378
X06388Y015604
Y015816
X06388Y016029
X05984Y025786
X0597Y025926
X05954Y026086
X05939Y026236
X05924Y026386
X049483Y030426
X049285
X049058Y030426
X048846
X048634Y030426
X038877Y026386
X038737Y026246
X038577Y026086
X038427Y025936
X038277Y025786
X034236Y016029
Y015831
X034236Y015604
Y015392
X030416Y015378
X030416Y015604
Y015816
X030416Y016029
X026375Y025786
X026235Y025926
X026075Y026086
X025925Y026236
X025775Y026386
X016018Y030426
X01582
X015594Y030426
X015382
X01517Y030426
X005412Y026386
X005272Y026246
X005112Y026086
X004962Y025936
X004812Y025786
X000772Y016029
Y015831
X000772Y015604
Y015392
T04
X003121Y013555
X005798
X036586
X039263
X07005
X072727
T05
X070703Y015964
X037238
X003774
T06
X099131Y-001181
X-001105
Y032382
X099131
M30
