G04*
G04 #@! TF.GenerationSoftware,Altium Limited,Altium Designer,19.1.7 (138)*
G04*
G04 Layer_Color=16777062*
%FSLAX24Y24*%
%MOIN*%
G70*
G01*
G75*
%ADD65C,0.0100*%
%ADD89C,0.0059*%
%ADD90C,0.0039*%
%ADD92C,0.0118*%
%ADD95C,0.0050*%
%ADD96C,0.0020*%
%ADD175C,0.0004*%
D65*
X26006Y5692D02*
Y25377D01*
X22852Y5692D02*
X26006D01*
X22852Y25377D02*
X26006D01*
X22852Y5692D02*
Y25377D01*
X59470Y5692D02*
Y25377D01*
X56317Y5692D02*
X59470D01*
X56317Y25377D02*
X59470D01*
X56317Y5692D02*
Y25377D01*
X92935Y5692D02*
Y25377D01*
X89782Y5692D02*
X92935D01*
X89782Y25377D02*
X92935D01*
X89782Y5692D02*
Y25377D01*
D89*
X18101Y22178D02*
G03*
X18101Y22178I-20J0D01*
G01*
X18564Y13779D02*
Y15058D01*
X16627Y13779D02*
X18564D01*
X16627D02*
Y15058D01*
X18564D01*
X15965Y13641D02*
X18721D01*
X15965Y9901D02*
Y13641D01*
Y9901D02*
X17902D01*
X18721D02*
Y13641D01*
X51565Y22178D02*
G03*
X51565Y22178I-20J0D01*
G01*
X52028Y13779D02*
Y15058D01*
X50091Y13779D02*
X52028D01*
X50091D02*
Y15058D01*
X52028D01*
X49430Y13641D02*
X52186D01*
X49430Y9901D02*
Y13641D01*
Y9901D02*
X51367D01*
X52186D02*
Y13641D01*
X85030Y22178D02*
G03*
X85030Y22178I-20J0D01*
G01*
X85493Y13779D02*
Y15058D01*
X83556Y13779D02*
X85493D01*
X83556D02*
Y15058D01*
X85493D01*
X82894Y13641D02*
X85650D01*
X82894Y9901D02*
Y13641D01*
Y9901D02*
X84831D01*
X85650D02*
Y13641D01*
D90*
X17689Y25666D02*
Y26060D01*
X17492Y25863D02*
X17886D01*
X17660Y25585D02*
X17660Y25404D01*
X18054Y25585D02*
X18054Y25404D01*
X17660Y25585D02*
X18054D01*
X17660Y25404D02*
X18054Y25404D01*
X17792Y25494D02*
X17922D01*
X17857Y25429D02*
Y25559D01*
X17446Y24956D02*
Y25137D01*
X17840Y24956D02*
Y25137D01*
X17446D02*
X17840D01*
X17446Y24956D02*
X17840D01*
X17578Y25046D02*
X17708D01*
X17643Y24981D02*
Y25111D01*
X16743Y23534D02*
X16924D01*
X16743Y23928D02*
X16924D01*
X16743Y23534D02*
Y23928D01*
X16924Y23534D02*
Y23928D01*
X16834Y23666D02*
Y23796D01*
X16769Y23731D02*
X16899D01*
X18261Y23689D02*
Y23870D01*
X17867Y23689D02*
Y23870D01*
Y23689D02*
X18261D01*
X17867Y23870D02*
X18261D01*
X17999Y23779D02*
X18129D01*
X18064Y23714D02*
Y23844D01*
X10025Y20906D02*
X10734D01*
X10025Y20630D02*
X10734D01*
X10025D02*
Y20906D01*
X10734Y20630D02*
Y20906D01*
X10271Y20768D02*
X10488D01*
X10379Y20660D02*
Y20876D01*
X10025Y15830D02*
X10734D01*
X10025Y16106D02*
X10734D01*
Y15830D02*
Y16106D01*
X10025Y15830D02*
Y16106D01*
X10271Y15968D02*
X10488D01*
X10379Y15860D02*
Y16076D01*
X10067Y18055D02*
Y18764D01*
X9791Y18055D02*
Y18764D01*
X10067D01*
X9791Y18055D02*
X10067D01*
X9929Y18301D02*
Y18518D01*
X9821Y18410D02*
X10038D01*
X20199Y19554D02*
X20329D01*
X20264Y19489D02*
Y19619D01*
X20173Y19357D02*
Y19751D01*
X20354Y19357D02*
Y19751D01*
X20173Y19357D02*
X20354D01*
X20173Y19751D02*
X20354D01*
X19074Y23999D02*
Y24129D01*
X19009Y24064D02*
X19139D01*
X18877Y23974D02*
X19271D01*
X18877Y24155D02*
X19271D01*
Y23974D02*
Y24155D01*
X18877Y23974D02*
Y24155D01*
X7899Y21280D02*
X8029D01*
X7964Y21215D02*
Y21345D01*
X8055Y21083D02*
Y21476D01*
X7873Y21083D02*
Y21476D01*
X8055D01*
X7873Y21083D02*
X8055D01*
X17984Y15968D02*
Y16098D01*
X17919Y16033D02*
X18049D01*
X17787Y16124D02*
X18181D01*
X17787Y15943D02*
X18181D01*
X17787D02*
Y16124D01*
X18181Y15943D02*
Y16124D01*
X21099Y19554D02*
X21229D01*
X21164Y19489D02*
Y19619D01*
X21073Y19357D02*
Y19751D01*
X21254Y19357D02*
Y19751D01*
X21073Y19357D02*
X21254D01*
X21073Y19751D02*
X21254D01*
X21384Y18914D02*
Y19044D01*
X21319Y18979D02*
X21449D01*
X21187Y18889D02*
X21581D01*
X21187Y19070D02*
X21581D01*
Y18889D02*
Y19070D01*
X21187Y18889D02*
Y19070D01*
X20277Y18889D02*
Y19070D01*
X20671Y18889D02*
X20671Y19070D01*
X20277D02*
X20671D01*
X20277Y18889D02*
X20671Y18889D01*
X20409Y18979D02*
X20539D01*
X20474Y18915D02*
Y19044D01*
X10469Y21003D02*
Y21133D01*
X10404Y21068D02*
X10534D01*
X10272Y20977D02*
X10666D01*
X10272Y21159D02*
X10666D01*
Y20977D02*
Y21159D01*
X10272Y20977D02*
Y21159D01*
X10459Y15603D02*
Y15733D01*
X10394Y15668D02*
X10524D01*
X10262Y15577D02*
X10656D01*
X10262Y15759D02*
X10656D01*
Y15577D02*
Y15759D01*
X10262Y15577D02*
Y15759D01*
X10679Y21253D02*
Y21383D01*
X10614Y21318D02*
X10744D01*
X10482Y21228D02*
X10876D01*
X10482Y21409D02*
X10876D01*
Y21228D02*
Y21409D01*
X10482Y21228D02*
Y21409D01*
X17466Y24694D02*
X17596D01*
X17531Y24759D02*
X17531Y24629D01*
X17621Y24497D02*
Y24891D01*
X17440Y24497D02*
Y24891D01*
X17621D01*
X17440Y24497D02*
X17621D01*
X17192Y22126D02*
X17322D01*
X17257Y22061D02*
Y22191D01*
X17166Y21929D02*
Y22323D01*
X17347Y21929D02*
Y22323D01*
X17166Y21929D02*
X17347D01*
X17166Y22323D02*
X17347D01*
X5509Y21674D02*
X5639D01*
X5574Y21609D02*
Y21739D01*
X5483Y21477D02*
Y21871D01*
X5664Y21477D02*
Y21871D01*
X5483Y21477D02*
X5664D01*
X5483Y21871D02*
X5664D01*
X7179Y21648D02*
X7309D01*
X7244Y21583D02*
Y21713D01*
X7334Y21451D02*
Y21845D01*
X7153Y21451D02*
Y21845D01*
X7334D01*
X7153Y21451D02*
X7334D01*
X7259Y15971D02*
X7389D01*
X7324Y15906D02*
Y16036D01*
X7414Y15774D02*
Y16168D01*
X7233Y15774D02*
Y16168D01*
X7414D01*
X7233Y15774D02*
X7414D01*
X8995Y14458D02*
Y14588D01*
X8930Y14523D02*
X9060Y14523D01*
X8798Y14433D02*
X9192D01*
X8798Y14614D02*
X9192Y14614D01*
Y14433D02*
Y14614D01*
X8798Y14433D02*
Y14614D01*
X20626Y19554D02*
X20756D01*
X20691Y19489D02*
Y19619D01*
X20600Y19357D02*
Y19751D01*
X20781Y19357D02*
Y19751D01*
X20600Y19357D02*
X20781D01*
X20600Y19751D02*
X20781D01*
X18059Y22488D02*
X18240D01*
X18059Y22882D02*
X18240Y22882D01*
X18059Y22488D02*
Y22882D01*
X18240Y22882D02*
X18240Y22488D01*
X18150Y22620D02*
Y22750D01*
X18085Y22685D02*
X18215D01*
X18612Y21604D02*
X18742D01*
X18677Y21539D02*
Y21669D01*
X18767Y21407D02*
Y21801D01*
X18586Y21407D02*
Y21801D01*
X18767D01*
X18586Y21407D02*
X18767D01*
X18854Y21604D02*
X18984D01*
X18919Y21539D02*
Y21669D01*
X19010Y21407D02*
Y21801D01*
X18828Y21407D02*
Y21801D01*
X19010D01*
X18828Y21407D02*
X19010D01*
X7195Y13094D02*
X7325Y13094D01*
X7260Y13029D02*
Y13159D01*
X7350Y12897D02*
Y13291D01*
X7169Y13291D02*
X7169Y12897D01*
X7169Y13291D02*
X7350Y13291D01*
X7169Y12897D02*
X7350Y12897D01*
X8024Y15359D02*
Y15489D01*
X7959Y15424D02*
X8089D01*
X7827Y15515D02*
X8221D01*
X7827Y15334D02*
X8221D01*
X7827D02*
Y15515D01*
X8221Y15334D02*
Y15515D01*
X6204Y17837D02*
Y17967D01*
X6139Y17902D02*
X6269D01*
X6007Y17812D02*
X6401Y17812D01*
X6007Y17993D02*
X6401Y17993D01*
Y17812D02*
Y17993D01*
X6007Y17812D02*
Y17993D01*
X5374Y19649D02*
Y19779D01*
X5309Y19714D02*
X5439D01*
X5177Y19624D02*
X5571Y19624D01*
X5177Y19805D02*
X5571D01*
X5571Y19624D02*
X5571Y19805D01*
X5177Y19624D02*
Y19805D01*
X5864Y19649D02*
Y19779D01*
X5799Y19714D02*
X5929D01*
X5667Y19624D02*
X6061D01*
X5667Y19805D02*
X6061D01*
Y19624D02*
Y19805D01*
X5667Y19624D02*
X5667Y19805D01*
X9119Y15864D02*
X9249D01*
X9184Y15799D02*
Y15929D01*
X9093Y15667D02*
Y16061D01*
X9274Y15667D02*
Y16061D01*
X9093Y15667D02*
X9274D01*
X9093Y16061D02*
X9274D01*
X7674Y18199D02*
Y18329D01*
X7609Y18264D02*
X7739D01*
X7477Y18355D02*
X7871D01*
X7477Y18174D02*
X7871D01*
X7477D02*
Y18355D01*
X7871Y18174D02*
Y18355D01*
X18056Y25617D02*
X18237D01*
X18056Y26011D02*
X18237D01*
X18056Y25617D02*
Y26011D01*
X18237Y25617D02*
Y26011D01*
X18146Y25749D02*
Y25879D01*
X18081Y25814D02*
X18211D01*
X17893Y24829D02*
X18074D01*
X17893Y25223D02*
X18074D01*
X17893Y24829D02*
Y25223D01*
X18074Y24829D02*
Y25223D01*
X17984Y24961D02*
Y25091D01*
X17919Y25026D02*
X18049D01*
X18367Y23241D02*
Y23422D01*
X18761Y23241D02*
Y23422D01*
X18367D02*
X18761D01*
X18367Y23241D02*
X18761D01*
X18499Y23331D02*
X18629D01*
X18564Y23266D02*
Y23396D01*
X6404Y17287D02*
Y17681D01*
X6207Y17484D02*
X6601D01*
X8205Y15894D02*
Y16288D01*
X8008Y16091D02*
X8402D01*
X7914Y18917D02*
Y19311D01*
X7717Y19114D02*
X8111D01*
X11113Y21960D02*
Y22353D01*
X10916Y22157D02*
X11310D01*
X11916Y22477D02*
Y22607D01*
X11851Y22542D02*
X11981D01*
X11719Y22451D02*
X12113D01*
X11719Y22632D02*
X12113D01*
Y22451D02*
Y22632D01*
X11719Y22451D02*
Y22632D01*
X9423Y21075D02*
X9604D01*
X9423Y21469D02*
X9604D01*
X9423Y21075D02*
Y21469D01*
X9604Y21075D02*
Y21469D01*
X9514Y21207D02*
Y21337D01*
X9449Y21272D02*
X9579D01*
X7805Y16329D02*
X7986D01*
X7805Y15935D02*
X7986D01*
Y16329D01*
X7805Y15935D02*
Y16329D01*
X7895Y16067D02*
Y16197D01*
X7830Y16132D02*
X7960D01*
X7884Y17417D02*
Y17811D01*
X7687Y17614D02*
X8081D01*
X10142Y20573D02*
X16717D01*
X10142Y16163D02*
Y20573D01*
Y16163D02*
X16717D01*
Y20573D01*
X18372Y21856D02*
X18502Y21856D01*
X18437Y21791D02*
Y21921D01*
X18346Y22052D02*
X18346Y21659D01*
X18527D02*
Y22053D01*
X18346Y21659D02*
X18527D01*
X18346Y22052D02*
X18527Y22053D01*
X8438Y15587D02*
X8619D01*
X8438Y15981D02*
X8619D01*
X8438Y15587D02*
Y15981D01*
X8619Y15587D02*
Y15981D01*
X8529Y15719D02*
Y15849D01*
X8464Y15784D02*
X8594D01*
X4526Y18915D02*
X4742D01*
X4634Y18807D02*
Y19024D01*
X4496Y18561D02*
X4772D01*
X4496Y19270D02*
X4772D01*
X4496Y18561D02*
Y19270D01*
X4772Y18561D02*
Y19270D01*
X21531Y19553D02*
X21661D01*
X21596Y19488D02*
Y19617D01*
X21506Y19749D02*
X21506Y19356D01*
X21687Y19356D02*
Y19749D01*
X21506Y19356D02*
X21687Y19356D01*
X21506Y19749D02*
X21687D01*
X17166Y21417D02*
X17347D01*
X17166Y21810D02*
X17347D01*
X17166Y21417D02*
Y21810D01*
X17347Y21417D02*
Y21810D01*
X17257Y21549D02*
Y21678D01*
X17192Y21613D02*
X17322D01*
X8921Y18175D02*
X9138D01*
X9029Y18067D02*
Y18283D01*
X8891Y17821D02*
X9167D01*
X8891Y18529D02*
X9167D01*
X8891Y17821D02*
Y18529D01*
X9167Y17821D02*
Y18529D01*
X5804Y21033D02*
Y22096D01*
X7084Y21033D02*
Y22096D01*
X5804D02*
X7084D01*
X5804Y21033D02*
X7084D01*
X6247Y21564D02*
X6641D01*
X6444Y21367D02*
Y21761D01*
X7277Y15524D02*
X7671D01*
X7474Y15327D02*
Y15721D01*
X5401Y19917D02*
Y20311D01*
X6326Y19917D02*
X6326Y20311D01*
X5401Y20311D02*
X6326Y20311D01*
X5401Y19917D02*
X6326D01*
X5864Y19937D02*
Y20291D01*
X5687Y20114D02*
X6041D01*
X4497Y19694D02*
X4891D01*
X4694Y19497D02*
Y19891D01*
X6752Y18936D02*
Y19330D01*
X6555Y19133D02*
X6949D01*
X8937Y11618D02*
Y12011D01*
X8740Y11814D02*
X9134Y11814D01*
X8740Y13623D02*
X9134D01*
X8937Y13426D02*
Y13820D01*
X5529Y18726D02*
Y19120D01*
X5332Y18923D02*
X5726D01*
X5545Y17478D02*
X5939D01*
X5742Y17281D02*
Y17675D01*
X18154Y26882D02*
Y27276D01*
X17957Y27079D02*
X18351D01*
X10381Y14469D02*
Y14599D01*
X10316Y14534D02*
X10446D01*
X10184Y14625D02*
X10578D01*
X10184Y14444D02*
X10578D01*
X10184D02*
Y14625D01*
X10578Y14444D02*
Y14625D01*
X18858Y23551D02*
X19075D01*
X18967Y23443D02*
Y23659D01*
X18829Y23197D02*
Y23905D01*
X19104Y23197D02*
Y23905D01*
X18829Y23197D02*
X19104D01*
X18829Y23905D02*
X19104D01*
X17441Y25205D02*
X17622D01*
X17441Y25599D02*
X17622D01*
X17441Y25205D02*
Y25599D01*
X17622Y25205D02*
Y25599D01*
X17531Y25337D02*
Y25467D01*
X17467Y25402D02*
X17596D01*
X18069Y23134D02*
Y23528D01*
X17872Y23331D02*
X18266D01*
X18640Y22067D02*
X19329D01*
X18640Y22362D02*
X19329D01*
Y22067D02*
Y22362D01*
X18640Y22067D02*
Y22362D01*
X18876Y22214D02*
X19093D01*
X18984Y22106D02*
Y22323D01*
X51154Y25666D02*
Y26060D01*
X50957Y25863D02*
X51351D01*
X51125Y25585D02*
X51125Y25404D01*
X51518Y25585D02*
X51518Y25404D01*
X51125Y25585D02*
X51518D01*
X51125Y25404D02*
X51518Y25404D01*
X51256Y25494D02*
X51386D01*
X51321Y25429D02*
Y25559D01*
X50910Y24956D02*
Y25137D01*
X51304Y24956D02*
Y25137D01*
X50910D02*
X51304D01*
X50910Y24956D02*
X51304D01*
X51042Y25046D02*
X51172D01*
X51107Y24981D02*
Y25111D01*
X50208Y23534D02*
X50389D01*
X50208Y23928D02*
X50389D01*
X50208Y23534D02*
Y23928D01*
X50389Y23534D02*
Y23928D01*
X50299Y23666D02*
Y23796D01*
X50234Y23731D02*
X50363D01*
X51725Y23689D02*
Y23870D01*
X51332Y23689D02*
Y23870D01*
Y23689D02*
X51725D01*
X51332Y23870D02*
X51725D01*
X51463Y23779D02*
X51593D01*
X51528Y23714D02*
Y23844D01*
X43489Y20906D02*
X44198D01*
X43489Y20630D02*
X44198D01*
X43489D02*
Y20906D01*
X44198Y20630D02*
Y20906D01*
X43736Y20768D02*
X43952D01*
X43844Y20660D02*
Y20876D01*
X43489Y15830D02*
X44198D01*
X43489Y16106D02*
X44198D01*
Y15830D02*
Y16106D01*
X43489Y15830D02*
Y16106D01*
X43736Y15968D02*
X43952D01*
X43844Y15860D02*
Y16076D01*
X43532Y18055D02*
Y18764D01*
X43256Y18055D02*
Y18764D01*
X43532D01*
X43256Y18055D02*
X43532D01*
X43394Y18301D02*
Y18518D01*
X43286Y18410D02*
X43502D01*
X53663Y19554D02*
X53793D01*
X53728Y19489D02*
Y19619D01*
X53638Y19357D02*
Y19751D01*
X53819Y19357D02*
Y19751D01*
X53638Y19357D02*
X53819D01*
X53638Y19751D02*
X53819D01*
X52538Y23999D02*
Y24129D01*
X52473Y24064D02*
X52603D01*
X52341Y23974D02*
X52735D01*
X52341Y24155D02*
X52735D01*
Y23974D02*
Y24155D01*
X52341Y23974D02*
Y24155D01*
X41364Y21280D02*
X41494D01*
X41429Y21215D02*
Y21345D01*
X41519Y21083D02*
Y21476D01*
X41338Y21083D02*
Y21476D01*
X41519D01*
X41338Y21083D02*
X41519D01*
X51448Y15968D02*
Y16098D01*
X51383Y16033D02*
X51513D01*
X51252Y16124D02*
X51645D01*
X51252Y15943D02*
X51645D01*
X51252D02*
Y16124D01*
X51645Y15943D02*
Y16124D01*
X54563Y19554D02*
X54693D01*
X54628Y19489D02*
Y19619D01*
X54538Y19357D02*
Y19751D01*
X54719Y19357D02*
Y19751D01*
X54538Y19357D02*
X54719D01*
X54538Y19751D02*
X54719D01*
X54848Y18914D02*
Y19044D01*
X54783Y18979D02*
X54913D01*
X54651Y18889D02*
X55045D01*
X54651Y19070D02*
X55045D01*
Y18889D02*
Y19070D01*
X54651Y18889D02*
Y19070D01*
X53742Y18889D02*
Y19070D01*
X54135Y18889D02*
X54135Y19070D01*
X53742D02*
X54135D01*
X53742Y18889D02*
X54135Y18889D01*
X53873Y18979D02*
X54003D01*
X53938Y18915D02*
Y19044D01*
X43934Y21003D02*
Y21133D01*
X43869Y21068D02*
X43999D01*
X43737Y20977D02*
X44131D01*
X43737Y21159D02*
X44131D01*
Y20977D02*
Y21159D01*
X43737Y20977D02*
Y21159D01*
X43924Y15603D02*
Y15733D01*
X43859Y15668D02*
X43989D01*
X43727Y15577D02*
X44121D01*
X43727Y15759D02*
X44121D01*
Y15577D02*
Y15759D01*
X43727Y15577D02*
Y15759D01*
X44144Y21253D02*
Y21383D01*
X44079Y21318D02*
X44209D01*
X43947Y21228D02*
X44341D01*
X43947Y21409D02*
X44341D01*
Y21228D02*
Y21409D01*
X43947Y21228D02*
Y21409D01*
X50930Y24694D02*
X51060D01*
X50995Y24759D02*
X50995Y24629D01*
X51086Y24497D02*
Y24891D01*
X50905Y24497D02*
Y24891D01*
X51086D01*
X50905Y24497D02*
X51086D01*
X50656Y22126D02*
X50786D01*
X50721Y22061D02*
Y22191D01*
X50631Y21929D02*
Y22323D01*
X50812Y21929D02*
Y22323D01*
X50631Y21929D02*
X50812D01*
X50631Y22323D02*
X50812D01*
X38973Y21674D02*
X39103D01*
X39038Y21609D02*
Y21739D01*
X38948Y21477D02*
Y21871D01*
X39129Y21477D02*
Y21871D01*
X38948Y21477D02*
X39129D01*
X38948Y21871D02*
X39129D01*
X40643Y21648D02*
X40773D01*
X40708Y21583D02*
Y21713D01*
X40799Y21451D02*
Y21845D01*
X40618Y21451D02*
Y21845D01*
X40799D01*
X40618Y21451D02*
X40799D01*
X40723Y15971D02*
X40853D01*
X40788Y15906D02*
Y16036D01*
X40879Y15774D02*
Y16168D01*
X40698Y15774D02*
Y16168D01*
X40879D01*
X40698Y15774D02*
X40879D01*
X42460Y14458D02*
Y14588D01*
X42395Y14523D02*
X42525Y14523D01*
X42263Y14433D02*
X42657D01*
X42263Y14614D02*
X42657Y14614D01*
Y14433D02*
Y14614D01*
X42263Y14433D02*
Y14614D01*
X54090Y19554D02*
X54220D01*
X54155Y19489D02*
Y19619D01*
X54065Y19357D02*
Y19751D01*
X54246Y19357D02*
Y19751D01*
X54065Y19357D02*
X54246D01*
X54065Y19751D02*
X54246D01*
X51524Y22488D02*
X51705D01*
X51524Y22882D02*
X51705Y22882D01*
X51524Y22488D02*
Y22882D01*
X51705Y22882D02*
X51705Y22488D01*
X51614Y22620D02*
Y22750D01*
X51550Y22685D02*
X51679D01*
X52076Y21604D02*
X52206D01*
X52141Y21539D02*
Y21669D01*
X52232Y21407D02*
Y21801D01*
X52051Y21407D02*
Y21801D01*
X52232D01*
X52051Y21407D02*
X52232D01*
X52319Y21604D02*
X52449D01*
X52384Y21539D02*
Y21669D01*
X52474Y21407D02*
Y21801D01*
X52293Y21407D02*
Y21801D01*
X52474D01*
X52293Y21407D02*
X52474D01*
X40659Y13094D02*
X40789Y13094D01*
X40724Y13029D02*
Y13159D01*
X40815Y12897D02*
Y13291D01*
X40634Y13291D02*
X40634Y12897D01*
X40634Y13291D02*
X40815Y13291D01*
X40634Y12897D02*
X40815Y12897D01*
X41488Y15359D02*
Y15489D01*
X41423Y15424D02*
X41553D01*
X41291Y15515D02*
X41685D01*
X41291Y15334D02*
X41685D01*
X41291D02*
Y15515D01*
X41685Y15334D02*
Y15515D01*
X39668Y17837D02*
Y17967D01*
X39603Y17902D02*
X39733D01*
X39471Y17812D02*
X39865Y17812D01*
X39471Y17993D02*
X39865Y17993D01*
Y17812D02*
Y17993D01*
X39471Y17812D02*
Y17993D01*
X38838Y19649D02*
Y19779D01*
X38773Y19714D02*
X38903D01*
X38642Y19624D02*
X39035Y19624D01*
X38642Y19805D02*
X39035D01*
X39035Y19624D02*
X39035Y19805D01*
X38642Y19624D02*
Y19805D01*
X39328Y19649D02*
Y19779D01*
X39263Y19714D02*
X39393D01*
X39132Y19624D02*
X39525D01*
X39132Y19805D02*
X39525D01*
Y19624D02*
Y19805D01*
X39132Y19624D02*
X39132Y19805D01*
X42583Y15864D02*
X42713D01*
X42648Y15799D02*
Y15929D01*
X42558Y15667D02*
Y16061D01*
X42739Y15667D02*
Y16061D01*
X42558Y15667D02*
X42739D01*
X42558Y16061D02*
X42739D01*
X41138Y18199D02*
Y18329D01*
X41073Y18264D02*
X41203D01*
X40942Y18355D02*
X41335D01*
X40942Y18174D02*
X41335D01*
X40942D02*
Y18355D01*
X41335Y18174D02*
Y18355D01*
X51520Y25617D02*
X51701D01*
X51520Y26011D02*
X51701D01*
X51520Y25617D02*
Y26011D01*
X51701Y25617D02*
Y26011D01*
X51611Y25749D02*
Y25879D01*
X51546Y25814D02*
X51676D01*
X51358Y24829D02*
X51539D01*
X51358Y25223D02*
X51539D01*
X51358Y24829D02*
Y25223D01*
X51539Y24829D02*
Y25223D01*
X51448Y24961D02*
Y25091D01*
X51383Y25026D02*
X51513D01*
X51831Y23241D02*
Y23422D01*
X52225Y23241D02*
Y23422D01*
X51831D02*
X52225D01*
X51831Y23241D02*
X52225D01*
X51963Y23331D02*
X52093D01*
X52028Y23266D02*
Y23396D01*
X39868Y17287D02*
Y17681D01*
X39671Y17484D02*
X40065D01*
X41670Y15894D02*
Y16288D01*
X41473Y16091D02*
X41866D01*
X41378Y18917D02*
Y19311D01*
X41182Y19114D02*
X41575D01*
X44578Y21960D02*
Y22353D01*
X44381Y22157D02*
X44774D01*
X45381Y22477D02*
Y22607D01*
X45316Y22542D02*
X45446D01*
X45184Y22451D02*
X45577D01*
X45184Y22632D02*
X45577D01*
Y22451D02*
Y22632D01*
X45184Y22451D02*
Y22632D01*
X42888Y21075D02*
X43069D01*
X42888Y21469D02*
X43069D01*
X42888Y21075D02*
Y21469D01*
X43069Y21075D02*
Y21469D01*
X42978Y21207D02*
Y21337D01*
X42913Y21272D02*
X43043D01*
X41269Y16329D02*
X41450D01*
X41269Y15935D02*
X41450D01*
Y16329D01*
X41269Y15935D02*
Y16329D01*
X41360Y16067D02*
Y16197D01*
X41295Y16132D02*
X41425D01*
X41348Y17417D02*
Y17811D01*
X41151Y17614D02*
X41545D01*
X43606Y20573D02*
X50181D01*
X43606Y16163D02*
Y20573D01*
Y16163D02*
X50181D01*
Y20573D01*
X51836Y21856D02*
X51966Y21856D01*
X51901Y21791D02*
Y21921D01*
X51811Y22052D02*
X51811Y21659D01*
X51992D02*
Y22053D01*
X51811Y21659D02*
X51992D01*
X51811Y22052D02*
X51992Y22053D01*
X41903Y15587D02*
X42084D01*
X41903Y15981D02*
X42084D01*
X41903Y15587D02*
Y15981D01*
X42084Y15587D02*
Y15981D01*
X41993Y15719D02*
Y15849D01*
X41929Y15784D02*
X42058D01*
X37990Y18915D02*
X38207D01*
X38098Y18807D02*
Y19024D01*
X37961Y18561D02*
X38236D01*
X37961Y19270D02*
X38236D01*
X37961Y18561D02*
Y19270D01*
X38236Y18561D02*
Y19270D01*
X54996Y19553D02*
X55126D01*
X55061Y19488D02*
Y19617D01*
X54970Y19749D02*
X54970Y19356D01*
X55151Y19356D02*
Y19749D01*
X54970Y19356D02*
X55151Y19356D01*
X54970Y19749D02*
X55151D01*
X50631Y21417D02*
X50812D01*
X50631Y21810D02*
X50812D01*
X50631Y21417D02*
Y21810D01*
X50812Y21417D02*
Y21810D01*
X50721Y21549D02*
Y21678D01*
X50656Y21613D02*
X50786D01*
X42386Y18175D02*
X42602D01*
X42494Y18067D02*
Y18283D01*
X42356Y17821D02*
X42632D01*
X42356Y18529D02*
X42632D01*
X42356Y17821D02*
Y18529D01*
X42632Y17821D02*
Y18529D01*
X39269Y21033D02*
Y22096D01*
X40548Y21033D02*
Y22096D01*
X39269D02*
X40548D01*
X39269Y21033D02*
X40548D01*
X39711Y21564D02*
X40105D01*
X39908Y21367D02*
Y21761D01*
X40742Y15524D02*
X41135D01*
X40938Y15327D02*
Y15721D01*
X38866Y19917D02*
Y20311D01*
X39791Y19917D02*
X39791Y20311D01*
X38866Y20311D02*
X39791Y20311D01*
X38866Y19917D02*
X39791D01*
X39328Y19937D02*
Y20291D01*
X39151Y20114D02*
X39506D01*
X37961Y19694D02*
X38355D01*
X38158Y19497D02*
Y19891D01*
X40216Y18936D02*
Y19330D01*
X40019Y19133D02*
X40413D01*
X42402Y11618D02*
Y12011D01*
X42205Y11814D02*
X42598Y11814D01*
X42205Y13623D02*
X42598D01*
X42402Y13426D02*
Y13820D01*
X38993Y18726D02*
Y19120D01*
X38796Y18923D02*
X39190D01*
X39010Y17478D02*
X39404D01*
X39207Y17281D02*
Y17675D01*
X51618Y26882D02*
Y27276D01*
X51422Y27079D02*
X51815D01*
X43845Y14469D02*
Y14599D01*
X43780Y14534D02*
X43910D01*
X43649Y14625D02*
X44042D01*
X43649Y14444D02*
X44042D01*
X43649D02*
Y14625D01*
X44042Y14444D02*
Y14625D01*
X52323Y23551D02*
X52539D01*
X52431Y23443D02*
Y23659D01*
X52293Y23197D02*
Y23905D01*
X52569Y23197D02*
Y23905D01*
X52293Y23197D02*
X52569D01*
X52293Y23905D02*
X52569D01*
X50905Y25205D02*
X51087D01*
X50905Y25599D02*
X51087D01*
X50905Y25205D02*
Y25599D01*
X51087Y25205D02*
Y25599D01*
X50996Y25337D02*
Y25467D01*
X50931Y25402D02*
X51061D01*
X51533Y23134D02*
Y23528D01*
X51336Y23331D02*
X51730D01*
X52105Y22067D02*
X52794D01*
X52105Y22362D02*
X52794D01*
Y22067D02*
Y22362D01*
X52105Y22067D02*
Y22362D01*
X52341Y22214D02*
X52557D01*
X52449Y22106D02*
Y22323D01*
X84618Y25666D02*
Y26060D01*
X84422Y25863D02*
X84815D01*
X84589Y25585D02*
X84589Y25404D01*
X84983Y25585D02*
X84983Y25404D01*
X84589Y25585D02*
X84983D01*
X84589Y25404D02*
X84983Y25404D01*
X84721Y25494D02*
X84851D01*
X84786Y25429D02*
Y25559D01*
X84375Y24956D02*
Y25137D01*
X84769Y24956D02*
Y25137D01*
X84375D02*
X84769D01*
X84375Y24956D02*
X84769D01*
X84507Y25046D02*
X84637D01*
X84572Y24981D02*
Y25111D01*
X83673Y23534D02*
X83854D01*
X83673Y23928D02*
X83854D01*
X83673Y23534D02*
Y23928D01*
X83854Y23534D02*
Y23928D01*
X83763Y23666D02*
Y23796D01*
X83698Y23731D02*
X83828D01*
X85190Y23689D02*
Y23870D01*
X84796Y23689D02*
Y23870D01*
Y23689D02*
X85190D01*
X84796Y23870D02*
X85190D01*
X84928Y23779D02*
X85058D01*
X84993Y23714D02*
Y23844D01*
X76954Y20906D02*
X77663D01*
X76954Y20630D02*
X77663D01*
X76954D02*
Y20906D01*
X77663Y20630D02*
Y20906D01*
X77200Y20768D02*
X77417D01*
X77308Y20660D02*
Y20876D01*
X76954Y15830D02*
X77663D01*
X76954Y16106D02*
X77663D01*
Y15830D02*
Y16106D01*
X76954Y15830D02*
Y16106D01*
X77200Y15968D02*
X77417D01*
X77308Y15860D02*
Y16076D01*
X76996Y18055D02*
Y18764D01*
X76721Y18055D02*
Y18764D01*
X76996D01*
X76721Y18055D02*
X76996D01*
X76858Y18301D02*
Y18518D01*
X76750Y18410D02*
X76967D01*
X87128Y19554D02*
X87258D01*
X87193Y19489D02*
Y19619D01*
X87102Y19357D02*
Y19751D01*
X87283Y19357D02*
Y19751D01*
X87102Y19357D02*
X87283D01*
X87102Y19751D02*
X87283D01*
X86003Y23999D02*
Y24129D01*
X85938Y24064D02*
X86068D01*
X85806Y23974D02*
X86200D01*
X85806Y24155D02*
X86200D01*
Y23974D02*
Y24155D01*
X85806Y23974D02*
Y24155D01*
X74828Y21280D02*
X74958D01*
X74893Y21215D02*
Y21345D01*
X74984Y21083D02*
Y21476D01*
X74803Y21083D02*
Y21476D01*
X74984D01*
X74803Y21083D02*
X74984D01*
X84913Y15968D02*
Y16098D01*
X84848Y16033D02*
X84978D01*
X84716Y16124D02*
X85110D01*
X84716Y15943D02*
X85110D01*
X84716D02*
Y16124D01*
X85110Y15943D02*
Y16124D01*
X88028Y19554D02*
X88158D01*
X88093Y19489D02*
Y19619D01*
X88002Y19357D02*
Y19751D01*
X88183Y19357D02*
Y19751D01*
X88002Y19357D02*
X88183D01*
X88002Y19751D02*
X88183D01*
X88313Y18914D02*
Y19044D01*
X88248Y18979D02*
X88378D01*
X88116Y18889D02*
X88510D01*
X88116Y19070D02*
X88510D01*
Y18889D02*
Y19070D01*
X88116Y18889D02*
Y19070D01*
X87206Y18889D02*
Y19070D01*
X87600Y18889D02*
X87600Y19070D01*
X87206D02*
X87600D01*
X87206Y18889D02*
X87600Y18889D01*
X87338Y18979D02*
X87468D01*
X87403Y18915D02*
Y19044D01*
X77398Y21003D02*
Y21133D01*
X77333Y21068D02*
X77463D01*
X77202Y20977D02*
X77595D01*
X77202Y21159D02*
X77595D01*
Y20977D02*
Y21159D01*
X77202Y20977D02*
Y21159D01*
X77388Y15603D02*
Y15733D01*
X77323Y15668D02*
X77453D01*
X77192Y15577D02*
X77585D01*
X77192Y15759D02*
X77585D01*
Y15577D02*
Y15759D01*
X77192Y15577D02*
Y15759D01*
X77608Y21253D02*
Y21383D01*
X77543Y21318D02*
X77673D01*
X77412Y21228D02*
X77805D01*
X77412Y21409D02*
X77805D01*
Y21228D02*
Y21409D01*
X77412Y21228D02*
Y21409D01*
X84395Y24694D02*
X84525D01*
X84460Y24759D02*
X84460Y24629D01*
X84550Y24497D02*
Y24891D01*
X84369Y24497D02*
Y24891D01*
X84550D01*
X84369Y24497D02*
X84550D01*
X84121Y22126D02*
X84251D01*
X84186Y22061D02*
Y22191D01*
X84095Y21929D02*
Y22323D01*
X84276Y21929D02*
Y22323D01*
X84095Y21929D02*
X84276D01*
X84095Y22323D02*
X84276D01*
X72438Y21674D02*
X72568D01*
X72503Y21609D02*
Y21739D01*
X72412Y21477D02*
Y21871D01*
X72593Y21477D02*
Y21871D01*
X72412Y21477D02*
X72593D01*
X72412Y21871D02*
X72593D01*
X74108Y21648D02*
X74238D01*
X74173Y21583D02*
Y21713D01*
X74263Y21451D02*
Y21845D01*
X74082Y21451D02*
Y21845D01*
X74263D01*
X74082Y21451D02*
X74263D01*
X74188Y15971D02*
X74318D01*
X74253Y15906D02*
Y16036D01*
X74343Y15774D02*
Y16168D01*
X74162Y15774D02*
Y16168D01*
X74343D01*
X74162Y15774D02*
X74343D01*
X75924Y14458D02*
Y14588D01*
X75859Y14523D02*
X75989Y14523D01*
X75728Y14433D02*
X76121D01*
X75728Y14614D02*
X76121Y14614D01*
Y14433D02*
Y14614D01*
X75728Y14433D02*
Y14614D01*
X87555Y19554D02*
X87685D01*
X87620Y19489D02*
Y19619D01*
X87529Y19357D02*
Y19751D01*
X87710Y19357D02*
Y19751D01*
X87529Y19357D02*
X87710D01*
X87529Y19751D02*
X87710D01*
X84988Y22488D02*
X85170D01*
X84988Y22882D02*
X85170Y22882D01*
X84988Y22488D02*
Y22882D01*
X85170Y22882D02*
X85170Y22488D01*
X85079Y22620D02*
Y22750D01*
X85014Y22685D02*
X85144D01*
X85541Y21604D02*
X85671D01*
X85606Y21539D02*
Y21669D01*
X85697Y21407D02*
Y21801D01*
X85515Y21407D02*
Y21801D01*
X85697D01*
X85515Y21407D02*
X85697D01*
X85783Y21604D02*
X85913D01*
X85848Y21539D02*
Y21669D01*
X85939Y21407D02*
Y21801D01*
X85758Y21407D02*
Y21801D01*
X85939D01*
X85758Y21407D02*
X85939D01*
X74124Y13094D02*
X74254Y13094D01*
X74189Y13029D02*
Y13159D01*
X74279Y12897D02*
Y13291D01*
X74098Y13291D02*
X74098Y12897D01*
X74098Y13291D02*
X74279Y13291D01*
X74098Y12897D02*
X74279Y12897D01*
X74953Y15359D02*
Y15489D01*
X74888Y15424D02*
X75018D01*
X74756Y15515D02*
X75150D01*
X74756Y15334D02*
X75150D01*
X74756D02*
Y15515D01*
X75150Y15334D02*
Y15515D01*
X73133Y17837D02*
Y17967D01*
X73068Y17902D02*
X73198D01*
X72936Y17812D02*
X73330Y17812D01*
X72936Y17993D02*
X73330Y17993D01*
Y17812D02*
Y17993D01*
X72936Y17812D02*
Y17993D01*
X72303Y19649D02*
Y19779D01*
X72238Y19714D02*
X72368D01*
X72106Y19624D02*
X72500Y19624D01*
X72106Y19805D02*
X72500D01*
X72500Y19624D02*
X72500Y19805D01*
X72106Y19624D02*
Y19805D01*
X72793Y19649D02*
Y19779D01*
X72728Y19714D02*
X72858D01*
X72596Y19624D02*
X72990D01*
X72596Y19805D02*
X72990D01*
Y19624D02*
Y19805D01*
X72596Y19624D02*
X72596Y19805D01*
X76048Y15864D02*
X76178D01*
X76113Y15799D02*
Y15929D01*
X76022Y15667D02*
Y16061D01*
X76203Y15667D02*
Y16061D01*
X76022Y15667D02*
X76203D01*
X76022Y16061D02*
X76203D01*
X74603Y18199D02*
Y18329D01*
X74538Y18264D02*
X74668D01*
X74406Y18355D02*
X74800D01*
X74406Y18174D02*
X74800D01*
X74406D02*
Y18355D01*
X74800Y18174D02*
Y18355D01*
X84985Y25617D02*
X85166D01*
X84985Y26011D02*
X85166D01*
X84985Y25617D02*
Y26011D01*
X85166Y25617D02*
Y26011D01*
X85075Y25749D02*
Y25879D01*
X85010Y25814D02*
X85140D01*
X84822Y24829D02*
X85003D01*
X84822Y25223D02*
X85003D01*
X84822Y24829D02*
Y25223D01*
X85003Y24829D02*
Y25223D01*
X84913Y24961D02*
Y25091D01*
X84848Y25026D02*
X84978D01*
X85296Y23241D02*
Y23422D01*
X85690Y23241D02*
Y23422D01*
X85296D02*
X85690D01*
X85296Y23241D02*
X85690D01*
X85428Y23331D02*
X85558D01*
X85493Y23266D02*
Y23396D01*
X73333Y17287D02*
Y17681D01*
X73136Y17484D02*
X73530D01*
X75134Y15894D02*
Y16288D01*
X74937Y16091D02*
X75331D01*
X74843Y18917D02*
Y19311D01*
X74646Y19114D02*
X75040D01*
X78042Y21960D02*
Y22353D01*
X77845Y22157D02*
X78239D01*
X78845Y22477D02*
Y22607D01*
X78780Y22542D02*
X78910D01*
X78648Y22451D02*
X79042D01*
X78648Y22632D02*
X79042D01*
Y22451D02*
Y22632D01*
X78648Y22451D02*
Y22632D01*
X76352Y21075D02*
X76533D01*
X76352Y21469D02*
X76533D01*
X76352Y21075D02*
Y21469D01*
X76533Y21075D02*
Y21469D01*
X76443Y21207D02*
Y21337D01*
X76378Y21272D02*
X76508D01*
X74734Y16329D02*
X74915D01*
X74734Y15935D02*
X74915D01*
Y16329D01*
X74734Y15935D02*
Y16329D01*
X74824Y16067D02*
Y16197D01*
X74759Y16132D02*
X74889D01*
X74813Y17417D02*
Y17811D01*
X74616Y17614D02*
X75010D01*
X77071Y20573D02*
X83646D01*
X77071Y16163D02*
Y20573D01*
Y16163D02*
X83646D01*
Y20573D01*
X85301Y21856D02*
X85431Y21856D01*
X85366Y21791D02*
Y21921D01*
X85275Y22052D02*
X85275Y21659D01*
X85457D02*
Y22053D01*
X85275Y21659D02*
X85457D01*
X85275Y22052D02*
X85457Y22053D01*
X75367Y15587D02*
X75549D01*
X75367Y15981D02*
X75549D01*
X75367Y15587D02*
Y15981D01*
X75549Y15587D02*
Y15981D01*
X75458Y15719D02*
Y15849D01*
X75393Y15784D02*
X75523D01*
X71455Y18915D02*
X71671D01*
X71563Y18807D02*
Y19024D01*
X71425Y18561D02*
X71701D01*
X71425Y19270D02*
X71701D01*
X71425Y18561D02*
Y19270D01*
X71701Y18561D02*
Y19270D01*
X88460Y19553D02*
X88590D01*
X88525Y19488D02*
Y19617D01*
X88435Y19749D02*
X88435Y19356D01*
X88616Y19356D02*
Y19749D01*
X88435Y19356D02*
X88616Y19356D01*
X88435Y19749D02*
X88616D01*
X84095Y21417D02*
X84276D01*
X84095Y21810D02*
X84276D01*
X84095Y21417D02*
Y21810D01*
X84276Y21417D02*
Y21810D01*
X84186Y21549D02*
Y21678D01*
X84121Y21613D02*
X84251D01*
X75850Y18175D02*
X76067D01*
X75958Y18067D02*
Y18283D01*
X75821Y17821D02*
X76096D01*
X75821Y18529D02*
X76096D01*
X75821Y17821D02*
Y18529D01*
X76096Y17821D02*
Y18529D01*
X72733Y21033D02*
Y22096D01*
X74013Y21033D02*
Y22096D01*
X72733D02*
X74013D01*
X72733Y21033D02*
X74013D01*
X73176Y21564D02*
X73570D01*
X73373Y21367D02*
Y21761D01*
X74206Y15524D02*
X74600D01*
X74403Y15327D02*
Y15721D01*
X72330Y19917D02*
Y20311D01*
X73256Y19917D02*
X73256Y20311D01*
X72330Y20311D02*
X73256Y20311D01*
X72330Y19917D02*
X73256D01*
X72793Y19937D02*
Y20291D01*
X72616Y20114D02*
X72970D01*
X71426Y19694D02*
X71820D01*
X71623Y19497D02*
Y19891D01*
X73681Y18936D02*
Y19330D01*
X73484Y19133D02*
X73878D01*
X75866Y11618D02*
Y12011D01*
X75669Y11814D02*
X76063Y11814D01*
X75669Y13623D02*
X76063D01*
X75866Y13426D02*
Y13820D01*
X72458Y18726D02*
Y19120D01*
X72261Y18923D02*
X72655D01*
X72474Y17478D02*
X72868D01*
X72671Y17281D02*
Y17675D01*
X85083Y26882D02*
Y27276D01*
X84886Y27079D02*
X85280D01*
X77310Y14469D02*
Y14599D01*
X77245Y14534D02*
X77375D01*
X77113Y14625D02*
X77507D01*
X77113Y14444D02*
X77507D01*
X77113D02*
Y14625D01*
X77507Y14444D02*
Y14625D01*
X85787Y23551D02*
X86004D01*
X85896Y23443D02*
Y23659D01*
X85758Y23197D02*
Y23905D01*
X86033Y23197D02*
Y23905D01*
X85758Y23197D02*
X86033D01*
X85758Y23905D02*
X86033D01*
X84370Y25205D02*
X84551D01*
X84370Y25599D02*
X84551D01*
X84370Y25205D02*
Y25599D01*
X84551Y25205D02*
Y25599D01*
X84461Y25337D02*
Y25467D01*
X84396Y25402D02*
X84526D01*
X84998Y23134D02*
Y23528D01*
X84801Y23331D02*
X85195D01*
X85569Y22067D02*
X86258D01*
X85569Y22362D02*
X86258D01*
Y22067D02*
Y22362D01*
X85569Y22067D02*
Y22362D01*
X85805Y22214D02*
X86022D01*
X85914Y22106D02*
Y22323D01*
D92*
X10929Y19844D02*
G03*
X10929Y19844I-59J0D01*
G01*
X44394D02*
G03*
X44394Y19844I-59J0D01*
G01*
X77858D02*
G03*
X77858Y19844I-59J0D01*
G01*
D95*
X16134Y12501D02*
Y12816D01*
X16344Y12501D01*
Y12816D01*
X16606D02*
X16501D01*
X16449Y12763D01*
Y12553D01*
X16501Y12501D01*
X16606D01*
X16659Y12553D01*
Y12763D01*
X16606Y12816D01*
X17078D02*
X17288D01*
X17183D01*
Y12501D01*
X17393D02*
Y12816D01*
X17551D01*
X17603Y12763D01*
Y12658D01*
X17551Y12606D01*
X17393D01*
X17498D02*
X17603Y12501D01*
X17708D02*
Y12711D01*
X17813Y12816D01*
X17918Y12711D01*
Y12501D01*
Y12658D01*
X17708D01*
X18233Y12763D02*
X18180Y12816D01*
X18075D01*
X18023Y12763D01*
Y12553D01*
X18075Y12501D01*
X18180D01*
X18233Y12553D01*
X18548Y12816D02*
X18338D01*
Y12501D01*
X18548D01*
X18338Y12658D02*
X18443D01*
X16434Y14101D02*
Y14416D01*
X16644Y14101D01*
Y14416D01*
X16906D02*
X16801D01*
X16749Y14363D01*
Y14153D01*
X16801Y14101D01*
X16906D01*
X16959Y14153D01*
Y14363D01*
X16906Y14416D01*
X17378D02*
X17588D01*
X17483D01*
Y14101D01*
X17693D02*
Y14416D01*
X17851D01*
X17903Y14363D01*
Y14258D01*
X17851Y14206D01*
X17693D01*
X17798D02*
X17903Y14101D01*
X18008D02*
Y14311D01*
X18113Y14416D01*
X18218Y14311D01*
Y14101D01*
Y14258D01*
X18008D01*
X18533Y14363D02*
X18480Y14416D01*
X18375D01*
X18323Y14363D01*
Y14153D01*
X18375Y14101D01*
X18480D01*
X18533Y14153D01*
X18848Y14416D02*
X18638D01*
Y14101D01*
X18848D01*
X18638Y14258D02*
X18743D01*
X16418Y12987D02*
Y13302D01*
X16628Y12987D01*
Y13302D01*
X16890D02*
X16785D01*
X16733Y13250D01*
Y13040D01*
X16785Y12987D01*
X16890D01*
X16943Y13040D01*
Y13250D01*
X16890Y13302D01*
X17363D02*
Y13092D01*
X17468Y12987D01*
X17573Y13092D01*
Y13302D01*
X17677D02*
X17782D01*
X17730D01*
Y12987D01*
X17677D01*
X17782D01*
X17940D02*
Y13197D01*
X18045Y13302D01*
X18150Y13197D01*
Y12987D01*
Y13145D01*
X17940D01*
X16734Y14601D02*
Y14916D01*
X16944Y14601D01*
Y14916D01*
X17206D02*
X17101D01*
X17049Y14863D01*
Y14653D01*
X17101Y14601D01*
X17206D01*
X17259Y14653D01*
Y14863D01*
X17206Y14916D01*
X17678D02*
Y14706D01*
X17783Y14601D01*
X17888Y14706D01*
Y14916D01*
X17993D02*
X18098D01*
X18046D01*
Y14601D01*
X17993D01*
X18098D01*
X18256D02*
Y14811D01*
X18361Y14916D01*
X18466Y14811D01*
Y14601D01*
Y14758D01*
X18256D01*
X49598Y12501D02*
Y12816D01*
X49808Y12501D01*
Y12816D01*
X50071D02*
X49966D01*
X49913Y12763D01*
Y12553D01*
X49966Y12501D01*
X50071D01*
X50123Y12553D01*
Y12763D01*
X50071Y12816D01*
X50543D02*
X50753D01*
X50648D01*
Y12501D01*
X50858D02*
Y12816D01*
X51015D01*
X51068Y12763D01*
Y12658D01*
X51015Y12606D01*
X50858D01*
X50963D02*
X51068Y12501D01*
X51173D02*
Y12711D01*
X51278Y12816D01*
X51383Y12711D01*
Y12501D01*
Y12658D01*
X51173D01*
X51697Y12763D02*
X51645Y12816D01*
X51540D01*
X51487Y12763D01*
Y12553D01*
X51540Y12501D01*
X51645D01*
X51697Y12553D01*
X52012Y12816D02*
X51802D01*
Y12501D01*
X52012D01*
X51802Y12658D02*
X51907D01*
X49898Y14101D02*
Y14416D01*
X50108Y14101D01*
Y14416D01*
X50371D02*
X50266D01*
X50213Y14363D01*
Y14153D01*
X50266Y14101D01*
X50371D01*
X50423Y14153D01*
Y14363D01*
X50371Y14416D01*
X50843D02*
X51053D01*
X50948D01*
Y14101D01*
X51158D02*
Y14416D01*
X51315D01*
X51368Y14363D01*
Y14258D01*
X51315Y14206D01*
X51158D01*
X51263D02*
X51368Y14101D01*
X51473D02*
Y14311D01*
X51578Y14416D01*
X51683Y14311D01*
Y14101D01*
Y14258D01*
X51473D01*
X51997Y14363D02*
X51945Y14416D01*
X51840D01*
X51788Y14363D01*
Y14153D01*
X51840Y14101D01*
X51945D01*
X51997Y14153D01*
X52312Y14416D02*
X52102D01*
Y14101D01*
X52312D01*
X52102Y14258D02*
X52207D01*
X49883Y12987D02*
Y13302D01*
X50093Y12987D01*
Y13302D01*
X50355D02*
X50250D01*
X50197Y13250D01*
Y13040D01*
X50250Y12987D01*
X50355D01*
X50407Y13040D01*
Y13250D01*
X50355Y13302D01*
X50827D02*
Y13092D01*
X50932Y12987D01*
X51037Y13092D01*
Y13302D01*
X51142D02*
X51247D01*
X51195D01*
Y12987D01*
X51142D01*
X51247D01*
X51404D02*
Y13197D01*
X51509Y13302D01*
X51614Y13197D01*
Y12987D01*
Y13145D01*
X51404D01*
X50198Y14601D02*
Y14916D01*
X50408Y14601D01*
Y14916D01*
X50671D02*
X50566D01*
X50513Y14863D01*
Y14653D01*
X50566Y14601D01*
X50671D01*
X50723Y14653D01*
Y14863D01*
X50671Y14916D01*
X51143D02*
Y14706D01*
X51248Y14601D01*
X51353Y14706D01*
Y14916D01*
X51458D02*
X51563D01*
X51510D01*
Y14601D01*
X51458D01*
X51563D01*
X51720D02*
Y14811D01*
X51825Y14916D01*
X51930Y14811D01*
Y14601D01*
Y14758D01*
X51720D01*
X83063Y12501D02*
Y12816D01*
X83273Y12501D01*
Y12816D01*
X83535D02*
X83430D01*
X83378Y12763D01*
Y12553D01*
X83430Y12501D01*
X83535D01*
X83588Y12553D01*
Y12763D01*
X83535Y12816D01*
X84007D02*
X84217D01*
X84112D01*
Y12501D01*
X84322D02*
Y12816D01*
X84480D01*
X84532Y12763D01*
Y12658D01*
X84480Y12606D01*
X84322D01*
X84427D02*
X84532Y12501D01*
X84637D02*
Y12711D01*
X84742Y12816D01*
X84847Y12711D01*
Y12501D01*
Y12658D01*
X84637D01*
X85162Y12763D02*
X85110Y12816D01*
X85005D01*
X84952Y12763D01*
Y12553D01*
X85005Y12501D01*
X85110D01*
X85162Y12553D01*
X85477Y12816D02*
X85267D01*
Y12501D01*
X85477D01*
X85267Y12658D02*
X85372D01*
X83363Y14101D02*
Y14416D01*
X83573Y14101D01*
Y14416D01*
X83835D02*
X83730D01*
X83678Y14363D01*
Y14153D01*
X83730Y14101D01*
X83835D01*
X83888Y14153D01*
Y14363D01*
X83835Y14416D01*
X84307D02*
X84517D01*
X84412D01*
Y14101D01*
X84622D02*
Y14416D01*
X84780D01*
X84832Y14363D01*
Y14258D01*
X84780Y14206D01*
X84622D01*
X84727D02*
X84832Y14101D01*
X84937D02*
Y14311D01*
X85042Y14416D01*
X85147Y14311D01*
Y14101D01*
Y14258D01*
X84937D01*
X85462Y14363D02*
X85409Y14416D01*
X85305D01*
X85252Y14363D01*
Y14153D01*
X85305Y14101D01*
X85409D01*
X85462Y14153D01*
X85777Y14416D02*
X85567D01*
Y14101D01*
X85777D01*
X85567Y14258D02*
X85672D01*
X83347Y12987D02*
Y13302D01*
X83557Y12987D01*
Y13302D01*
X83819D02*
X83715D01*
X83662Y13250D01*
Y13040D01*
X83715Y12987D01*
X83819D01*
X83872Y13040D01*
Y13250D01*
X83819Y13302D01*
X84292D02*
Y13092D01*
X84397Y12987D01*
X84502Y13092D01*
Y13302D01*
X84607D02*
X84712D01*
X84659D01*
Y12987D01*
X84607D01*
X84712D01*
X84869D02*
Y13197D01*
X84974Y13302D01*
X85079Y13197D01*
Y12987D01*
Y13145D01*
X84869D01*
X83663Y14601D02*
Y14916D01*
X83873Y14601D01*
Y14916D01*
X84135D02*
X84030D01*
X83978Y14863D01*
Y14653D01*
X84030Y14601D01*
X84135D01*
X84188Y14653D01*
Y14863D01*
X84135Y14916D01*
X84607D02*
Y14706D01*
X84712Y14601D01*
X84817Y14706D01*
Y14916D01*
X84922D02*
X85027D01*
X84975D01*
Y14601D01*
X84922D01*
X85027D01*
X85185D02*
Y14811D01*
X85290Y14916D01*
X85395Y14811D01*
Y14601D01*
Y14758D01*
X85185D01*
D96*
X19088Y16024D02*
G03*
X19088Y16024I-39J0D01*
G01*
X6148Y17228D02*
X6660D01*
X6148Y17740D02*
X6660D01*
X6148Y17228D02*
Y17740D01*
X6660Y17228D02*
Y17740D01*
X7949Y16347D02*
X8461D01*
X7949Y15835D02*
X8461D01*
Y16347D01*
X7949Y15835D02*
Y16347D01*
X7717Y18789D02*
X8111D01*
X7717Y19439D02*
X8111D01*
X7717Y18789D02*
Y19439D01*
X8111Y18789D02*
Y19439D01*
X10719Y21674D02*
X11507D01*
X10719Y22639D02*
X11507D01*
X10719Y21674D02*
Y22639D01*
X11507Y21674D02*
Y22639D01*
X7716Y17368D02*
X8051D01*
X7716Y17860D02*
X8051D01*
X7716Y17368D02*
Y17860D01*
X8051Y17368D02*
Y17860D01*
X15534Y9901D02*
Y15353D01*
X19934Y9901D02*
Y15353D01*
X15534D02*
X19934D01*
X15534Y9901D02*
X19934D01*
X7720Y15357D02*
Y15692D01*
X7228Y15357D02*
Y15692D01*
Y15357D02*
X7720D01*
X7228Y15692D02*
X7720D01*
X4891Y19369D02*
Y20019D01*
X4497Y19369D02*
Y20019D01*
X4891D01*
X4497Y19369D02*
X4891D01*
X6023Y18218D02*
X7480D01*
X6023Y20048D02*
X7480D01*
X6023Y18218D02*
Y20048D01*
X7480Y18218D02*
Y20048D01*
X7933Y12906D02*
X9941Y12906D01*
X7933Y10741D02*
X9941D01*
Y12906D01*
X7933Y12906D02*
X7933Y10741D01*
X10463Y12915D02*
Y14332D01*
X7411Y12915D02*
Y14332D01*
Y12915D02*
X10463D01*
X7411Y14332D02*
X10463D01*
X4909Y19504D02*
X6149D01*
X4909Y18342D02*
X6149D01*
X4909D02*
Y19504D01*
X6149Y18342D02*
Y19504D01*
X5998Y17222D02*
Y17734D01*
X5486Y17222D02*
Y17734D01*
X5998D01*
X5486Y17222D02*
X5998D01*
X17142Y26449D02*
Y27709D01*
X19164Y26449D02*
Y27709D01*
X17142D02*
X19164D01*
X17142Y26449D02*
X19164D01*
X52553Y16024D02*
G03*
X52553Y16024I-39J0D01*
G01*
X39612Y17228D02*
X40124D01*
X39612Y17740D02*
X40124D01*
X39612Y17228D02*
Y17740D01*
X40124Y17228D02*
Y17740D01*
X41414Y16347D02*
X41926D01*
X41414Y15835D02*
X41926D01*
Y16347D01*
X41414Y15835D02*
Y16347D01*
X41182Y18789D02*
X41575D01*
X41182Y19439D02*
X41575D01*
X41182Y18789D02*
Y19439D01*
X41575Y18789D02*
Y19439D01*
X44184Y21674D02*
X44971D01*
X44184Y22639D02*
X44971D01*
X44184Y21674D02*
Y22639D01*
X44971Y21674D02*
Y22639D01*
X41181Y17368D02*
X41516D01*
X41181Y17860D02*
X41516D01*
X41181Y17368D02*
Y17860D01*
X41516Y17368D02*
Y17860D01*
X48999Y9901D02*
Y15353D01*
X53398Y9901D02*
Y15353D01*
X48999D02*
X53398D01*
X48999Y9901D02*
X53398D01*
X41184Y15357D02*
Y15692D01*
X40692Y15357D02*
Y15692D01*
Y15357D02*
X41184D01*
X40692Y15692D02*
X41184D01*
X38355Y19369D02*
Y20019D01*
X37961Y19369D02*
Y20019D01*
X38355D01*
X37961Y19369D02*
X38355D01*
X39488Y18218D02*
X40945D01*
X39488Y20048D02*
X40945D01*
X39488Y18218D02*
Y20048D01*
X40945Y18218D02*
Y20048D01*
X41398Y12906D02*
X43406Y12906D01*
X41398Y10741D02*
X43406D01*
Y12906D01*
X41398Y12906D02*
X41398Y10741D01*
X43927Y12915D02*
Y14332D01*
X40876Y12915D02*
Y14332D01*
Y12915D02*
X43927D01*
X40876Y14332D02*
X43927D01*
X38373Y19504D02*
X39613D01*
X38373Y18342D02*
X39613D01*
X38373D02*
Y19504D01*
X39613Y18342D02*
Y19504D01*
X39463Y17222D02*
Y17734D01*
X38951Y17222D02*
Y17734D01*
X39463D01*
X38951Y17222D02*
X39463D01*
X50607Y26449D02*
Y27709D01*
X52628Y26449D02*
Y27709D01*
X50607D02*
X52628D01*
X50607Y26449D02*
X52628D01*
X86017Y16024D02*
G03*
X86017Y16024I-39J0D01*
G01*
X73077Y17228D02*
X73589D01*
X73077Y17740D02*
X73589D01*
X73077Y17228D02*
Y17740D01*
X73589Y17228D02*
Y17740D01*
X74878Y16347D02*
X75390D01*
X74878Y15835D02*
X75390D01*
Y16347D01*
X74878Y15835D02*
Y16347D01*
X74646Y18789D02*
X75040D01*
X74646Y19439D02*
X75040D01*
X74646Y18789D02*
Y19439D01*
X75040Y18789D02*
Y19439D01*
X77649Y21674D02*
X78436D01*
X77649Y22639D02*
X78436D01*
X77649Y21674D02*
Y22639D01*
X78436Y21674D02*
Y22639D01*
X74646Y17368D02*
X74980D01*
X74646Y17860D02*
X74980D01*
X74646Y17368D02*
Y17860D01*
X74980Y17368D02*
Y17860D01*
X82463Y9901D02*
Y15353D01*
X86863Y9901D02*
Y15353D01*
X82463D02*
X86863D01*
X82463Y9901D02*
X86863D01*
X74649Y15357D02*
Y15692D01*
X74157Y15357D02*
Y15692D01*
Y15357D02*
X74649D01*
X74157Y15692D02*
X74649D01*
X71820Y19369D02*
Y20019D01*
X71426Y19369D02*
Y20019D01*
X71820D01*
X71426Y19369D02*
X71820D01*
X72953Y18218D02*
X74409D01*
X72953Y20048D02*
X74409D01*
X72953Y18218D02*
Y20048D01*
X74409Y18218D02*
Y20048D01*
X74862Y12906D02*
X76870Y12906D01*
X74862Y10741D02*
X76870D01*
Y12906D01*
X74862Y12906D02*
X74862Y10741D01*
X77392Y12915D02*
Y14332D01*
X74341Y12915D02*
Y14332D01*
Y12915D02*
X77392D01*
X74341Y14332D02*
X77392D01*
X71838Y19504D02*
X73078D01*
X71838Y18342D02*
X73078D01*
X71838D02*
Y19504D01*
X73078Y18342D02*
Y19504D01*
X72927Y17222D02*
Y17734D01*
X72415Y17222D02*
Y17734D01*
X72927D01*
X72415Y17222D02*
X72927D01*
X84071Y26449D02*
Y27709D01*
X86093Y26449D02*
Y27709D01*
X84071D02*
X86093D01*
X84071Y26449D02*
X86093D01*
D175*
X18280Y21036D02*
Y22375D01*
X17414D02*
X18280D01*
X17414Y21036D02*
Y22375D01*
Y21036D02*
X18280D01*
X18348Y15950D02*
Y16473D01*
X19120D01*
Y15950D02*
Y16473D01*
X18348Y15950D02*
X19120D01*
X51744Y21036D02*
Y22375D01*
X50878D02*
X51744D01*
X50878Y21036D02*
Y22375D01*
Y21036D02*
X51744D01*
X51813Y15950D02*
Y16473D01*
X52584D01*
Y15950D02*
Y16473D01*
X51813Y15950D02*
X52584D01*
X85209Y21036D02*
Y22375D01*
X84343D02*
X85209D01*
X84343Y21036D02*
Y22375D01*
Y21036D02*
X85209D01*
X85277Y15950D02*
Y16473D01*
X86049D01*
Y15950D02*
Y16473D01*
X85277Y15950D02*
X86049D01*
M02*
